<svg width="82" height="84" viewBox="0 0 82 84" fill="none" xmlns="http://www.w3.org/2000/svg">
<path d="M40.8083 3.60945C18.609 3.60945 0.613037 21.6055 0.613037 43.8047C0.613037 51.3647 2.70172 58.4363 6.33127 64.4766L7.20555 64.6406H74.4358L75.2855 64.4766C78.9149 58.4363 81.0036 51.3647 81.0036 43.8047C81.0036 21.6055 63.0076 3.60945 40.8083 3.60945Z" fill="#B3DAFE"/>
<path d="M66.7008 24.6938C67.1036 24.6938 67.4314 25.0216 67.4314 25.4243V64.6406H74.4411V5.16804C74.4411 4.26193 73.7066 3.52742 72.8005 3.52742H60.4958C59.5897 3.52742 58.8552 4.26193 58.8552 5.16804V24.6938H66.7008Z" fill="#A2AEE6"/>
<path d="M14.2302 21.4922V18.7032C14.2302 17.9784 13.6426 17.3907 12.9177 17.3907C12.1929 17.3907 11.6052 17.9784 11.6052 18.7032V21.4922H14.2302Z" fill="#6C7FD8"/>
<path d="M18.4958 21.4922V16.0782C18.4958 15.3534 17.9082 14.7657 17.1833 14.7657C16.4585 14.7657 15.8708 15.3534 15.8708 16.0782V21.4922H18.4958Z" fill="#6C7FD8"/>
<path d="M55.902 20.6719H49.8226C49.436 21.0923 49.0178 21.4885 48.5694 21.857C47.5196 22.7193 46.5804 23.6815 45.7666 24.7177C45.8234 24.7029 45.8823 24.6938 45.9436 24.6938H56.7224V21.4922C56.7224 21.0393 56.355 20.6719 55.902 20.6719V20.6719Z" fill="#A2AEE6"/>
<path d="M27.3065 21.4922C27.7587 21.4922 28.1265 21.8601 28.1265 22.3124V26.1703H28.8274C29.2301 26.1703 29.5579 26.4981 29.5579 26.9009V64.6406H40.6443V33.7052C40.4103 33.6594 40.1614 33.5129 40.0349 33.2045L38.207 28.7464C37.1384 26.14 35.3493 23.7535 33.0331 21.8453C30.1914 19.504 28.5658 16.0514 28.5734 12.3732C28.5737 12.1852 28.5799 11.9986 28.5888 11.8127H25.8787C25.4257 11.8127 25.0583 12.1801 25.0583 12.633V21.4924H27.3065V21.4922Z" fill="#A2AEE6"/>
<path d="M62.3005 13.1251H70.9958C71.4488 13.1251 71.8161 12.7577 71.8161 12.3047V9.67975C71.8161 9.22677 71.4488 8.85944 70.9958 8.85944H62.3005C61.8475 8.85944 61.4802 9.22677 61.4802 9.67975V12.3047C61.4802 12.7577 61.8475 13.1251 62.3005 13.1251Z" fill="white"/>
<path d="M65.4177 12.3047V9.67975C65.4177 9.22677 65.785 8.85944 66.238 8.85944H62.3005C61.8475 8.85944 61.4802 9.22677 61.4802 9.67975V12.3047C61.4802 12.7577 61.8475 13.1251 62.3005 13.1251H66.238C65.785 13.1251 65.4177 12.7577 65.4177 12.3047Z" fill="#F5F8F9"/>
<path d="M62.3005 19.6876H70.9958C71.4488 19.6876 71.8161 19.3202 71.8161 18.8672V16.2422C71.8161 15.7893 71.4488 15.4219 70.9958 15.4219H62.3005C61.8475 15.4219 61.4802 15.7893 61.4802 16.2422V18.8672C61.4802 19.3202 61.8475 19.6876 62.3005 19.6876Z" fill="white"/>
<path d="M65.4177 18.8672V16.2422C65.4177 15.7893 65.785 15.4219 66.238 15.4219H62.3005C61.8475 15.4219 61.4802 15.7893 61.4802 16.2422V18.8672C61.4802 19.3202 61.8475 19.6876 62.3005 19.6876H66.238C65.785 19.6876 65.4177 19.3202 65.4177 18.8672Z" fill="#F5F8F9"/>
<path d="M66.7008 24.6938C67.1036 24.6938 67.4314 25.0216 67.4314 25.4243V26.2501H70.9958C71.4488 26.2501 71.8161 25.8827 71.8161 25.4297V22.8047C71.8161 22.3518 71.4488 21.9844 70.9958 21.9844H62.3005C61.8475 21.9844 61.4802 22.3518 61.4802 22.8047V24.6938H66.7008Z" fill="white"/>
<path d="M66.238 21.9844H62.3005C61.8475 21.9844 61.4802 22.3518 61.4802 22.8047V24.6938H65.4177V22.8047C65.4177 22.3518 65.785 21.9844 66.238 21.9844Z" fill="#F5F8F9"/>
<path d="M28.2905 26.1703V22.3124C28.2905 21.7689 27.8499 21.3282 27.3063 21.3282H9.5912C9.04767 21.3282 8.60699 21.7689 8.60699 22.3124V26.1703H28.2905Z" fill="#4F66D0"/>
<path d="M13.7379 21.3282H9.5912C9.04767 21.3282 8.60699 21.7689 8.60699 22.3124V26.1703H12.7537V22.3124C12.7537 21.7689 13.1943 21.3282 13.7379 21.3282V21.3282Z" fill="#314DC9"/>
<path d="M29.7221 64.6406V26.9009C29.7221 26.4067 29.3215 26.0061 28.8273 26.0061H8.07017C7.57601 26.0061 7.17554 26.4067 7.17554 26.9009V64.6406H29.7221Z" fill="#6C7FD8"/>
<path d="M12.2657 26.0063H8.07017C7.57601 26.0063 7.17554 26.407 7.17554 26.9011V64.6407H11.3711V26.901C11.3711 26.4068 11.7717 26.0063 12.2657 26.0063Z" fill="#4F66D0"/>
<path d="M10.5129 70.2188C17.8811 78.6634 28.7209 84 40.8083 84C52.8958 84 63.7356 78.6634 71.1038 70.2188H10.5129Z" fill="#6C7FD8"/>
<path d="M10.6615 34.9606H14.0473C14.3438 34.9606 14.5841 34.7203 14.5841 34.4238V31.038C14.5841 30.7416 14.3438 30.5012 14.0473 30.5012H10.6615C10.3651 30.5012 10.1247 30.7416 10.1247 31.038V34.4238C10.1246 34.7203 10.3649 34.9606 10.6615 34.9606Z" fill="white"/>
<path d="M16.756 34.9606H20.1417C20.4382 34.9606 20.6785 34.7203 20.6785 34.4238V31.038C20.6785 30.7416 20.4382 30.5012 20.1417 30.5012H16.756C16.4595 30.5012 16.2191 30.7416 16.2191 31.038V34.4238C16.2191 34.7203 16.4595 34.9606 16.756 34.9606V34.9606Z" fill="white"/>
<path d="M22.3136 31.038V34.4238C22.3136 34.7203 22.5539 34.9606 22.8504 34.9606H26.2361C26.5326 34.9606 26.7729 34.7203 26.7729 34.4238V31.038C26.7729 30.7416 26.5326 30.5012 26.2361 30.5012H22.8504C22.5539 30.5012 22.3136 30.7416 22.3136 31.038Z" fill="white"/>
<path d="M10.6615 41.1563H14.0473C14.3438 41.1563 14.5841 40.9159 14.5841 40.6195V37.2337C14.5841 36.9372 14.3438 36.6969 14.0473 36.6969H10.6615C10.3651 36.6969 10.1247 36.9372 10.1247 37.2337V40.6195C10.1246 40.9159 10.3649 41.1563 10.6615 41.1563Z" fill="white"/>
<path d="M16.756 41.1563H20.1417C20.4382 41.1563 20.6785 40.9159 20.6785 40.6195V37.2337C20.6785 36.9372 20.4382 36.6969 20.1417 36.6969H16.756C16.4595 36.6969 16.2191 36.9372 16.2191 37.2337V40.6195C16.2191 40.9159 16.4595 41.1563 16.756 41.1563V41.1563Z" fill="white"/>
<path d="M22.8506 41.1563H26.2363C26.5328 41.1563 26.7731 40.9159 26.7731 40.6195V37.2337C26.7731 36.9372 26.5328 36.6969 26.2363 36.6969H22.8506C22.5541 36.6969 22.3138 36.9372 22.3138 37.2337V40.6195C22.3136 40.9159 22.5539 41.1563 22.8506 41.1563Z" fill="white"/>
<path d="M10.6615 47.3519H14.0473C14.3438 47.3519 14.5841 47.1116 14.5841 46.8151V43.4293C14.5841 43.1329 14.3438 42.8925 14.0473 42.8925H10.6615C10.3651 42.8925 10.1247 43.1329 10.1247 43.4293V46.8151C10.1246 47.1116 10.3649 47.3519 10.6615 47.3519Z" fill="white"/>
<path d="M16.756 47.3519H20.1417C20.4382 47.3519 20.6785 47.1116 20.6785 46.8151V43.4293C20.6785 43.1329 20.4382 42.8925 20.1417 42.8925H16.756C16.4595 42.8925 16.2191 43.1329 16.2191 43.4293V46.8151C16.2191 47.1116 16.4595 47.3519 16.756 47.3519V47.3519Z" fill="white"/>
<path d="M22.8506 47.3519H26.2363C26.5328 47.3519 26.7731 47.1116 26.7731 46.8151V43.4293C26.7731 43.1329 26.5328 42.8925 26.2363 42.8925H22.8506C22.5541 42.8925 22.3138 43.1329 22.3138 43.4293V46.8151C22.3136 47.1116 22.5539 47.3519 22.8506 47.3519Z" fill="white"/>
<path d="M10.6615 53.5474H14.0473C14.3438 53.5474 14.5841 53.3071 14.5841 53.0106V49.6248C14.5841 49.3284 14.3438 49.088 14.0473 49.088H10.6615C10.3651 49.088 10.1247 49.3284 10.1247 49.6248V53.0106C10.1246 53.3071 10.3649 53.5474 10.6615 53.5474Z" fill="white"/>
<path d="M16.756 53.5474H20.1417C20.4382 53.5474 20.6785 53.3071 20.6785 53.0106V49.6248C20.6785 49.3284 20.4382 49.088 20.1417 49.088H16.756C16.4595 49.088 16.2191 49.3284 16.2191 49.6248V53.0106C16.2191 53.3071 16.4595 53.5474 16.756 53.5474V53.5474Z" fill="white"/>
<path d="M22.8506 53.5474H26.2363C26.5328 53.5474 26.7731 53.3071 26.7731 53.0106V49.6248C26.7731 49.3284 26.5328 49.088 26.2363 49.088H22.8506C22.5541 49.088 22.3138 49.3284 22.3138 49.6248V53.0106C22.3136 53.3071 22.5539 53.5474 22.8506 53.5474Z" fill="white"/>
<path d="M10.6615 59.7431H14.0473C14.3438 59.7431 14.5841 59.5027 14.5841 59.2062V55.8205C14.5841 55.524 14.3438 55.2837 14.0473 55.2837H10.6615C10.3651 55.2837 10.1247 55.524 10.1247 55.8205V59.2062C10.1246 59.5027 10.3649 59.7431 10.6615 59.7431Z" fill="white"/>
<path d="M12.2615 34.4238V31.038C12.2615 30.7416 12.5018 30.5012 12.7983 30.5012H10.6615C10.3651 30.5012 10.1247 30.7416 10.1247 31.038V34.4238C10.1247 34.7203 10.3651 34.9606 10.6615 34.9606H12.7985C12.5018 34.9606 12.2615 34.7203 12.2615 34.4238V34.4238Z" fill="#F5F8F9"/>
<path d="M12.2615 40.6195V37.2337C12.2615 36.9372 12.5018 36.6969 12.7983 36.6969H10.6615C10.3651 36.6969 10.1247 36.9372 10.1247 37.2337V40.6195C10.1247 40.9159 10.3651 41.1563 10.6615 41.1563H12.7985C12.5018 41.1563 12.2615 40.9159 12.2615 40.6195V40.6195Z" fill="#F5F8F9"/>
<path d="M12.2615 46.8151V43.4293C12.2615 43.1329 12.5018 42.8925 12.7983 42.8925H10.6615C10.3651 42.8925 10.1247 43.1329 10.1247 43.4293V46.8151C10.1247 47.1116 10.3651 47.3519 10.6615 47.3519H12.7985C12.5018 47.3519 12.2615 47.1116 12.2615 46.8151V46.8151Z" fill="#F5F8F9"/>
<path d="M12.2615 53.0106V49.6248C12.2615 49.3284 12.5018 49.088 12.7983 49.088H10.6615C10.3651 49.088 10.1247 49.3284 10.1247 49.6248V53.0106C10.1247 53.3071 10.3651 53.5474 10.6615 53.5474H12.7985C12.5018 53.5474 12.2615 53.3071 12.2615 53.0106V53.0106Z" fill="#F5F8F9"/>
<path d="M12.2615 59.2062V55.8205C12.2615 55.524 12.5018 55.2837 12.7983 55.2837H10.6615C10.3651 55.2837 10.1247 55.524 10.1247 55.8205V59.2062C10.1247 59.5027 10.3651 59.7431 10.6615 59.7431H12.7985C12.5018 59.7431 12.2615 59.5027 12.2615 59.2062V59.2062Z" fill="#F5F8F9"/>
<path d="M16.756 59.7431H20.1417C20.4382 59.7431 20.6785 59.5027 20.6785 59.2062V55.8205C20.6785 55.524 20.4382 55.2837 20.1417 55.2837H16.756C16.4595 55.2837 16.2191 55.524 16.2191 55.8205V59.2062C16.2191 59.5027 16.4595 59.7431 16.756 59.7431V59.7431Z" fill="white"/>
<path d="M22.8506 59.7431H26.2363C26.5328 59.7431 26.7731 59.5027 26.7731 59.2062V55.8205C26.7731 55.524 26.5328 55.2837 26.2363 55.2837H22.8506C22.5541 55.2837 22.3138 55.524 22.3138 55.8205V59.2062C22.3136 59.5027 22.5539 59.7431 22.8506 59.7431Z" fill="white"/>
<path d="M18.3561 34.4238V31.038C18.3561 30.7416 18.5964 30.5012 18.8929 30.5012H16.756C16.4595 30.5012 16.2191 30.7416 16.2191 31.038V34.4238C16.2191 34.7203 16.4595 34.9606 16.756 34.9606H18.8929C18.5964 34.9606 18.3561 34.7203 18.3561 34.4238Z" fill="#F5F8F9"/>
<path d="M18.3561 40.6195V37.2337C18.3561 36.9372 18.5964 36.6969 18.8929 36.6969H16.756C16.4595 36.6969 16.2191 36.9372 16.2191 37.2337V40.6195C16.2191 40.9159 16.4595 41.1563 16.756 41.1563H18.8929C18.5964 41.1563 18.3561 40.9159 18.3561 40.6195Z" fill="#F5F8F9"/>
<path d="M18.3561 46.8151V43.4293C18.3561 43.1329 18.5964 42.8925 18.8929 42.8925H16.756C16.4595 42.8925 16.2191 43.1329 16.2191 43.4293V46.8151C16.2191 47.1116 16.4595 47.3519 16.756 47.3519H18.8929C18.5964 47.3519 18.3561 47.1116 18.3561 46.8151Z" fill="#F5F8F9"/>
<path d="M18.3561 53.0106V49.6248C18.3561 49.3284 18.5964 49.088 18.8929 49.088H16.756C16.4595 49.088 16.2191 49.3284 16.2191 49.6248V53.0106C16.2191 53.3071 16.4595 53.5474 16.756 53.5474H18.8929C18.5964 53.5474 18.3561 53.3071 18.3561 53.0106Z" fill="#F5F8F9"/>
<path d="M18.3561 59.2062V55.8205C18.3561 55.524 18.5964 55.2837 18.8929 55.2837H16.756C16.4595 55.2837 16.2191 55.524 16.2191 55.8205V59.2062C16.2191 59.5027 16.4595 59.7431 16.756 59.7431H18.8929C18.5964 59.7431 18.3561 59.5027 18.3561 59.2062Z" fill="#F5F8F9"/>
<path d="M24.4505 34.4238V31.038C24.4505 30.7416 24.6908 30.5012 24.9873 30.5012H22.8504C22.5539 30.5012 22.3136 30.7416 22.3136 31.038V34.4238C22.3136 34.7203 22.5539 34.9606 22.8504 34.9606H24.9873C24.6908 34.9606 24.4505 34.7203 24.4505 34.4238Z" fill="#F5F8F9"/>
<path d="M24.4505 40.6195V37.2337C24.4505 36.9372 24.6908 36.6969 24.9873 36.6969H22.8504C22.5539 36.6969 22.3136 36.9372 22.3136 37.2337V40.6195C22.3136 40.9159 22.5539 41.1563 22.8504 41.1563H24.9873C24.6908 41.1563 24.4505 40.9159 24.4505 40.6195Z" fill="#F5F8F9"/>
<path d="M24.4505 46.8151V43.4293C24.4505 43.1329 24.6908 42.8925 24.9873 42.8925H22.8504C22.5539 42.8925 22.3136 43.1329 22.3136 43.4293V46.8151C22.3136 47.1116 22.5539 47.3519 22.8504 47.3519H24.9873C24.6908 47.3519 24.4505 47.1116 24.4505 46.8151Z" fill="#F5F8F9"/>
<path d="M24.4505 53.0106V49.6248C24.4505 49.3284 24.6908 49.088 24.9873 49.088H22.8504C22.5539 49.088 22.3136 49.3284 22.3136 49.6248V53.0106C22.3136 53.3071 22.5539 53.5474 22.8504 53.5474H24.9873C24.6908 53.5474 24.4505 53.3071 24.4505 53.0106Z" fill="#F5F8F9"/>
<path d="M24.4505 59.2062V55.8205C24.4505 55.524 24.6908 55.2837 24.9873 55.2837H22.8504C22.5539 55.2837 22.3136 55.524 22.3136 55.8205V59.2062C22.3136 59.5027 22.5539 59.7431 22.8504 59.7431H24.9873C24.6908 59.7431 24.4505 59.5027 24.4505 59.2062Z" fill="#F5F8F9"/>
<path d="M66.7008 24.5297H45.9436C45.9336 24.5297 45.9241 24.5308 45.9143 24.5312C45.608 24.9106 45.3199 25.3011 45.049 25.7003V64.6406H67.5956V25.4243C67.5954 24.9302 67.195 24.5297 66.7008 24.5297V24.5297Z" fill="#6C7FD8"/>
<path d="M49.4785 24.5312C49.4884 24.5308 49.4981 24.5297 49.5079 24.5297H45.9435C45.9335 24.5297 45.924 24.5308 45.9141 24.5312C45.6078 24.9106 45.3197 25.3011 45.0489 25.7003V64.6406H48.6133V25.7001C48.8843 25.3011 49.1724 24.9106 49.4785 24.5312Z" fill="#4F66D0"/>
<path d="M70.959 70.3828C72.5723 68.554 74.0226 66.5782 75.2854 64.4766H6.33127C7.59406 66.5782 9.04453 68.554 10.6576 70.3828H70.959Z" fill="#BEC6ED"/>
<path d="M14.0284 66.8763C13.3835 66.1005 12.7674 65.2997 12.1806 64.4766H6.33127C7.59406 66.5782 9.04453 68.554 10.6576 70.3828H70.959C71.7034 69.5389 72.4115 68.6623 73.0841 67.7578H15.9173C15.1883 67.7578 14.4944 67.4369 14.0284 66.8763V66.8763Z" fill="#A2AEE6"/>
<path d="M68.1324 32.224H50.2383C49.7441 32.224 49.3437 31.8234 49.3437 31.3294V29.54C49.3437 29.0458 49.7443 28.6454 50.2383 28.6454H68.1324C68.6266 28.6454 69.027 29.046 69.027 29.54V31.3294C69.027 31.8236 68.6264 32.224 68.1324 32.224Z" fill="#4F66D0"/>
<path d="M68.1324 38.845H50.2383C49.7441 38.845 49.3437 38.4443 49.3437 37.9503V36.1609C49.3437 35.6667 49.7443 35.2663 50.2383 35.2663H68.1324C68.6266 35.2663 69.027 35.6669 69.027 36.1609V37.9503C69.027 38.4443 68.6264 38.845 68.1324 38.845Z" fill="#4F66D0"/>
<path d="M68.1324 45.4657H50.2383C49.7441 45.4657 49.3437 45.065 49.3437 44.5711V42.7816C49.3437 42.2875 49.7443 41.887 50.2383 41.887H68.1324C68.6266 41.887 69.027 42.2876 69.027 42.7816V44.5711C69.027 45.0652 68.6264 45.4657 68.1324 45.4657Z" fill="#4F66D0"/>
<path d="M68.1324 52.0866H50.2383C49.7441 52.0866 49.3437 51.686 49.3437 51.192V49.4025C49.3437 48.9084 49.7443 48.5079 50.2383 48.5079H68.1324C68.6266 48.5079 69.027 48.9085 69.027 49.4025V51.192C69.027 51.686 68.6264 52.0866 68.1324 52.0866Z" fill="#4F66D0"/>
<path d="M68.1324 58.7075H50.2383C49.7441 58.7075 49.3437 58.3068 49.3437 57.8129V56.0234C49.3437 55.5293 49.7443 55.1288 50.2383 55.1288H68.1324C68.6266 55.1288 69.027 55.5294 69.027 56.0234V57.8129C69.027 58.3068 68.6264 58.7075 68.1324 58.7075Z" fill="#4F66D0"/>
<path d="M41.5817 33.2045C41.4249 33.5869 41.0794 33.7231 40.8083 33.7231C40.5373 33.7231 40.1918 33.5869 40.035 33.2045L39.6051 32.1563H35.2302C34.7772 32.1563 34.4099 32.5236 34.4099 32.9766V34.7813C34.4099 35.2343 34.7772 35.6016 35.2302 35.6016H41.1365C41.5894 35.6016 41.9568 35.2343 41.9568 34.7813V32.9766C41.9568 32.8265 41.9135 32.6879 41.8433 32.5668L41.5817 33.2045Z" fill="#6C7FD8"/>
<path d="M41.1364 37.8985H35.2302C34.7772 37.8985 34.4099 38.2658 34.4099 38.7188V40.5235C34.4099 40.9765 34.7772 41.3438 35.2302 41.3438H41.1364C41.5894 41.3438 41.9567 40.9765 41.9567 40.5235V38.7188C41.9567 38.2658 41.5894 37.8985 41.1364 37.8985Z" fill="#6C7FD8"/>
<path d="M41.1364 43.6407H35.2302C34.7772 43.6407 34.4099 44.008 34.4099 44.461V46.2657C34.4099 46.7186 34.7772 47.086 35.2302 47.086H41.1364C41.5894 47.086 41.9567 46.7186 41.9567 46.2657V44.461C41.9567 44.008 41.5894 43.6407 41.1364 43.6407Z" fill="#6C7FD8"/>
<path d="M41.1364 49.3828H35.2302C34.7772 49.3828 34.4099 49.7502 34.4099 50.2032V52.0078C34.4099 52.4608 34.7772 52.8282 35.2302 52.8282H41.1364C41.5894 52.8282 41.9567 52.4608 41.9567 52.0078V50.2032C41.9567 49.7502 41.5894 49.3828 41.1364 49.3828Z" fill="#6C7FD8"/>
<path d="M41.1364 55.125H35.2302C34.7772 55.125 34.4099 55.4924 34.4099 55.9453V57.75C34.4099 58.203 34.7772 58.5703 35.2302 58.5703H41.1364C41.5894 58.5703 41.9567 58.203 41.9567 57.75V55.9453C41.9567 55.4924 41.5894 55.125 41.1364 55.125Z" fill="#6C7FD8"/>
<path d="M53.2073 12.3989C53.2073 5.62134 47.7692 0.113768 41.0183 0.00171343C34.1423 -0.112474 28.4238 5.49551 28.4095 12.3725C28.4014 16.2383 30.1628 19.6926 32.9289 21.9716C35.1631 23.8126 36.9571 26.1298 38.0554 28.8084L39.8832 33.2665C40.2225 34.0939 41.3942 34.0939 41.7335 33.2665L43.577 28.7702C44.6679 26.1096 46.4514 23.8088 48.6735 21.9834C51.4415 19.7099 53.2073 16.2608 53.2073 12.3989V12.3989Z" fill="#FE646F"/>
<path d="M42.8829 27.0776C41.7847 24.3991 39.9906 22.0817 37.7564 20.2408C34.9904 17.9618 33.229 14.5075 33.237 10.6417C33.2462 6.20212 35.6346 2.29416 39.1751 0.110489C33.1497 0.919152 28.4224 6.12091 28.4095 12.3725C28.4014 16.2383 30.1628 19.6926 32.9289 21.9716C35.1631 23.8126 36.9571 26.1298 38.0554 28.8084L39.8832 33.2665C40.2225 34.0939 41.3942 34.0939 41.7335 33.2665L43.5769 28.7704L42.8829 27.0776Z" fill="#FD4755"/>
<path d="M40.8083 17.7985C43.7904 17.7985 46.2079 15.381 46.2079 12.3989C46.2079 9.41679 43.7904 6.9993 40.8083 6.9993C37.8262 6.9993 35.4087 9.41679 35.4087 12.3989C35.4087 15.381 37.8262 17.7985 40.8083 17.7985Z" fill="white"/>
<path d="M39.3608 12.3989C39.3608 10.1145 40.7801 8.163 42.7843 7.37418C42.1722 7.13318 41.5061 6.99947 40.8083 6.99947C37.8262 6.99947 35.4089 9.41692 35.4089 12.3989C35.4089 15.3811 37.8263 17.7985 40.8083 17.7985C41.5061 17.7985 42.1722 17.6648 42.7843 17.4238C40.7801 16.6348 39.3608 14.6833 39.3608 12.3989V12.3989Z" fill="#E8EDF2"/>
</svg>
