<svg width="80" height="80" viewBox="0 0 80 80" fill="none" xmlns="http://www.w3.org/2000/svg">
<path d="M40 80C62.0914 80 80 62.0914 80 40C80 17.9086 62.0914 0 40 0C17.9086 0 0 17.9086 0 40C0 62.0914 17.9086 80 40 80Z" fill="#382B73"/>
<path d="M40 74.1667C58.8697 74.1667 74.1667 58.8697 74.1667 40C74.1667 21.1303 58.8697 5.83333 40 5.83333C21.1303 5.83333 5.83334 21.1303 5.83334 40C5.83334 58.8697 21.1303 74.1667 40 74.1667Z" fill="#473080"/>
<path d="M34.5193 43.1497V40.3893C34.5193 37.155 31.9657 34.5177 28.7643 34.3827L28.7663 34.3773L26.9477 33.5937V32.158C28.2097 31.736 29.2273 30.78 29.732 29.558C29.809 29.4823 29.8843 29.4043 29.9573 29.3247C29.997 29.328 30.037 29.3297 30.0777 29.3297C30.8933 29.3297 31.5547 28.6687 31.5547 27.853C31.5547 27.5353 31.4543 27.2413 31.2837 27.0003C31.4527 26.4437 31.5437 25.853 31.5437 25.241C31.5437 21.8993 28.8347 19.1903 25.493 19.1903C22.1513 19.1903 19.4423 21.8993 19.4423 25.241C19.4423 25.853 19.5333 26.4437 19.7023 27.0003C19.5317 27.2413 19.4313 27.5353 19.4313 27.853C19.4313 28.6687 20.0927 29.3297 20.9083 29.3297C20.949 29.3297 20.989 29.328 21.0287 29.3247C21.1017 29.4043 21.1767 29.482 21.254 29.558C21.7587 30.78 22.7763 31.736 24.0387 32.158V33.7533V33.5937L22.22 34.3773L22.222 34.3827C19.021 34.5173 16.467 37.155 16.467 40.3893V43.1497C16.467 43.877 17.0567 44.4667 17.784 44.4667H33.203C33.93 44.4663 34.5193 43.877 34.5193 43.1497V43.1497Z" fill="#382B73"/>
<path d="M57.7784 34.3827L57.7803 34.3773L55.9617 33.5937V32.158C57.2237 31.736 58.2414 30.78 58.746 29.558C58.823 29.4823 58.8983 29.4043 58.9713 29.3247C59.011 29.328 59.051 29.3297 59.0917 29.3297C59.9073 29.3297 60.5687 28.6687 60.5687 27.853C60.5687 27.5353 60.4683 27.2413 60.2977 27.0003C60.4667 26.4437 60.5577 25.853 60.5577 25.241C60.5577 21.8993 57.8487 19.1903 54.507 19.1903C51.1653 19.1903 48.4563 21.8993 48.4563 25.241C48.4563 25.853 48.5473 26.4437 48.7163 27.0003C48.5457 27.241 48.4453 27.5353 48.4453 27.853C48.4453 28.6687 49.1067 29.3297 49.922 29.3297C49.9627 29.3297 50.0027 29.328 50.0423 29.3247C50.1153 29.4043 50.1903 29.482 50.2677 29.558C50.7723 30.78 51.79 31.736 53.0523 32.158V33.7533V33.5937L51.2337 34.3773L51.2357 34.3827C48.0347 34.5173 45.4807 37.155 45.4807 40.3893V43.1497C45.4807 43.877 46.0703 44.4667 46.7973 44.4667H62.2163C62.9437 44.4667 63.5333 43.877 63.5333 43.1497V40.3893C63.5333 37.155 60.9793 34.5177 57.7784 34.3827V34.3827Z" fill="#382B73"/>
<path d="M37.4263 28.083H39.7847V29.2337C39.7847 29.7917 40.444 30.088 40.8613 29.7177L44.0803 26.86C44.3703 26.6027 44.3703 26.1497 44.0803 25.8923L40.8613 23.0347C40.444 22.6643 39.7847 22.9607 39.7847 23.5187V24.6693H37.4263C36.9307 24.6693 36.5287 25.0713 36.5287 25.567V27.1857C36.5287 27.681 36.9307 28.083 37.4263 28.083V28.083Z" fill="#382B73"/>
<path d="M36.7463 35.707L39.9653 38.5647C40.3827 38.935 41.042 38.639 41.042 38.0807V36.93H43.4003C43.896 36.93 44.298 36.528 44.298 36.0323V34.4137C44.298 33.918 43.896 33.516 43.4003 33.516H41.042V32.3653C41.042 31.8073 40.3827 31.511 39.9653 31.8813L36.7463 34.739C36.4563 34.9967 36.4563 35.4497 36.7463 35.707V35.707Z" fill="#382B73"/>
<path d="M29.1967 52.154L28.941 47.8573C28.908 47.3003 28.2323 47.0437 27.8377 47.4383L27.024 48.252L25.3563 46.5843C25.0057 46.2337 24.4373 46.2337 24.087 46.5843L22.9423 47.729C22.5917 48.0797 22.5917 48.6477 22.9423 48.9983L24.61 50.666L23.7963 51.4797C23.4017 51.8743 23.6583 52.5497 24.2153 52.583L28.512 52.8387C28.8993 52.8613 29.2197 52.541 29.1967 52.154Z" fill="#382B73"/>
<path d="M55.913 46.584C55.5623 46.2333 54.994 46.2333 54.6437 46.584L52.976 48.2517L52.1623 47.438C51.7677 47.0433 51.092 47.3 51.059 47.857L50.8033 52.1537C50.7803 52.5407 51.1007 52.861 51.4877 52.838L55.7843 52.5823C56.3413 52.549 56.598 51.8737 56.2033 51.479L55.3897 50.6653L57.0573 48.9977C57.408 48.647 57.408 48.079 57.0573 47.7283L55.913 46.584Z" fill="#382B73"/>
<path d="M50.5317 56.0693C50.4957 56.0693 50.46 56.0697 50.424 56.0703C49.8943 53.318 47.473 51.2387 44.5663 51.2387C43.6853 51.2387 42.8493 51.4297 42.0967 51.7723C41.119 49.8127 39.0943 48.4667 36.7557 48.4667C33.461 48.4667 30.7903 51.1373 30.7903 54.432C30.7903 55.0003 30.87 55.5503 31.0183 56.071C30.9737 56.07 30.929 56.0693 30.884 56.0693C27.5893 56.0693 24.9187 58.74 24.9187 62.0347C24.9187 65.3293 27.5893 68 30.884 68H36.2313C37.2857 68.778 38.589 69.238 39.9997 69.238C41.4103 69.238 42.714 68.778 43.768 68H50.5313C53.826 68 56.4967 65.3293 56.4967 62.0347C56.497 58.74 53.8263 56.0693 50.5317 56.0693V56.0693Z" fill="#382B73"/>
<path d="M33.2027 42.133H17.7837C17.0563 42.133 16.4667 41.5433 16.4667 40.816V38.0557C16.4667 34.7353 19.1583 32.0437 22.4787 32.0437H28.5073C31.8277 32.0437 34.5193 34.7353 34.5193 38.0557V40.816C34.5193 41.5437 33.9297 42.133 33.2027 42.133Z" fill="#1CAEE4"/>
<path d="M31.8743 33.0747V42.133H33.2027C33.93 42.133 34.5197 41.5433 34.5197 40.816V38.0557C34.5193 35.9833 33.4703 34.1557 31.8743 33.0747V33.0747Z" fill="#009ADD"/>
<path d="M28.7667 32.044L26.948 31.2603V32.044L25.4933 34.3113L24.0383 32.044V31.2603L22.2197 32.044L25.493 40.926H25.4933L28.7667 32.044Z" fill="#D1D3D4"/>
<path d="M22.2197 32.044L23.5943 35.7697C23.6497 35.92 23.8423 35.962 23.9553 35.849L25.493 34.3113L24.0383 32.044V31.2603L22.2197 32.044Z" fill="white"/>
<path d="M28.7666 32.044L27.392 35.7697C27.3366 35.92 27.144 35.962 27.031 35.849L25.4933 34.3113L26.948 32.044V31.2603L28.7666 32.044Z" fill="white"/>
<path d="M25.493 30.0603C24.9843 30.0603 24.4953 29.9773 24.0383 29.8247V31.42V32.044L25.493 34.3113L26.9477 32.044V31.8033V29.8243C26.4907 29.9773 26.0017 30.0603 25.493 30.0603V30.0603Z" fill="#E6E7E8"/>
<path d="M26.711 35.529L25.8037 36.4363C25.6323 36.6077 25.3543 36.6077 25.183 36.4363L24.2757 35.529L25.4933 34.3113L26.711 35.529Z" fill="#1CAEE4"/>
<path d="M25.8037 36.4363C25.6323 36.6077 25.3543 36.6077 25.183 36.4363L24.872 36.1253L24.6023 38.508L25.4933 40.9267L26.3843 38.508L26.1147 36.1253L25.8037 36.4363Z" fill="#009ADD"/>
<path d="M21.1997 35.9453L21.974 35.2627C22.1173 35.1363 22.042 34.9 21.8523 34.8797L20.9433 34.7823C20.8017 34.7673 20.7117 34.6233 20.7603 34.4893L21.624 32.1057C21.8217 32.077 22.0213 32.0573 22.223 32.0507L25.4933 40.9263L21.1837 36.2587C21.1 36.1683 21.1073 36.027 21.1997 35.9453V35.9453Z" fill="#27C1E6"/>
<path d="M29.7866 35.9453L29.0123 35.2627C28.869 35.1363 28.9443 34.9 29.134 34.8797L30.043 34.7823C30.1846 34.7673 30.2746 34.6233 30.226 34.4893L29.3623 32.1057C29.1646 32.077 28.965 32.0573 28.763 32.0507L25.4933 40.9267L29.803 36.259C29.8863 36.1683 29.879 36.027 29.7866 35.9453V35.9453Z" fill="#27C1E6"/>
<path d="M30.836 40.3087H27.873C27.7027 40.3087 27.5643 40.447 27.5643 40.6173C27.5643 40.7877 27.7023 40.926 27.873 40.926H30.836C31.0063 40.926 31.1447 40.7877 31.1447 40.6173C31.1447 40.447 31.0063 40.3087 30.836 40.3087Z" fill="#27C1E6"/>
<path d="M19.112 42.133V33.0747C17.516 34.1557 16.467 35.9833 16.467 38.056V40.8163C16.467 41.5437 17.0567 42.1333 17.784 42.1333H19.112V42.133Z" fill="#009ADD"/>
<path d="M29.7651 27.186C32.1277 24.8234 32.1277 20.9929 29.7651 18.6304C27.4025 16.2678 23.572 16.2678 21.2095 18.6304C18.8469 20.9929 18.8469 24.8234 21.2095 27.186C23.572 29.5486 27.4025 29.5486 29.7651 27.186Z" fill="#009ADD"/>
<path d="M25.493 30.0603C22.961 30.0603 20.9083 28.0077 20.9083 25.4757V23.095C20.9083 20.563 22.961 18.5103 25.493 18.5103C28.025 18.5103 30.0777 20.563 30.0777 23.095V25.4757C30.078 28.0077 28.0253 30.0603 25.493 30.0603Z" fill="white"/>
<path d="M25.493 30.0603C24.9843 30.0603 24.4953 29.9773 24.0383 29.8247V30.6987C24.496 30.852 24.984 30.9383 25.493 30.9383C26.002 30.9383 26.4903 30.852 26.9477 30.6987V29.8247C26.4907 29.9773 26.0017 30.0603 25.493 30.0603Z" fill="#D1D3D4"/>
<path d="M20.9083 25.4753V24.0427C20.0927 24.0427 19.4313 24.704 19.4313 25.5193C19.4313 26.335 20.0927 26.9963 20.9083 26.9963C20.994 26.9963 21.0777 26.989 21.1593 26.975C20.9967 26.505 20.9083 26.0007 20.9083 25.4753Z" fill="white"/>
<path d="M30.078 24.0427V25.4753C30.078 26.0007 29.9897 26.505 29.827 26.975C29.9087 26.989 29.9923 26.9963 30.078 26.9963C30.8937 26.9963 31.555 26.335 31.555 25.5193C31.5547 24.704 30.8937 24.0427 30.078 24.0427V24.0427Z" fill="white"/>
<path d="M25.493 29.4017C22.961 29.4017 20.9083 27.349 20.9083 24.817V25.4753C20.9083 28.0073 22.961 30.06 25.493 30.06C28.025 30.06 30.0777 28.0073 30.0777 25.4753V24.817C30.078 27.349 28.0253 29.4017 25.493 29.4017Z" fill="#E6E7E8"/>
<path d="M20.9083 23.095V23.998C22.7003 22.9533 23.9077 21.0167 23.916 18.7947C22.162 19.438 20.9083 21.1177 20.9083 23.095Z" fill="#E6E7E8"/>
<path d="M27.8957 24.161C28.666 24.161 29.4003 24.0127 30.0777 23.7503V23.0947C30.0777 20.5627 28.025 18.51 25.493 18.51C24.1677 18.51 22.977 19.0757 22.14 19.975C22.9263 22.404 25.205 24.161 27.8957 24.161Z" fill="#E6E7E8"/>
<path d="M21.8753 18.0573C22.179 21.1147 24.7583 23.5027 27.8957 23.5027C29.252 23.5027 30.5043 23.0563 31.5133 22.3023C31.2097 19.245 28.6303 16.857 25.493 16.857C24.1367 16.857 22.8843 17.3033 21.8753 18.0573V18.0573Z" fill="#1CAEE4"/>
<path d="M19.4427 22.9073C19.4427 23.1827 19.4627 23.4533 19.4984 23.7187C22.047 23.0063 23.917 20.6687 23.917 17.8927C23.917 17.6173 23.897 17.3467 23.8614 17.081C21.3127 17.794 19.4427 20.1317 19.4427 22.9073V22.9073Z" fill="#009ADD"/>
<path d="M24.098 24.8747C24.098 25.1813 23.8493 25.43 23.5427 25.43C23.236 25.43 22.9873 25.1813 22.9873 24.8747C22.9873 24.568 23.236 24.3193 23.5427 24.3193C23.849 24.3193 24.098 24.568 24.098 24.8747Z" fill="#1CAEE4"/>
<path d="M28.407 24.8747C28.407 25.1813 28.1583 25.43 27.8517 25.43C27.545 25.43 27.2963 25.1813 27.2963 24.8747C27.2963 24.568 27.545 24.3193 27.8517 24.3193C28.1583 24.3193 28.407 24.568 28.407 24.8747Z" fill="#1CAEE4"/>
<path d="M20.9083 25.4753V24.6707C20.4397 24.6707 20.0597 25.0507 20.0597 25.5193C20.0597 25.988 20.4397 26.368 20.9083 26.368C20.938 26.368 20.9663 26.3623 20.9953 26.3593C20.9393 26.073 20.9083 25.778 20.9083 25.4753V25.4753Z" fill="#E6E7E8"/>
<path d="M30.0823 25.4753V24.6707C30.551 24.6707 30.931 25.0507 30.931 25.5193C30.931 25.988 30.551 26.368 30.0823 26.368C30.0527 26.368 30.0243 26.3623 29.9953 26.3593C30.051 26.073 30.0823 25.778 30.0823 25.4753V25.4753Z" fill="#E6E7E8"/>
<path d="M62.2163 42.133H46.7973C46.07 42.133 45.4803 41.5433 45.4803 40.816V38.0557C45.4803 34.7353 48.172 32.0437 51.4923 32.0437H57.521C60.8413 32.0437 63.533 34.7353 63.533 38.0557V40.816C63.5333 41.5437 62.9437 42.133 62.2163 42.133Z" fill="#1CAEE4"/>
<path d="M60.888 33.0747V42.133H62.2163C62.9437 42.133 63.5333 41.5433 63.5333 40.816V38.0557C63.5333 35.9833 62.484 34.1557 60.888 33.0747Z" fill="#009ADD"/>
<path d="M57.7803 32.044L55.9617 31.2603V32.044L54.507 34.3113L53.052 32.044V31.2603L51.2337 32.044L54.507 40.926L57.7803 32.044Z" fill="#D1D3D4"/>
<path d="M51.2337 32.044L52.6083 35.7697C52.6637 35.92 52.8563 35.962 52.9693 35.849L54.507 34.3113L53.0523 32.044V31.2603L51.2337 32.044Z" fill="white"/>
<path d="M57.7803 32.044L56.4057 35.7697C56.3503 35.92 56.1577 35.962 56.0447 35.849L54.507 34.3113L55.9617 32.044V31.2603L57.7803 32.044Z" fill="white"/>
<path d="M54.507 30.0603C53.9983 30.0603 53.5093 29.9773 53.0523 29.8247V31.42V32.044L54.507 34.3113L55.9617 32.044V31.8033V29.8243C55.5047 29.9773 55.0153 30.0603 54.507 30.0603V30.0603Z" fill="#E6E7E8"/>
<path d="M55.7247 35.529L54.8173 36.4363C54.646 36.6077 54.368 36.6077 54.1967 36.4363L53.2893 35.529L54.507 34.3113L55.7247 35.529Z" fill="#1CAEE4"/>
<path d="M54.8173 36.4363C54.646 36.6077 54.368 36.6077 54.1967 36.4363L53.8857 36.1253L53.616 38.508L54.507 40.9267L55.398 38.508L55.1283 36.1253L54.8173 36.4363Z" fill="#009ADD"/>
<path d="M50.2133 35.9453L50.9877 35.2627C51.131 35.1363 51.0557 34.9 50.866 34.8797L49.957 34.7823C49.8153 34.7673 49.7253 34.6233 49.774 34.4893L50.6377 32.1057C50.8353 32.077 51.035 32.0573 51.2367 32.0507L54.507 40.9263L50.1973 36.2587C50.1137 36.1683 50.121 36.027 50.2133 35.9453Z" fill="#27C1E6"/>
<path d="M58.8003 35.9453L58.026 35.2627C57.8827 35.1363 57.958 34.9 58.1477 34.8797L59.0567 34.7823C59.1983 34.7673 59.2883 34.6233 59.2397 34.4893L58.376 32.1057C58.1784 32.077 57.9787 32.0573 57.7767 32.0507L54.5063 40.9263L58.816 36.2587C58.9 36.1683 58.893 36.027 58.8003 35.9453Z" fill="#27C1E6"/>
<path d="M59.8497 40.3087H56.8867C56.7163 40.3087 56.578 40.447 56.578 40.6173C56.578 40.7877 56.7163 40.926 56.8867 40.926H59.8497C60.02 40.926 60.1583 40.7877 60.1583 40.6173C60.1583 40.447 60.0203 40.3087 59.8497 40.3087Z" fill="#27C1E6"/>
<path d="M48.1257 42.133V33.0747C46.5297 34.1557 45.4807 35.9833 45.4807 38.056V40.8163C45.4807 41.5437 46.0704 42.1333 46.7977 42.1333H48.1257V42.133Z" fill="#009ADD"/>
<path d="M58.776 27.1888C61.1386 24.8262 61.1386 20.9957 58.776 18.6331C56.4134 16.2705 52.5829 16.2705 50.2204 18.6331C47.8578 20.9957 47.8578 24.8262 50.2204 27.1888C52.5829 29.5513 56.4134 29.5513 58.776 27.1888Z" fill="#009ADD"/>
<path d="M54.507 30.0603C51.975 30.0603 49.9223 28.0077 49.9223 25.4757V23.095C49.9223 20.563 51.975 18.5103 54.507 18.5103C57.039 18.5103 59.0917 20.563 59.0917 23.095V25.4757C59.0917 28.0077 57.039 30.0603 54.507 30.0603Z" fill="white"/>
<path d="M54.507 30.0603C53.9983 30.0603 53.5093 29.9773 53.0523 29.8247V30.6987C53.51 30.852 53.998 30.9383 54.507 30.9383C55.016 30.9383 55.5043 30.852 55.9617 30.6987V29.8247C55.5047 29.9773 55.0153 30.0603 54.507 30.0603Z" fill="#D1D3D4"/>
<path d="M49.922 25.4753V24.0427C49.1063 24.0427 48.445 24.704 48.445 25.5193C48.445 26.335 49.1063 26.9963 49.922 26.9963C50.0077 26.9963 50.0913 26.989 50.173 26.975C50.0103 26.505 49.922 26.0007 49.922 25.4753Z" fill="white"/>
<path d="M59.0917 24.0427V25.4753C59.0917 26.0007 59.0033 26.505 58.8407 26.975C58.9223 26.989 59.006 26.9963 59.0917 26.9963C59.9073 26.9963 60.5687 26.335 60.5687 25.5193C60.5687 24.704 59.9073 24.0427 59.0917 24.0427V24.0427Z" fill="white"/>
<path d="M54.507 29.4017C51.975 29.4017 49.9223 27.349 49.9223 24.817V25.4753C49.9223 28.0073 51.975 30.06 54.507 30.06C57.039 30.06 59.0917 28.0073 59.0917 25.4753V24.817C59.0917 27.349 57.039 29.4017 54.507 29.4017Z" fill="#E6E7E8"/>
<path d="M49.922 23.095V23.998C51.714 22.9533 52.9213 21.0167 52.9297 18.7947C51.176 19.438 49.922 21.1177 49.922 23.095Z" fill="#E6E7E8"/>
<path d="M56.9097 24.161C57.68 24.161 58.4143 24.0127 59.0917 23.7503V23.0947C59.0917 20.5627 57.039 18.51 54.507 18.51C53.1817 18.51 51.991 19.0757 51.154 19.975C51.94 22.404 54.219 24.161 56.9097 24.161Z" fill="#E6E7E8"/>
<path d="M50.8893 18.0573C51.193 21.1147 53.7723 23.5027 56.9097 23.5027C58.266 23.5027 59.5183 23.0563 60.5273 22.3023C60.2237 19.245 57.6443 16.857 54.507 16.857C53.1503 16.857 51.8983 17.3033 50.8893 18.0573Z" fill="#1CAEE4"/>
<path d="M48.4563 22.9073C48.4563 23.1827 48.4763 23.4533 48.512 23.7187C51.0607 23.0063 52.9307 20.6687 52.9307 17.8927C52.9307 17.6173 52.9107 17.3467 52.875 17.081C50.3267 17.794 48.4563 20.1317 48.4563 22.9073V22.9073Z" fill="#009ADD"/>
<path d="M53.1117 24.8747C53.1117 25.1813 52.863 25.43 52.5563 25.43C52.2497 25.43 52.001 25.1813 52.001 24.8747C52.001 24.568 52.2497 24.3193 52.5563 24.3193C52.863 24.3193 53.1117 24.568 53.1117 24.8747Z" fill="#1CAEE4"/>
<path d="M57.421 24.8747C57.421 25.1813 57.1723 25.43 56.8657 25.43C56.559 25.43 56.3103 25.1813 56.3103 24.8747C56.3103 24.568 56.559 24.3193 56.8657 24.3193C57.1723 24.3193 57.421 24.568 57.421 24.8747Z" fill="#1CAEE4"/>
<path d="M49.922 25.4753V24.6707C49.4533 24.6707 49.0733 25.0507 49.0733 25.5193C49.0733 25.988 49.4533 26.368 49.922 26.368C49.9517 26.368 49.98 26.3623 50.009 26.3593C49.9533 26.073 49.922 25.778 49.922 25.4753V25.4753Z" fill="#E6E7E8"/>
<path d="M59.096 25.4753V24.6707C59.5647 24.6707 59.9447 25.0507 59.9447 25.5193C59.9447 25.988 59.5647 26.368 59.096 26.368C59.0663 26.368 59.038 26.3623 59.009 26.3593C59.065 26.073 59.096 25.778 59.096 25.4753V25.4753Z" fill="#E6E7E8"/>
<path d="M40.8613 27.384L44.0803 24.5263C44.3703 24.269 44.3703 23.816 44.0803 23.5587L40.8613 20.701C40.444 20.3307 39.7847 20.6267 39.7847 21.185V22.3357H37.426C36.9303 22.3357 36.5283 22.7377 36.5283 23.2333V24.8523C36.5283 25.348 36.9303 25.75 37.426 25.75H39.7847V26.9007C39.7847 27.4583 40.444 27.7547 40.8613 27.384Z" fill="#FEDE3A"/>
<path d="M37.4263 24.3557H39.785V25.5063C39.785 26.0643 40.4443 26.3607 40.8617 25.9903L43.8407 23.346L44.0807 23.559C44.3707 23.8163 44.3707 24.2693 44.0807 24.5267L40.8617 27.3843C40.4443 27.7547 39.785 27.4587 39.785 26.9003V25.7497H37.4263C36.9307 25.7497 36.5287 25.3477 36.5287 24.852V23.458C36.5287 23.9537 36.9307 24.3557 37.4263 24.3557V24.3557Z" fill="#E7AD27"/>
<path d="M39.9653 36.2313L36.7463 33.3737C36.4563 33.1163 36.4563 32.6633 36.7463 32.406L39.9653 29.5483C40.3827 29.178 41.042 29.474 41.042 30.0323V31.183H43.4007C43.8963 31.183 44.2983 31.585 44.2983 32.0807V33.6997C44.2983 34.1953 43.8963 34.5973 43.4007 34.5973H41.042V35.748C41.0417 36.3053 40.3827 36.6017 39.9653 36.2313Z" fill="#FEDE3A"/>
<path d="M43.4003 33.2027H41.0417V34.3533C41.0417 34.9113 40.3823 35.2077 39.965 34.8373L36.986 32.193L36.746 32.4063C36.456 32.6637 36.456 33.1167 36.746 33.374L39.965 36.2317C40.3823 36.602 41.0417 36.306 41.0417 35.7477V34.597H43.4003C43.896 34.597 44.298 34.195 44.298 33.6993V32.3053C44.2977 32.801 43.896 33.2027 43.4003 33.2027V33.2027Z" fill="#E7AD27"/>
<path d="M24.2157 50.2493L28.5123 50.505C28.8993 50.528 29.2197 50.2077 29.1967 49.8207L28.941 45.524C28.908 44.967 28.2323 44.7103 27.8377 45.105L27.024 45.9187L25.3563 44.251C25.0057 43.9003 24.4377 43.9003 24.087 44.251L22.9423 45.3957C22.5917 45.7463 22.5917 46.3143 22.9423 46.665L24.61 48.3327L23.7963 49.1463C23.402 49.5407 23.6587 50.2163 24.2157 50.2493V50.2493Z" fill="#FEDE3A"/>
<path d="M23.928 45.679L25.5957 47.3467L24.782 48.1603C24.3873 48.555 24.644 49.2307 25.201 49.2637L29.1773 49.5003L29.1963 49.821C29.2193 50.208 28.899 50.5283 28.512 50.5053L24.2153 50.2497C23.6583 50.2167 23.4017 49.541 23.7963 49.1463L24.61 48.3327L22.9423 46.665C22.5917 46.3143 22.5917 45.7463 22.9423 45.3957L23.928 44.41C23.5777 44.76 23.5777 45.3283 23.928 45.679Z" fill="#E7AD27"/>
<path d="M55.7843 50.2493L51.4877 50.505C51.1007 50.528 50.7803 50.2077 50.8033 49.8207L51.059 45.524C51.092 44.967 51.7677 44.7103 52.1623 45.105L52.976 45.9187L54.6437 44.251C54.9943 43.9003 55.5623 43.9003 55.913 44.251L57.0577 45.3957C57.4083 45.7463 57.4083 46.3143 57.0577 46.665L55.39 48.3327L56.2036 49.1463C56.598 49.5407 56.3413 50.2163 55.7843 50.2493Z" fill="#FEDE3A"/>
<path d="M56.072 45.679L54.4043 47.3467L55.218 48.1603C55.6127 48.555 55.356 49.2307 54.799 49.2637L50.8227 49.5003L50.8037 49.821C50.7807 50.208 51.101 50.5283 51.488 50.5053L55.7847 50.2497C56.3417 50.2167 56.5983 49.541 56.2037 49.1463L55.39 48.3327L57.0577 46.665C57.4083 46.3143 57.4083 45.7463 57.0577 45.3957L56.072 44.41C56.4223 44.76 56.4223 45.3283 56.072 45.679V45.679Z" fill="#E7AD27"/>
<path d="M50.5317 53.736C50.4957 53.736 50.46 53.7363 50.424 53.737C49.8943 50.9847 47.4733 48.9053 44.5663 48.9053C43.6853 48.9053 42.8493 49.0963 42.0967 49.439C41.119 47.4793 39.0943 46.1333 36.7557 46.1333C33.461 46.1333 30.7903 48.804 30.7903 52.0987C30.7903 52.667 30.87 53.217 31.0183 53.7377C30.9737 53.7367 30.929 53.736 30.884 53.736C27.5893 53.736 24.9187 56.4067 24.9187 59.7013C24.9187 62.996 27.5893 65.6667 30.884 65.6667H50.5317C53.8263 65.6667 56.497 62.996 56.497 59.7013C56.497 56.4067 53.8263 53.736 50.5317 53.736V53.736Z" fill="white"/>
<path d="M50.5317 62.0423H30.884C28.2213 62.0423 25.966 60.2977 25.199 57.8893C25.017 58.461 24.9187 59.0697 24.9187 59.7017C24.9187 62.9963 27.5893 65.667 30.884 65.667H50.5317C53.8263 65.667 56.497 62.9963 56.497 59.7017C56.497 59.0697 56.3987 58.461 56.2167 57.8893C55.4497 60.2977 53.1947 62.0423 50.5317 62.0423V62.0423Z" fill="#D1D3D4"/>
<path d="M40 66.9047C43.5085 66.9047 46.3527 64.0605 46.3527 60.552C46.3527 57.0435 43.5085 54.1993 40 54.1993C36.4915 54.1993 33.6473 57.0435 33.6473 60.552C33.6473 64.0605 36.4915 66.9047 40 66.9047Z" fill="#E7AD27"/>
<path d="M40 65.9273C43.5085 65.9273 46.3527 63.0831 46.3527 59.5747C46.3527 56.0662 43.5085 53.222 40 53.222C36.4915 53.222 33.6473 56.0662 33.6473 59.5747C33.6473 63.0831 36.4915 65.9273 40 65.9273Z" fill="#FEDE3A"/>
<path d="M43.3573 62.9412C45.2176 61.0809 45.2176 58.0648 43.3573 56.2045C41.4969 54.3442 38.4808 54.3442 36.6205 56.2045C34.7602 58.0648 34.7602 61.0809 36.6205 62.9412C38.4808 64.8016 41.4969 64.8016 43.3573 62.9412Z" fill="#F7CB15"/>
<path d="M40 55.1633C42.5717 55.1633 44.662 57.2023 44.7557 59.7513C44.7577 59.6923 44.7647 59.6343 44.7647 59.575C44.7647 56.9437 42.6317 54.8107 40.0003 54.8107C37.369 54.8107 35.236 56.9437 35.236 59.575C35.236 59.6347 35.2427 59.6923 35.245 59.7513C35.338 57.2023 37.4283 55.1633 40 55.1633V55.1633Z" fill="#E7AD27"/>
<path d="M42.0013 60.987C42.0013 60.6783 41.94 60.406 41.8183 60.177C41.697 59.9483 41.515 59.7497 41.2767 59.5863C41.0523 59.4327 40.7137 59.28 40.242 59.1197C39.7417 58.9497 39.511 58.7977 39.4057 58.7C39.3147 58.6157 39.2587 58.5047 39.235 58.3637C39.261 58.21 39.326 58.0857 39.4313 57.9867C39.5777 57.8493 39.787 57.7827 40.0713 57.7827C40.3423 57.7827 40.5467 57.865 40.696 58.0347C40.855 58.215 40.932 58.461 40.932 58.787V59.0757H41.959V58.787C41.959 58.774 41.9567 58.7627 41.9567 58.7497H41.959V58.461C41.959 57.8923 41.8137 57.43 41.527 57.0867C41.2853 56.797 40.962 56.6093 40.5637 56.526V56.048V55.7223H39.601V56.048V56.5227C39.2187 56.596 38.9017 56.759 38.6557 57.0087C38.3497 57.3193 38.1947 57.7237 38.1947 58.2113C38.1947 58.2693 38.2033 58.3223 38.208 58.3777C38.204 58.431 38.1947 58.4817 38.1947 58.537C38.1947 59.0013 38.3367 59.3887 38.6163 59.6887C38.883 59.9743 39.3157 60.2083 39.9317 60.4013C40.4497 60.5807 40.6813 60.7387 40.7847 60.8397C40.8737 60.927 40.9287 61.0327 40.9537 61.1587C40.924 61.3033 40.8527 61.4217 40.7337 61.5227C40.5603 61.67 40.335 61.7413 40.045 61.7413C39.7093 61.7413 39.461 61.6587 39.286 61.4883C39.1133 61.3203 39.0293 61.0857 39.0293 60.7707V60.482H37.9987V60.7707C37.9987 60.7837 38.0013 60.795 38.0017 60.808H37.9987V61.0967C37.9987 61.6687 38.166 62.131 38.496 62.4713C38.7707 62.7547 39.138 62.9343 39.5903 63.007V63.4263V63.752H40.5493V63.4263V62.999C40.9463 62.927 41.2747 62.766 41.527 62.5183C41.8413 62.21 42.001 61.804 42.001 61.3123C42.001 61.2427 41.997 61.1753 41.9907 61.1097C41.9933 61.0683 42.0013 61.03 42.0013 60.987V60.987Z" fill="#E7AD27"/>
<path d="M41.8183 60.177C41.697 59.9483 41.515 59.7497 41.2767 59.5863C41.0523 59.4323 40.7137 59.2797 40.2423 59.1197C39.742 58.9497 39.5113 58.7977 39.406 58.7C39.2823 58.5857 39.2223 58.4227 39.2223 58.202C39.2223 57.97 39.291 57.793 39.4317 57.6607C39.578 57.5233 39.7873 57.4567 40.0717 57.4567C40.3427 57.4567 40.547 57.539 40.6963 57.7087C40.8553 57.889 40.9323 58.135 40.9323 58.4613V58.75H41.9593V58.4613C41.9593 57.893 41.814 57.4307 41.5273 57.087C41.2857 56.7973 40.9623 56.6097 40.564 56.5263V55.7227H39.6013V56.523C39.219 56.5963 38.902 56.7593 38.656 57.009C38.35 57.3193 38.195 57.724 38.195 58.2117C38.195 58.676 38.337 59.0633 38.6167 59.3633C38.8833 59.649 39.316 59.883 39.932 60.0763C40.45 60.2557 40.6817 60.4137 40.7847 60.5147C40.9097 60.637 40.9703 60.7937 40.9703 60.9947C40.9703 61.2183 40.8953 61.3863 40.7337 61.5233C40.5603 61.6707 40.335 61.742 40.045 61.742C39.7093 61.742 39.4607 61.6593 39.2857 61.489C39.113 61.321 39.029 61.0863 39.029 60.7713V60.4827H37.9983V60.7713C37.9983 61.3433 38.1657 61.8057 38.4957 62.146C38.7703 62.4293 39.1377 62.609 39.5903 62.6817V63.4267H40.5493V62.6733C40.9463 62.6013 41.2747 62.4403 41.527 62.1927C41.8413 61.8843 42.001 61.4783 42.001 60.9867C42.0013 60.6787 41.9397 60.406 41.8183 60.177V60.177Z" fill="#D1D3D4"/>
<path d="M41.8183 59.8513C41.697 59.6227 41.515 59.424 41.2767 59.2607C41.0523 59.1067 40.7137 58.9543 40.2423 58.794C39.742 58.624 39.5113 58.472 39.406 58.3743C39.2823 58.26 39.2223 58.097 39.2223 57.8763C39.2223 57.6447 39.291 57.4673 39.4317 57.335C39.578 57.1977 39.7873 57.131 40.0717 57.131C40.3427 57.131 40.547 57.2133 40.6963 57.383C40.8553 57.5633 40.9323 57.8093 40.9323 58.1353V58.424H41.9593V58.1353C41.9593 57.567 41.814 57.1047 41.5273 56.761C41.2857 56.4713 40.9623 56.2837 40.564 56.2003V55.3967H39.6013V56.197C39.219 56.2703 38.902 56.4333 38.656 56.683C38.35 56.9933 38.195 57.398 38.195 57.8857C38.195 58.35 38.337 58.7373 38.6167 59.0373C38.8833 59.323 39.316 59.557 39.932 59.7503C40.45 59.9297 40.6817 60.0877 40.7847 60.1887C40.9097 60.311 40.9703 60.4677 40.9703 60.6687C40.9703 60.8923 40.8953 61.0603 40.7337 61.1973C40.5603 61.3447 40.335 61.416 40.045 61.416C39.7093 61.416 39.4607 61.3333 39.2857 61.163C39.113 60.995 39.029 60.7603 39.029 60.4453V60.1567H37.9983V60.4453C37.9983 61.0173 38.1657 61.4797 38.4957 61.82C38.7703 62.1033 39.1377 62.283 39.5903 62.3557V63.1007H40.5493V62.3473C40.9463 62.2753 41.2747 62.1143 41.527 61.8667C41.8413 61.5583 42.001 61.1523 42.001 60.6607C42.0013 60.3527 41.9397 60.0803 41.8183 59.8513V59.8513Z" fill="white"/>
</svg>
