<svg width="80" height="80" viewBox="0 0 80 80" fill="none" xmlns="http://www.w3.org/2000/svg">
<path d="M40 80C62.0914 80 80 62.0914 80 40C80 17.9086 62.0914 0 40 0C17.9086 0 0 17.9086 0 40C0 62.0914 17.9086 80 40 80Z" fill="#1DD1A1"/>
<path d="M39.9365 40.9324C41.0213 40.9324 41.9007 40.053 41.9007 38.9683C41.9007 37.8835 41.0213 37.0041 39.9365 37.0041C38.8518 37.0041 37.9724 37.8835 37.9724 38.9683C37.9724 40.053 38.8518 40.9324 39.9365 40.9324Z" fill="white"/>
<path fill-rule="evenodd" clip-rule="evenodd" d="M37.8566 36.0276C38.4254 35.4599 39.1963 35.1411 40 35.1411C40.8037 35.1411 41.5746 35.4599 42.1435 36.0276C42.4036 36.2788 42.752 36.4179 43.1137 36.4147C43.4753 36.4116 43.8213 36.2665 44.077 36.0108C44.3327 35.755 44.4778 35.4091 44.4809 35.0474C44.4841 34.6858 44.345 34.3374 44.0938 34.0772C43.0076 32.9924 41.5352 32.383 40 32.383C38.4648 32.383 36.9924 32.9924 35.9062 34.0772C35.7745 34.2045 35.6694 34.3567 35.5971 34.525C35.5248 34.6932 35.4868 34.8742 35.4852 35.0574C35.4836 35.2405 35.5185 35.4221 35.5878 35.5917C35.6572 35.7612 35.7596 35.9152 35.8891 36.0447C36.0186 36.1742 36.1726 36.2766 36.3421 36.346C36.5116 36.4153 36.6933 36.4502 36.8764 36.4486C37.0596 36.447 37.2406 36.409 37.4088 36.3367C37.5771 36.2644 37.7293 36.1593 37.8566 36.0276V36.0276Z" fill="white"/>
<path fill-rule="evenodd" clip-rule="evenodd" d="M34.7366 32.9076C36.1331 31.5128 38.0262 30.7293 40 30.7293C41.9738 30.7293 43.8669 31.5128 45.2634 32.9076C45.5236 33.1588 45.872 33.2979 46.2337 33.2947C46.5953 33.2916 46.9413 33.1465 47.197 32.8908C47.4527 32.635 47.5978 32.2891 47.6009 31.9274C47.6041 31.5658 47.465 31.2174 47.2138 30.9572C45.2999 29.0453 42.7053 27.9713 40 27.9713C37.2947 27.9713 34.7001 29.0453 32.7862 30.9572C32.535 31.2174 32.3959 31.5658 32.3991 31.9274C32.4022 32.2891 32.5473 32.635 32.803 32.8908C33.0587 33.1465 33.4047 33.2916 33.7663 33.2947C34.128 33.2979 34.4764 33.1588 34.7366 32.9076V32.9076Z" fill="white"/>
<path fill-rule="evenodd" clip-rule="evenodd" d="M31.6193 29.7931C33.8433 27.5728 36.8574 26.3258 40 26.3258C43.1426 26.3258 46.1567 27.5728 48.3807 29.7931C48.5079 29.9248 48.6601 30.0299 48.8284 30.1022C48.9967 30.1745 49.1777 30.2125 49.3608 30.2141C49.544 30.2157 49.7256 30.1808 49.8951 30.1115C50.0646 30.0421 50.2186 29.9397 50.3481 29.8102C50.4776 29.6807 50.5801 29.5267 50.6494 29.3572C50.7188 29.1877 50.7537 29.006 50.7521 28.8229C50.7505 28.6398 50.7124 28.4588 50.6401 28.2905C50.5679 28.1222 50.4628 27.97 50.331 27.8428C47.5897 25.1053 43.8741 23.5678 40 23.5678C36.126 23.5678 32.4103 25.1053 29.669 27.8428C29.4177 28.1029 29.2787 28.4513 29.2818 28.813C29.285 29.1746 29.43 29.5206 29.6858 29.7763C29.9415 30.032 30.2875 30.1771 30.6491 30.1802C31.0108 30.1834 31.3592 30.0444 31.6193 29.7931V29.7931Z" fill="white"/>
<path fill-rule="evenodd" clip-rule="evenodd" d="M44.8276 49.3103V63.4483H35.1724V49.3103C35.1724 48.8531 35.3541 48.4145 35.6774 48.0912C36.0007 47.7679 36.4393 47.5862 36.8966 47.5862H43.1035C43.5607 47.5862 43.9993 47.7679 44.3226 48.0912C44.6459 48.4145 44.8276 48.8531 44.8276 49.3103ZM47.5862 63.4483H55.5173C55.7433 63.4476 55.9669 63.4022 56.1752 63.3146C56.3836 63.227 56.5725 63.099 56.731 62.9379C57.0588 62.6058 57.2422 62.1577 57.2414 61.691V40.9324C57.241 39.7397 57.7109 38.5949 58.549 37.7462C58.9637 37.3252 59.4579 36.9908 60.003 36.7625C60.5481 36.5343 61.1332 36.4167 61.7241 36.4166C61.9527 36.4144 62.1787 36.3672 62.389 36.2777C62.5994 36.1883 62.7901 36.0582 62.9502 35.895C63.1103 35.7319 63.2367 35.5387 63.3221 35.3267C63.4076 35.1147 63.4505 34.8879 63.4483 34.6593V31.8262C63.4494 31.5263 63.374 31.2311 63.2291 30.9685C63.0843 30.7059 62.8749 30.4846 62.6207 30.3255L40.8966 16.8083C40.6276 16.6405 40.317 16.5515 40 16.5515C39.683 16.5515 39.3724 16.6405 39.1035 16.8083L17.3793 30.3255C17.1253 30.4848 16.916 30.7062 16.7712 30.9687C16.6264 31.2313 16.5509 31.5264 16.5517 31.8262V34.6593C16.5495 34.8879 16.5924 35.1147 16.6779 35.3267C16.7633 35.5387 16.8897 35.7319 17.0498 35.895C17.2099 36.0582 17.4006 36.1883 17.611 36.2777C17.8213 36.3672 18.0473 36.4144 18.2759 36.4166C18.8668 36.4167 19.4519 36.5343 19.997 36.7625C20.5421 36.9908 21.0363 37.3252 21.451 37.7462C22.2892 38.5949 22.759 39.7397 22.7586 40.9324V61.691C22.7578 62.1577 22.9412 62.6058 23.269 62.9379C23.4275 63.099 23.6165 63.227 23.8248 63.3146C24.0331 63.4022 24.2568 63.4476 24.4828 63.4483H32.4138V49.3103C32.4138 48.1214 32.8861 46.9812 33.7268 46.1406C34.5675 45.2999 35.7077 44.8276 36.8966 44.8276H43.1035C44.2924 44.8276 45.4326 45.2999 46.2732 46.1406C47.1139 46.9812 47.5862 48.1214 47.5862 49.3103V63.4483ZM18.2759 39.1724C18.5019 39.1731 18.7255 39.2185 18.9338 39.3061C19.1422 39.3937 19.3311 39.5217 19.4897 39.6828C19.8174 40.0149 20.0008 40.463 20 40.9297V61.6883C19.9997 62.881 20.4695 64.0258 21.3076 64.8745C21.7223 65.2955 22.2166 65.6299 22.7617 65.8582C23.3068 66.0864 23.8918 66.204 24.4828 66.2041H55.5173C56.1082 66.204 56.6933 66.0864 57.2384 65.8582C57.7835 65.6299 58.2777 65.2955 58.6924 64.8745C59.5305 64.0258 60.0004 62.881 60 61.6883V40.9324C59.9992 40.4658 60.1826 40.0177 60.5104 39.6855C60.6689 39.5245 60.8578 39.3965 61.0662 39.3089C61.2745 39.2213 61.4981 39.1758 61.7241 39.1752C62.315 39.173 62.8997 39.0545 63.4447 38.8264C63.9898 38.5982 64.4845 38.265 64.9008 37.8457C65.3171 37.4263 65.6467 36.9291 65.8708 36.3824C66.0949 35.8357 66.2091 35.2502 66.2069 34.6593V31.8262C66.2074 31.0579 66.0124 30.302 65.6404 29.6298C65.2683 28.9576 64.7313 28.391 64.08 27.9835L42.3559 14.4662C41.6491 14.0255 40.8329 13.7919 40 13.7919C39.1671 13.7919 38.3509 14.0255 37.6441 14.4662L15.92 27.9835C15.2687 28.391 14.7317 28.9576 14.3597 29.6298C13.9876 30.302 13.7926 31.0579 13.7931 31.8262V34.6593C13.7894 35.8521 14.2596 36.9976 15.1002 37.8439C15.9408 38.6902 17.0831 39.168 18.2759 39.1724V39.1724Z" fill="white"/>
</svg>
