<svg width="80" height="81" viewBox="0 0 80 81" fill="none" xmlns="http://www.w3.org/2000/svg">
<path d="M13.793 24.447H68.965C72.0119 24.447 74.4822 26.9167 74.4822 29.9642V69.9639C74.4822 73.0108 72.0119 75.4811 68.965 75.4811H13.793C10.7462 75.4811 8.2758 73.0108 8.2758 69.9639V29.9642C8.2758 26.9167 10.7462 24.447 13.793 24.447V24.447Z" fill="#2A71AD"/>
<path d="M13.793 29.9642H68.965V69.9639H13.793V29.9642Z" fill="#348FD9"/>
<path d="M23.4481 69.9639H68.965V29.9642H63.4478L23.4481 69.9639Z" fill="#3086CD"/>
<path d="M57.9306 46.5158H24.8274V40.9986L41.379 35.4814L57.9306 40.9986V46.5158Z" fill="#FFB531"/>
<path d="M39.9997 39.6193H42.7583V42.3779H39.9997V39.6193Z" fill="#E8770C"/>
<path d="M24.8274 58.9295H57.9306V64.4467H24.8274V58.9295Z" fill="#FFB531"/>
<path d="M27.586 46.5158H33.1032V58.9295H27.586V46.5158Z" fill="#FFA912"/>
<path d="M38.6204 46.5158H44.1376V58.9295H38.6204V46.5158Z" fill="#FFA912"/>
<path d="M49.6548 46.5158H55.172V58.9295H49.6548V46.5158Z" fill="#FFA912"/>
<path d="M27.586 46.5158H33.1032V50.6537H27.586V46.5158Z" fill="#E8770C"/>
<path d="M38.6204 46.5158H44.1376V50.6537H38.6204V46.5158Z" fill="#E8770C"/>
<path d="M49.6548 46.5158H55.172V50.6537H49.6548V46.5158Z" fill="#E8770C"/>
<path d="M38.6204 20.3091C38.6204 30.9738 29.9749 39.6193 19.3102 39.6193C8.64555 39.6193 0 30.9738 0 20.3091C0 9.64376 8.64555 0.998886 19.3102 0.998886C29.9749 0.998886 38.6204 9.64376 38.6204 20.3091Z" fill="#4DB7E5"/>
<path d="M34.0124 7.80784C28.7969 23.0024 15.8054 30.8532 6.42641 34.6618C13.9796 41.4472 25.5002 41.2168 32.7759 34.1338C40.0516 27.0514 40.5924 15.5415 34.0124 7.80784Z" fill="#48ADD9"/>
<path d="M77.7042 63.1045C76.9028 62.9677 76.0818 63.1913 75.4608 63.716C74.8399 64.2406 74.4816 65.0125 74.4823 65.826C74.4823 64.3019 73.2471 63.0674 71.7237 63.0674C70.2002 63.0674 68.9651 64.3019 68.9651 65.826C68.9651 64.3019 67.7299 63.0674 66.2064 63.0674C64.683 63.0674 63.4478 64.3019 63.4478 65.826V54.9391C63.4788 53.5531 62.5117 52.3442 61.1526 52.0701C60.3512 51.9333 59.5302 52.1569 58.9092 52.6816C58.2883 53.2062 57.93 53.978 57.9306 54.7916V74.1018L52.1804 70.6536C51.4658 70.2232 50.5809 70.1889 49.8353 70.562L49.6191 70.6711C48.8554 71.053 48.3476 71.8073 48.2803 72.6585C48.2136 73.5105 48.5975 74.3342 49.2918 74.8312L57.9306 80.9983H79.9995V65.9735C80.0304 64.5875 79.0633 63.3786 77.7042 63.1045V63.1045Z" fill="#FEC9A3"/>
<path d="M77.2408 13.4126L75.6245 14.0591C72.1917 15.4317 68.4134 15.6883 64.8271 14.7919C61.2408 13.8948 57.4626 14.1514 54.0298 15.524L52.4134 16.1712V3.75749L54.0298 3.11027C57.4626 1.7377 61.2408 1.4811 64.8271 2.37819C68.4134 3.2746 72.1917 3.018 75.6245 1.64543L77.2408 0.998886V13.4126Z" fill="#7EB457"/>
<path d="M39.9997 9.27469H42.7583V12.0333H39.9997V9.27469Z" fill="#4DB7E5"/>
<path d="M45.5169 9.27469H48.2755V12.0333H45.5169V9.27469Z" fill="#4DB7E5"/>
<path d="M59.3099 17.5505H62.0685V20.3091H59.3099V17.5505Z" fill="#4DB7E5"/>
<path d="M28.9209 21.6884H38.5517C38.5834 21.2304 38.6204 20.7752 38.6204 20.3091C38.6204 19.8424 38.5834 19.3871 38.5517 18.9298H28.9182C28.8387 16.6096 28.5511 14.3016 28.0588 12.0333H36.7374C36.2841 11.0709 35.7507 10.1482 35.1446 9.27469H27.3388C26.5354 6.59624 25.4221 4.0215 24.0219 1.60099C22.8211 1.30061 21.5933 1.1154 20.3568 1.0494L20.9091 1.74915C22.4157 4.09289 23.6118 6.6225 24.4671 9.27469H14.1654C15.0302 6.59018 16.2398 4.02958 17.7639 1.65621L18.0865 1.06085C16.9052 1.13628 15.7327 1.32149 14.585 1.61244C13.1801 4.02688 12.0648 6.59826 11.2634 9.27469H3.47587C2.86973 10.1482 2.33633 11.0709 1.88307 12.0333H10.5448C10.0531 14.3016 9.76758 16.6096 9.6908 18.9298H0.0686957C0.0370418 19.3871 0 19.8424 0 20.3091C0 20.7752 0.0370418 21.2304 0.0686957 21.6884H9.6908C9.76825 24.0079 10.0545 26.3159 10.5461 28.5849H1.88307C2.33633 29.5466 2.86973 30.4693 3.47587 31.3435H11.2647C12.0669 34.0213 13.1815 36.5954 14.5864 39.0118C15.7252 39.2994 16.889 39.4819 18.0622 39.5553L17.7861 39.0037C17.7625 38.9586 17.7363 38.9128 17.7087 38.8657C16.2034 36.5226 15.008 33.9937 14.1533 31.3435H24.4691C23.6286 33.9492 22.4594 36.4371 20.9899 38.7471L20.1628 39.5749C21.4701 39.519 22.7679 39.3297 24.0367 39.0105C25.4416 36.5947 26.5556 34.0206 27.3557 31.3435H35.1446C35.7507 30.4693 36.2841 29.5466 36.7374 28.5849H28.0729C28.5626 26.3159 28.8461 24.0079 28.9209 21.6884ZM13.3862 12.0333H25.2483C25.7851 14.2955 26.0996 16.6056 26.1858 18.9298H12.444C12.5322 16.6056 12.8481 14.2955 13.3862 12.0333ZM25.2483 28.5849H13.3795C12.8441 26.322 12.5316 24.0119 12.4454 21.6884H26.1899C26.099 24.0126 25.7811 26.322 25.2409 28.5849H25.2483Z" fill="#79C6E8"/>
<path d="M75.6245 1.64543C73.3602 2.54925 70.9323 2.9722 68.4963 2.88667L60.7337 14.2672C62.1137 14.2814 63.4876 14.4572 64.8271 14.7919C68.4135 15.6876 72.1917 15.4317 75.6245 14.0591L77.2408 13.4126V0.998886L75.6245 1.64543Z" fill="#69A340"/>
</svg>
