<svg width="72" height="72" viewBox="0 0 72 72" fill="none" xmlns="http://www.w3.org/2000/svg">
<g clip-path="url(#clip0_77_130)">
<path d="M36 0C16.1177 0 0 16.1177 0 36C0 55.8823 16.1177 72 36 72C55.8823 72 72 55.8823 72 36C72 16.1177 55.8823 0 36 0Z" fill="#8300FF"/>
<path d="M36 0C34.8435 0 33.7005 0.0568125 32.572 0.163406C50.8459 1.89 65.144 17.2742 65.144 36C65.144 54.7258 50.8459 70.11 32.572 71.8366C33.7005 71.9432 34.8435 72 36 72C55.8823 72 72 55.8823 72 36C72 16.1177 55.8823 0 36 0V0Z" fill="#6900CC"/>
<path d="M36 6.24192C19.5651 6.24192 6.24191 19.5652 6.24191 36C6.24191 52.4348 19.5651 65.7581 36 65.7581C52.4348 65.7581 65.7581 52.4348 65.7581 36C65.7581 19.5652 52.4348 6.24192 36 6.24192Z" fill="#50009C"/>
<path d="M28.9503 43.1142C27.855 42.0189 27.855 40.2431 28.9503 39.1479L42.2294 25.8688C46.7016 21.3965 51.5398 17.2236 56.6249 13.4518C57.1918 13.0313 57.9801 13.0866 58.4792 13.5855C58.9781 14.0844 59.0334 14.8729 58.6129 15.4398C54.841 20.5249 50.668 25.363 46.1957 29.8353L32.9167 43.1144C31.8213 44.2094 30.0455 44.2094 28.9503 43.1142Z" fill="#29D0DF"/>
<path d="M59.2737 36C59.2737 36.0243 59.2729 36.0484 59.2727 36.0726H65.7571C65.7572 36.0482 65.7581 36.0242 65.7581 36C65.7581 28.3468 62.8679 21.3692 58.1209 16.0966C56.8001 17.8535 55.432 19.5801 54.02 21.2712C57.3031 25.2834 59.2737 30.4113 59.2737 36Z" fill="#FD7E42"/>
<path d="M50.8008 18.0381C52.491 16.6272 54.2164 15.2601 55.9723 13.9403C50.6918 9.15651 43.6864 6.24192 36 6.24192V12.7263C41.6219 12.7263 46.7782 14.7196 50.8008 18.0381Z" fill="#F9C301"/>
<path d="M36 12.7263V6.24192C27.764 6.24192 20.31 9.58809 14.922 14.9946L19.5071 19.5796C23.7217 15.3467 29.5547 12.7263 36 12.7263Z" fill="#FCE25C"/>
<path d="M12.7263 36C12.7263 29.5916 15.3167 23.7885 19.5071 19.5798L14.922 14.9947C9.55813 20.3768 6.24191 27.801 6.24191 36C6.24191 36.0243 6.24276 36.0484 6.2429 36.0726H12.7273C12.7271 36.0484 12.7263 36.0243 12.7263 36Z" fill="#7FD061"/>
<path d="M36 40.8908C38.6655 40.8908 40.8264 38.7299 40.8264 36.0644C40.8264 33.3989 38.6655 31.238 36 31.238C33.3345 31.238 31.1736 33.3989 31.1736 36.0644C31.1736 38.7299 33.3345 40.8908 36 40.8908Z" fill="#FBD307"/>
<path d="M42.856 59.7566H29.144C28.5439 59.7566 28.0575 59.2702 28.0575 58.6701C28.0575 58.0701 28.5439 57.5837 29.144 57.5837H42.856C43.4562 57.5837 43.9425 58.0701 43.9425 58.6701C43.9425 59.2702 43.4561 59.7566 42.856 59.7566Z" fill="#FCB143"/>
<path d="M42.856 54.397H29.144C28.5439 54.397 28.0575 53.9106 28.0575 53.3105C28.0575 52.7105 28.5439 52.224 29.144 52.224H42.856C43.4562 52.224 43.9425 52.7105 43.9425 53.3105C43.9425 53.9106 43.4561 54.397 42.856 54.397Z" fill="#FCB143"/>
<path d="M65.7571 36.0726H59.2727C59.2552 41.8236 57.1516 47.0835 53.6791 51.1359C52.9927 51.9369 53.0301 53.128 53.776 53.874L56.9925 57.0905C62.3903 51.7174 65.7374 44.2861 65.7571 36.0726Z" fill="#FC5327"/>
<path d="M12.7273 36.0726H6.24292C6.26261 44.2859 9.60976 51.7172 15.0075 57.0904L18.224 53.8739C18.9699 53.128 19.0075 51.9369 18.3209 51.1358C14.8485 47.0836 12.7449 41.8237 12.7273 36.0726Z" fill="#93D87B"/>
</g>
<defs>
<clipPath id="clip0_77_130">
<rect width="72" height="72" fill="white"/>
</clipPath>
</defs>
</svg>
