<svg width="72" height="58" viewBox="0 0 72 58" fill="none" xmlns="http://www.w3.org/2000/svg">
<path d="M65.88 20.36C49.32 3.8 22.68 3.8 6.12 20.36C4.68 21.8 2.52 21.8 1.08 20.36C-0.36 18.92 -0.36 16.76 1.08 15.32C20.52 -4.12 51.84 -4.12 70.92 15.32C72.36 16.76 72.36 18.92 70.92 20.36C69.48 21.8 67.32 21.8 65.88 20.36Z" fill="#8300FF"/>
<path d="M55.44 30.44C44.64 20 27.36 20 16.92 30.44C15.48 31.88 13.32 31.88 11.88 30.44C10.44 29 10.44 26.84 11.88 25.4C25.2 11.72 47.16 11.72 60.48 25.4C61.92 26.84 61.92 29 60.48 30.44C59.04 31.88 56.88 31.88 55.44 30.44Z" fill="#8300FF"/>
<path d="M45.36 41.24C40.32 36.2 32.4 36.2 27.72 41.24C26.28 42.68 24.12 42.68 22.68 41.24C21.24 39.8 21.24 37.28 22.68 35.84C30.24 27.56 42.84 27.56 50.4 35.84C51.84 37.28 51.84 39.8 50.4 41.24C48.96 42.68 46.8 42.68 45.36 41.24Z" fill="#8300FF"/>
<path d="M36.36 57.44C40.1376 57.44 43.2 54.3776 43.2 50.6C43.2 46.8224 40.1376 43.76 36.36 43.76C32.5824 43.76 29.52 46.8224 29.52 50.6C29.52 54.3776 32.5824 57.44 36.36 57.44Z" fill="#8300FF"/>
</svg>
