<svg width="72" height="72" viewBox="0 0 72 72" fill="none" xmlns="http://www.w3.org/2000/svg">
<g clip-path="url(#clip0_77_155)">
<path d="M36 72C55.8823 72 72 55.8823 72 36C72 16.1177 55.8823 0 36 0C16.1177 0 0 16.1177 0 36C0 55.8823 16.1177 72 36 72Z" fill="#6601C5"/>
<path d="M71.9286 38.2853L38.1094 4.46597L31.4976 15.7134L18.7739 61.9172L27.9541 71.0975C30.5411 71.688 33.2341 72 36 72C55.1146 72 70.7499 57.1027 71.9286 38.2853Z" fill="#510699"/>
<path d="M36 7.85616L18.7737 23.2498V61.9172H53.2261V23.2498L36 7.85616ZM36 20.257C34.1106 20.257 32.5789 18.7252 32.5789 16.8358C32.5789 14.9465 34.1106 13.4146 36 13.4146C37.8894 13.4146 39.4211 14.9465 39.4211 16.8358C39.4211 18.7252 37.8894 20.257 36 20.257Z" fill="#8300FF"/>
<path d="M53.2263 23.2498L36.002 7.85799V13.4146C37.8906 13.4158 39.4211 14.947 39.4211 16.8358C39.4211 18.7246 37.8904 20.2559 36.002 20.2569V61.9172H53.2261V23.2498H53.2263Z" fill="#6E02D5"/>
<path d="M24.3849 44.9484V38.2902H28.1582C29.4759 38.2902 30.1047 39.1489 30.1047 39.9871C30.1047 40.8157 29.5957 41.3747 28.9668 41.5145C29.6755 41.6242 30.2345 42.3031 30.2345 43.1415C30.2345 44.1097 29.5857 44.9483 28.278 44.9483H24.3849V44.9484ZM28.3579 40.2868C28.3579 39.9673 28.1183 39.7378 27.7689 39.7378H26.1018V40.8458H27.7689C28.1184 40.8457 28.3579 40.6162 28.3579 40.2868ZM28.4877 42.902C28.4877 42.5725 28.2481 42.3031 27.8289 42.3031H26.102V43.5008H27.8289C28.2381 43.5009 28.4877 43.2615 28.4877 42.902Z" fill="white"/>
<path d="M31.0053 44.9484V38.2902H35.8865V39.7877H32.7222V40.8258H35.8166V42.3232H32.7222V43.4512H35.8865V44.9484H31.0053Z" fill="white"/>
<path d="M36.574 44.01L37.4825 42.7224C37.9616 43.2015 38.7003 43.6008 39.6086 43.6008C40.1977 43.6008 40.557 43.3711 40.557 43.0518C40.557 42.1435 36.7837 42.8722 36.7837 40.3068C36.7837 39.1888 37.7319 38.1907 39.439 38.1907C40.507 38.1907 41.4353 38.51 42.1441 39.1189L41.2057 40.3469C40.6467 39.8876 39.9181 39.6582 39.2591 39.6582C38.7601 39.6582 38.5405 39.8578 38.5405 40.1373C38.5405 40.9857 42.3038 40.3668 42.3038 42.8424C42.3038 44.18 41.3156 45.0683 39.5288 45.0683C38.1812 45.0682 37.2428 44.6489 36.574 44.01Z" fill="#E9EDF5"/>
<path d="M44.4205 44.9484V39.7877H42.5538V38.2902H47.9942V39.7877H46.1375V44.9484H44.4205Z" fill="#E9EDF5"/>
<path d="M22.2387 56.9278V50.2696H25.5728C27.07 50.2696 27.8886 51.2779 27.8886 52.4857C27.8886 53.6837 27.07 54.6919 25.5728 54.6919H23.9558V56.9278H22.2387ZM26.1418 52.4859C26.1418 52.0266 25.8023 51.7673 25.3432 51.7673H23.9556V53.1946H25.3432C25.8023 53.1946 26.1418 52.935 26.1418 52.4859Z" fill="white"/>
<path d="M32.371 56.9278L31.2531 54.6919H30.3746V56.9278H28.6577V50.2696H31.9916C33.4689 50.2696 34.3074 51.248 34.3074 52.4857C34.3074 53.6437 33.5987 54.2625 32.9798 54.4822L34.3374 56.9278H32.371ZM32.5607 52.4758C32.5607 52.0266 32.1815 51.7672 31.7322 51.7672H30.3746V53.1945H31.7322C32.1813 53.1946 32.5607 52.945 32.5607 52.4758Z" fill="white"/>
<path d="M35.2564 56.9278V50.2696H36.9733V56.9278H35.2564Z" fill="white"/>
<path d="M36.002 50.2698H36.9733V56.9279H36.002V50.2698Z" fill="#E9EDF5"/>
<path d="M37.8318 53.6039C37.8318 51.5475 39.3889 50.1601 41.4353 50.1601C43.0425 50.1601 43.9009 51.0684 44.3401 51.9469L42.8626 52.6456C42.643 52.1166 42.0742 51.6773 41.4353 51.6773C40.3473 51.6773 39.5786 52.5158 39.5786 53.6039C39.5786 54.6919 40.3473 55.5304 41.4353 55.5304C42.0742 55.5304 42.6431 55.0913 42.8626 54.5621L44.3401 55.2608C43.9109 56.1192 43.0425 57.0476 41.4353 57.0476C39.3891 57.0476 37.8318 55.6502 37.8318 53.6039Z" fill="#E9EDF5"/>
<path d="M45.0793 56.9278V50.2696H49.9605V51.7672H46.7963V52.8052H49.8908V54.3026H46.7963V55.4306H49.9605V56.9278H45.0793Z" fill="#E9EDF5"/>
<path d="M35.3219 33.3319C33.9268 33.2003 32.9133 32.7001 32.1629 31.9762L33.3607 30.2782C33.9926 30.9099 34.9665 31.4364 36.1644 31.4364C36.9409 31.4364 37.4148 31.1338 37.4148 30.7126C37.4148 29.5148 32.4395 30.4755 32.4395 27.0931C32.4395 25.7636 33.453 24.5659 35.322 24.3422V23.105H36.783V24.3554C37.836 24.5001 38.7574 24.8951 39.5076 25.5268L38.2704 27.1458C37.5334 26.5403 36.5725 26.2377 35.7037 26.2377C35.0456 26.2377 34.756 26.5009 34.756 26.8694C34.756 27.9882 39.7183 27.1721 39.7183 30.4363C39.7183 32.0158 38.6783 33.1214 36.783 33.3321V34.5298H35.322V33.3319H35.3219Z" fill="#D5BCED"/>
<path d="M38.2703 27.1457L39.5075 25.5267C38.7572 24.895 37.8359 24.5 36.7829 24.3553V23.1048H36.0021V26.2503C36.7872 26.3112 37.6166 26.6088 38.2703 27.1457Z" fill="#FBF6FF"/>
<path d="M36.002 27.5565V29.9673C36.7992 30.1373 37.4145 30.2918 37.4145 30.7128C37.4145 31.134 36.9408 31.4366 36.1641 31.4366C36.1094 31.4366 36.0557 31.4342 36.0018 31.4322V34.5296H36.7826V33.3319C38.6781 33.1213 39.7178 32.0157 39.7178 30.4362C39.7181 28.2396 37.4719 27.8907 36.002 27.5565Z" fill="#FBF6FF"/>
<path d="M33.8906 4.46597H38.1094V17.0191H33.8906V4.46597Z" fill="#D5BCED"/>
<path d="M36.002 4.46597H38.1094V17.0191H36.002V4.46597Z" fill="#FBF6FF"/>
</g>
<defs>
<clipPath id="clip0_77_155">
<rect width="72" height="72" fill="white"/>
</clipPath>
</defs>
</svg>
