<svg width="72" height="72" viewBox="0 0 72 72" fill="none" xmlns="http://www.w3.org/2000/svg">
<g clip-path="url(#clip0_77_222)">
<path d="M35.9999 71.9999C55.8821 71.9999 71.9999 55.8821 71.9999 35.9999C71.9999 16.1177 55.8821 0 35.9999 0C16.1177 0 0 16.1177 0 35.9999C0 55.8821 16.1177 71.9999 35.9999 71.9999Z" fill="#6900CC"/>
<path d="M46.1044 11.2148L17.4093 34.4027L51.5045 68.4979C63.3164 62.8524 71.5684 50.9573 71.9819 37.0923L46.1044 11.2148Z" fill="#8300FF"/>
<path d="M54.4908 49.5429L42.7575 48.042C41.3171 47.8578 40.2379 46.6319 40.2379 45.1798V39.8578H31.7618V45.1798C31.7618 46.6319 30.6826 47.8578 29.2422 48.042L17.5089 49.5429C13.9172 50.0023 11.2265 53.0592 11.2265 56.6801V62.1191C17.6805 68.2425 26.4012 71.9999 35.9999 71.9999C45.5987 71.9999 54.3194 68.2425 60.7732 62.1191V56.6801C60.7732 53.0592 58.0827 50.0023 54.4908 49.5429Z" fill="#FFC776"/>
<path d="M54.4908 49.5429L42.7575 48.042C41.3171 47.8578 40.2379 46.6319 40.2379 45.1798V39.8578H35.9932V71.9999C35.9954 71.9999 35.9977 72 35.9999 72C45.5987 72 54.3194 68.2426 60.7732 62.1193V56.6802C60.7732 53.0592 58.0826 50.0023 54.4908 49.5429Z" fill="#FFBB61"/>
<path d="M42.9133 42.0659L40.9217 43.1383C37.8612 44.7862 34.1777 44.7862 31.1173 43.1383L29.1256 42.0659C25.4477 40.0855 23.1541 36.2456 23.1541 32.0683V19.7835H48.8847V32.0683C48.8848 36.2456 46.5912 40.0855 42.9133 42.0659Z" fill="#FED080"/>
<path d="M48.8847 19.7835H35.9932V44.3739C37.6878 44.3782 39.3835 43.9666 40.9216 43.1383L42.9133 42.0659C46.5912 40.0855 48.8848 36.2456 48.8848 32.0683L48.8847 19.7835Z" fill="#FFC776"/>
<path d="M54.4908 49.5429L44.5605 48.2727C42.4194 50.5566 39.3773 51.9854 35.9999 51.9854C32.6225 51.9854 29.5803 50.5566 27.4394 48.2727L17.509 49.5429C13.9173 50.0024 11.2266 53.0593 11.2266 56.6801V62.1191C17.6805 68.2425 26.4012 71.9999 35.9999 71.9999C45.5987 71.9999 54.3194 68.2425 60.7732 62.1191V56.6801C60.7732 53.0593 58.0826 50.0024 54.4908 49.5429Z" fill="#283592"/>
<path d="M35.9999 71.9999C45.5987 71.9999 54.3194 68.2425 60.7732 62.1191V56.6801C60.7732 53.0591 58.0825 50.0024 54.4908 49.5429L44.5605 48.2727C42.4195 50.5566 39.3773 51.9854 35.9999 51.9854V71.9999Z" fill="#1A237E"/>
<path d="M35.389 51.9693C32.2566 51.8084 29.4505 50.4179 27.4394 48.2725L23.154 48.8207L29.9397 57.5775L35.9999 51.9883C35.7947 51.9883 35.5911 51.9817 35.389 51.9693Z" fill="#BD78FF"/>
<path d="M35.9999 51.9883L42.0602 57.5777L48.8459 48.8208L44.5605 48.2727C42.5494 50.4179 39.7431 51.8084 36.6108 51.9694C36.4089 51.9817 36.2053 51.9883 35.9999 51.9883Z" fill="#283592"/>
<path d="M50.6601 23.5898C50.6601 15.4932 44.0966 8.92967 35.9999 8.92967C27.9033 8.92967 21.3398 15.4932 21.3398 23.5898C21.3398 23.7113 21.3398 34.4026 21.3398 34.4026H23.9639V27.2197C27.0181 23.7102 31.2443 21.4453 35.9999 21.4453C40.7556 21.4453 44.9818 23.7102 48.036 27.2197V34.4026H50.6601C50.6601 34.4026 50.6601 23.7113 50.6601 23.5898Z" fill="#FEC007"/>
<path d="M51.5509 31.773H48.5345V23.0256C48.5345 16.114 42.9115 10.491 35.9999 10.491C29.0884 10.491 23.4653 16.114 23.4653 23.0256V31.773H20.4489V23.0256C20.4489 14.4509 27.4251 7.47462 35.9999 7.47462C44.5748 7.47462 51.5509 14.4507 51.5509 23.0256V31.773Z" fill="#37474F"/>
<path d="M35.9999 7.47462C35.9977 7.47462 35.9954 7.47477 35.9932 7.47477V10.491C35.9954 10.491 35.9977 10.491 35.9999 10.491C42.9115 10.491 48.5345 16.114 48.5345 23.0256V31.773H51.5508V23.0256C51.5509 14.4507 44.5748 7.47462 35.9999 7.47462Z" fill="#263238"/>
<path d="M42.8036 41.203H34.2238V38.1866H42.8036C45.8898 38.1866 48.4007 35.6759 48.4007 32.5896H51.417C51.4169 37.3391 47.5528 41.203 42.8036 41.203Z" fill="#263238"/>
<path d="M23.5705 35.4597H20.2725C17.8367 35.4597 15.8622 33.4851 15.8622 31.0494V25.9225C15.8622 23.4867 17.8367 21.5122 20.2725 21.5122H23.5707V35.4597H23.5705Z" fill="#BD78FF"/>
<path d="M51.7275 35.4596H48.4293V21.5123H51.7275C54.1633 21.5123 56.1378 23.4869 56.1378 25.9226V31.0495C56.1378 33.4851 54.1633 35.4596 51.7275 35.4596Z" fill="#BD78FF"/>
<path d="M35.1956 42.9123H31.643C29.8846 42.9123 28.4591 41.4868 28.4591 39.7285C28.4591 37.9701 29.8846 36.5446 31.643 36.5446H35.1956C36.9539 36.5446 38.3794 37.9701 38.3794 39.7285C38.3794 41.4868 36.9541 42.9123 35.1956 42.9123Z" fill="#DC2C00"/>
<path d="M35.9932 36.6453V42.8115C37.3655 42.4574 38.3794 41.2114 38.3794 39.7283C38.3794 38.2454 37.3657 36.9994 35.9932 36.6453Z" fill="#B21F02"/>
</g>
<defs>
<clipPath id="clip0_77_222">
<rect width="72" height="72" fill="white"/>
</clipPath>
</defs>
</svg>
