<svg width="44" height="44" viewBox="0 0 44 44" fill="none" xmlns="http://www.w3.org/2000/svg">
<g clip-path="url(#clip0_0_3)">
<path d="M22 0C9.8499 0 0 9.8499 0 22C0 26.4713 1.33745 30.6293 3.62923 34.1015L0 44L10.2376 40.5878C13.64 42.7452 17.6721 44 22 44C34.1501 44 44 34.1501 44 22C44 9.8499 34.1501 0 22 0Z" fill="#25AE88"/>
<path d="M34.1372 28.7958V32.45C34.1425 33.7958 33.0539 34.8905 31.7059 34.8966C31.6292 34.8966 31.5526 34.8936 31.476 34.8867C27.7201 34.4793 24.1121 33.1988 20.9425 31.1467C17.9938 29.2767 15.4933 26.7808 13.6188 23.8373C11.5561 20.6595 10.2725 17.0409 9.87199 13.2758C9.75064 11.936 10.7406 10.7511 12.0833 10.6297C12.1561 10.6244 12.2282 10.6206 12.3011 10.6206H15.963C17.1882 10.6085 18.2328 11.5051 18.4042 12.7159C18.559 13.8857 18.8458 15.0335 19.2584 16.1388C19.5938 17.0295 19.3791 18.033 18.7092 18.709L17.1593 20.2558C18.8965 23.3055 21.4273 25.8309 24.483 27.5651L26.0329 26.0184C26.7103 25.3492 27.7162 25.1353 28.6084 25.4699C29.716 25.8826 30.8661 26.1686 32.0382 26.3226C33.2656 26.4956 34.1682 27.5592 34.1372 28.7958Z" fill="white"/>
</g>
<defs>
<clipPath id="clip0_0_3">
<rect width="44" height="44" fill="white"/>
</clipPath>
</defs>
</svg>
