<svg width="44" height="44" viewBox="0 0 44 44" fill="none" xmlns="http://www.w3.org/2000/svg">
<g clip-path="url(#clip0_1_10)">
<path d="M38 0H6C2.68629 0 0 2.68629 0 6V38C0 41.3137 2.68629 44 6 44H38C41.3137 44 44 41.3137 44 38V6C44 2.68629 41.3137 0 38 0Z" fill="#0084FF"/>
<path d="M35.75 20.9825C35.75 28.015 29.5925 33.715 22 33.715C20.667 33.7159 19.34 33.5368 18.055 33.1825L13.3725 35.75V30.895C10.25 28.5625 8.25 25 8.25 20.9825C8.25 13.95 14.4075 8.25 22 8.25C29.5925 8.25 35.75 13.9525 35.75 20.9825V20.9825Z" fill="white"/>
<path d="M30.8825 17.4175L23.365 25.3925L19.865 21.66L13.0325 25.395L20.55 17.4175L24.1375 21.15L30.8825 17.4175Z" fill="#2196F3"/>
</g>
<defs>
<clipPath id="clip0_1_10">
<rect width="44" height="44" fill="white"/>
</clipPath>
</defs>
</svg>
