<svg width="45" height="45" viewBox="0 0 45 45" fill="none" xmlns="http://www.w3.org/2000/svg">
<g clip-path="url(#clip0_1_18)">
<path d="M38.8636 0H6.13636C2.74734 0 0 2.74734 0 6.13636V38.8636C0 42.2527 2.74734 45 6.13636 45H38.8636C42.2527 45 45 42.2527 45 38.8636V6.13636C45 2.74734 42.2527 0 38.8636 0Z" fill="#1C8ADB"/>
<path d="M34.7574 11.6335L34.292 11.8022L9.0358 20.902C8.85682 20.9573 8.70126 21.0705 8.59351 21.2237C8.48576 21.377 8.4319 21.5617 8.44038 21.7488C8.44886 21.936 8.5192 22.115 8.64037 22.2579C8.76154 22.4008 8.9267 22.4994 9.10995 22.5383L15.6477 24.3281L16.8673 27.9076L18.0869 31.4872C18.157 31.6627 18.2688 31.8184 18.4127 31.9408C18.5566 32.0633 18.7282 32.1487 18.9127 32.1898C19.0971 32.2309 19.2888 32.2263 19.471 32.1765C19.6533 32.1267 19.8206 32.0331 19.9585 31.904L23.3361 28.713L29.9685 33.2105C30.779 33.7628 31.9347 33.3537 32.1418 32.4434L36.5344 13.0346C36.7492 12.0733 35.7367 11.2832 34.7574 11.6335V11.6335ZM31.5332 15.9417L20.1222 25.269L19.5852 25.7088C19.4673 25.8023 19.3903 25.938 19.3705 26.0872L19.2503 27.0792L18.9205 29.8662C18.9232 29.9001 18.9123 29.9337 18.8902 29.9596C18.8682 29.9855 18.8368 30.0015 18.8028 30.0042C18.7689 30.0069 18.7353 29.9961 18.7095 29.974C18.6836 29.952 18.6675 29.9205 18.6648 29.8866L17.7367 27.1022L16.7778 24.2514C16.7373 24.1232 16.7427 23.985 16.7931 23.8604C16.8435 23.7358 16.9357 23.6326 17.054 23.5687L28.9278 16.7625L31.1625 15.4841C31.4872 15.2949 31.8196 15.7065 31.5332 15.9417V15.9417Z" fill="white"/>
</g>
<defs>
<clipPath id="clip0_1_18">
<rect width="45" height="45" fill="white"/>
</clipPath>
</defs>
</svg>
