<svg width="44" height="44" viewBox="0 0 44 44" fill="none" xmlns="http://www.w3.org/2000/svg">
<rect width="44" height="44" fill="#F5F5F5"/>
<g clip-path="url(#clip0_0_1)">
<path d="M38 0H6C2.68629 0 0 2.68629 0 6V38C0 41.3137 2.68629 44 6 44H38C41.3137 44 44 41.3137 44 38V6C44 2.68629 41.3137 0 38 0Z" fill="#29A71A"/>
<path d="M31.7 12.3C29.4111 9.98824 26.3714 8.57051 23.1293 8.30255C19.8871 8.03458 16.6559 8.93401 14.0185 10.8386C11.3811 12.7432 9.51114 15.5276 8.74586 18.6895C7.98059 21.8514 8.3704 25.1827 9.845 28.0825L8.3975 35.11C8.38248 35.1799 8.38206 35.2522 8.39625 35.3223C8.41045 35.3925 8.43896 35.4589 8.48 35.5175C8.54012 35.6064 8.62595 35.6749 8.72601 35.7137C8.82608 35.7526 8.93561 35.76 9.04 35.735L15.9275 34.1025C18.8192 35.5398 22.1269 35.9045 25.2623 35.1318C28.3976 34.3592 31.1572 32.4992 33.0499 29.8829C34.9426 27.2666 35.8457 24.0636 35.5985 20.844C35.3513 17.6243 33.9699 14.5967 31.7 12.3V12.3ZM29.5525 29.44C27.9688 31.0192 25.9295 32.0617 23.7219 32.4205C21.5143 32.7793 19.2498 32.4364 17.2475 31.44L16.2875 30.965L12.065 31.965L12.0775 31.9125L12.9525 27.6625L12.4825 26.735C11.4594 24.7257 11.0985 22.4441 11.4515 20.2171C11.8044 17.9901 12.8532 15.932 14.4475 14.3375C16.4508 12.3348 19.1674 11.2098 22 11.2098C24.8326 11.2098 27.5492 12.3348 29.5525 14.3375C29.5696 14.3571 29.5879 14.3754 29.6075 14.3925C31.5859 16.4003 32.6904 19.1088 32.6801 21.9276C32.6698 24.7463 31.5456 27.4467 29.5525 29.44V29.44Z" fill="white"/>
<path d="M29.1775 26.3225C28.66 27.1375 27.8425 28.135 26.815 28.3825C25.015 28.8175 22.2525 28.3975 18.815 25.1925L18.7725 25.155C15.75 22.3525 14.965 20.02 15.155 18.17C15.26 17.12 16.135 16.17 16.8725 15.55C16.9891 15.4505 17.1274 15.3796 17.2762 15.3431C17.4251 15.3066 17.5805 15.3054 17.7299 15.3397C17.8793 15.3739 18.0186 15.4427 18.1367 15.5404C18.2548 15.6381 18.3484 15.7621 18.41 15.9025L19.5225 18.4025C19.5948 18.5646 19.6216 18.7433 19.6 18.9195C19.5784 19.0957 19.5093 19.2626 19.4 19.4025L18.8375 20.1325C18.7168 20.2832 18.644 20.4666 18.6284 20.6591C18.6128 20.8516 18.6551 21.0443 18.75 21.2125C19.065 21.765 19.82 22.5775 20.6575 23.33C21.5975 24.18 22.64 24.9575 23.3 25.2225C23.4766 25.2946 23.6708 25.3123 23.8575 25.273C24.0442 25.2338 24.2148 25.1396 24.3475 25.0025L25 24.345C25.1259 24.2208 25.2825 24.1323 25.4537 24.0884C25.625 24.0445 25.8049 24.0467 25.975 24.095L28.6175 24.845C28.7633 24.8897 28.8969 24.9672 29.0081 25.0714C29.1194 25.1757 29.2053 25.304 29.2593 25.4466C29.3134 25.5892 29.3341 25.7422 29.3199 25.894C29.3057 26.0458 29.257 26.1924 29.1775 26.3225V26.3225Z" fill="white"/>
</g>
<defs>
<clipPath id="clip0_0_1">
<rect width="44" height="44" fill="white"/>
</clipPath>
</defs>
</svg>
