<svg width="72" height="72" viewBox="0 0 72 72" fill="none" xmlns="http://www.w3.org/2000/svg">
<rect width="72" height="72" rx="16" fill="url(#paint0_linear_14_4)"/>
<g clip-path="url(#clip0_14_4)">
<path d="M52.1575 35.4494L63.2275 20H55.2838L51.5818 25.3529L50.5542 26.8435L49.49 28.3854L48.1128 30.3755L46.7136 28.3854L45.6278 26.8435L40.8108 20H9V20.7269C9 22.8064 10.6737 24.4938 12.7384 24.4938H21.1923C22.0157 25.052 23.0143 26.8435 24.0855 26.8435H36.9261C37.0479 26.8435 37.1679 26.8728 37.2762 26.929C37.3845 26.9851 37.478 27.0665 37.5488 27.1663C37.9105 27.6766 37.5488 28.3848 36.9261 28.3848H12.8041V29.1044C12.8041 31.1849 14.4779 32.8714 16.5426 32.8714H25.0115C25.8277 33.4295 26.8261 35.221 27.8902 35.221H43.267L43.6241 35.7277C43.3916 36.0484 43.0871 36.3094 42.7356 36.4892C42.3841 36.6691 41.9954 36.7629 41.6012 36.7629H17.7533V37.4974C17.7533 39.5737 19.4239 41.257 21.4846 41.257H29.9455C30.7692 41.8151 31.7676 43.6141 32.8318 43.6141H36.4216C37.0473 43.6141 37.4085 44.3289 37.0401 44.839C36.9691 44.9373 36.876 45.0171 36.7685 45.0722C36.661 45.1273 36.5421 45.156 36.4216 45.156H23.0433V45.883C23.0433 47.9626 24.7172 49.65 26.7819 49.65H35.2429C36.0738 50.2079 37.0649 51.9995 38.1361 51.9995H40.3078L44.95 45.156L45.9922 43.6141L47.8436 40.8903L49.7238 43.6146L55.5102 52H64.0002L52.1575 35.4494Z" fill="url(#paint1_linear_14_4)"/>
</g>
<defs>
<linearGradient id="paint0_linear_14_4" x1="0" y1="0" x2="74.9968" y2="19.0264" gradientUnits="userSpaceOnUse">
<stop stop-color="#0074D9"/>
<stop offset="1" stop-color="#6900CC"/>
</linearGradient>
<linearGradient id="paint1_linear_14_4" x1="36.5001" y1="20" x2="36.5001" y2="52" gradientUnits="userSpaceOnUse">
<stop stop-color="#F3EBFB"/>
<stop offset="1" stop-color="white"/>
</linearGradient>
<clipPath id="clip0_14_4">
<rect width="55" height="32" fill="white" transform="translate(9 20)"/>
</clipPath>
</defs>
</svg>
