<svg width="208" height="52" viewBox="0 0 208 52" fill="none" xmlns="http://www.w3.org/2000/svg">
<path d="M100.023 16.3751L95.6317 24.2358L91.3978 16.3751H83.2042L91.633 29.5796L82.2242 43.481H90.4177L95.5925 34.4586L100.611 43.481H108.804L99.5913 29.5796L108.216 16.3751H100.023Z" fill="#FCFAFE"/>
<path d="M117.137 52V25.6686H111.217V52H117.137ZM131.877 34.5748C131.877 32.4838 131.459 30.7412 130.623 29.3472C129.812 27.9274 128.754 26.8561 127.447 26.1332C126.167 25.4104 124.781 25.049 123.292 25.049C121.724 25.049 120.364 25.4491 119.214 26.2494C118.091 27.0239 117.228 28.121 116.627 29.5408C116.026 30.9607 115.725 32.6387 115.725 34.5748C115.725 36.4851 116.026 38.1631 116.627 39.6087C117.228 41.0286 118.091 42.1386 119.214 42.9389C120.364 43.7133 121.724 44.1006 123.292 44.1006C124.781 44.1006 126.167 43.7392 127.447 43.0163C128.754 42.2935 129.812 41.2222 130.623 39.8024C131.459 38.3825 131.877 36.64 131.877 34.5748ZM125.644 34.5748C125.644 35.5041 125.448 36.2915 125.056 36.9369C124.664 37.5823 124.141 38.0727 123.488 38.4083C122.834 38.7439 122.116 38.9117 121.331 38.9117C120.652 38.9117 119.985 38.7568 119.332 38.4471C118.705 38.1115 118.182 37.621 117.764 36.9756C117.346 36.3302 117.137 35.53 117.137 34.5748C117.137 33.6196 117.346 32.8194 117.764 32.174C118.182 31.5286 118.705 31.051 119.332 30.7412C119.985 30.4056 120.652 30.2379 121.331 30.2379C122.116 30.2379 122.834 30.4056 123.488 30.7412C124.141 31.0768 124.664 31.5673 125.056 32.2127C125.448 32.8581 125.644 33.6454 125.644 34.5748Z" fill="#FCFAFE"/>
<path d="M144.626 43.8682C146.926 43.8682 148.873 43.4294 150.467 42.5517C152.087 41.674 153.368 40.3574 154.309 38.6019L149.016 37.3241C148.572 38.0986 147.971 38.6794 147.213 39.0666C146.481 39.4538 145.593 39.6475 144.547 39.6475C143.633 39.6475 142.862 39.4538 142.234 39.0666C141.607 38.6536 141.137 38.0598 140.823 37.2854C140.509 36.5109 140.353 35.5816 140.353 34.4973C140.379 33.3098 140.535 32.3289 140.823 31.5544C141.137 30.7542 141.594 30.1604 142.195 29.7732C142.796 29.386 143.541 29.1923 144.43 29.1923C145.135 29.1923 145.75 29.3472 146.272 29.657C146.795 29.9668 147.2 30.4056 147.488 30.9736C147.775 31.5415 147.919 32.2127 147.919 32.9872C147.919 33.1679 147.867 33.4002 147.762 33.6842C147.684 33.9423 147.579 34.1618 147.448 34.3425L148.86 32.5612H137.726V35.8139H154.191C154.244 35.6332 154.27 35.4138 154.27 35.1556C154.27 34.8717 154.27 34.5877 154.27 34.3037C154.27 32.3934 153.891 30.7671 153.133 29.4247C152.375 28.0823 151.277 27.0626 149.84 26.3656C148.402 25.6428 146.638 25.2813 144.547 25.2813C142.456 25.2813 140.64 25.6557 139.098 26.4043C137.582 27.1529 136.419 28.2243 135.609 29.6183C134.799 31.0123 134.394 32.6645 134.394 34.5748C134.394 36.4593 134.812 38.0986 135.648 39.4926C136.484 40.8866 137.661 41.9708 139.176 42.7453C140.718 43.4939 142.535 43.8682 144.626 43.8682Z" fill="#FCFAFE"/>
<path d="M167.099 43.8682C169.399 43.8682 171.346 43.4294 172.94 42.5517C174.561 41.674 175.841 40.3574 176.782 38.6019L171.49 37.3241C171.045 38.0986 170.444 38.6794 169.686 39.0666C168.954 39.4538 168.066 39.6475 167.02 39.6475C166.106 39.6475 165.335 39.4538 164.707 39.0666C164.08 38.6536 163.61 38.0598 163.296 37.2854C162.982 36.5109 162.826 35.5816 162.826 34.4973C162.852 33.3098 163.009 32.3289 163.296 31.5544C163.61 30.7542 164.067 30.1604 164.668 29.7732C165.269 29.386 166.014 29.1923 166.903 29.1923C167.608 29.1923 168.223 29.3472 168.745 29.657C169.268 29.9668 169.673 30.4056 169.961 30.9736C170.248 31.5415 170.392 32.2127 170.392 32.9872C170.392 33.1679 170.34 33.4002 170.235 33.6842C170.157 33.9423 170.052 34.1618 169.921 34.3425L171.333 32.5612H160.199V35.8139H176.664C176.717 35.6332 176.743 35.4138 176.743 35.1556C176.743 34.8717 176.743 34.5877 176.743 34.3037C176.743 32.3934 176.364 30.7671 175.606 29.4247C174.848 28.0823 173.75 27.0626 172.313 26.3656C170.875 25.6428 169.111 25.2813 167.02 25.2813C164.93 25.2813 163.113 25.6557 161.571 26.4043C160.055 27.1529 158.892 28.2243 158.082 29.6183C157.272 31.0123 156.867 32.6645 156.867 34.5748C156.867 36.4593 157.285 38.0986 158.121 39.4926C158.958 40.8866 160.134 41.9708 161.649 42.7453C163.192 43.4939 165.008 43.8682 167.099 43.8682Z" fill="#FCFAFE"/>
<path d="M194.08 13.2773V43.481H200V13.2773H194.08ZM179.34 34.5748C179.34 36.5626 179.745 38.2534 180.555 39.6475C181.391 41.0157 182.463 42.0612 183.77 42.784C185.077 43.5068 186.462 43.8682 187.925 43.8682C189.441 43.8682 190.774 43.4939 191.924 42.7453C193.1 41.9966 194.028 40.9253 194.708 39.5313C195.387 38.1373 195.727 36.4851 195.727 34.5748C195.727 32.6387 195.387 30.9865 194.708 29.6183C194.028 28.2243 193.1 27.1529 191.924 26.4043C190.774 25.6557 189.441 25.2813 187.925 25.2813C186.462 25.2813 185.077 25.6428 183.77 26.3656C182.463 27.0884 181.391 28.1339 180.555 29.5021C179.745 30.8703 179.34 32.5612 179.34 34.5748ZM185.573 34.5748C185.573 33.6454 185.769 32.8452 186.161 32.174C186.553 31.477 187.076 30.9478 187.729 30.5864C188.383 30.1991 189.101 30.0055 189.886 30.0055C190.565 30.0055 191.218 30.1862 191.846 30.5476C192.499 30.909 193.035 31.4383 193.453 32.1353C193.871 32.8065 194.08 33.6196 194.08 34.5748C194.08 35.53 193.871 36.356 193.453 37.053C193.035 37.7242 192.499 38.2405 191.846 38.6019C191.218 38.9634 190.565 39.1441 189.886 39.1441C189.101 39.1441 188.383 38.9634 187.729 38.6019C187.076 38.2147 186.553 37.6855 186.161 37.0143C185.769 36.3173 185.573 35.5041 185.573 34.5748Z" fill="#FCFAFE"/>
<g clip-path="url(#clip0_15_13)">
<path d="M64.7083 26.7197L81.3062 4H69.3958L63.8452 11.8719L62.3045 14.064L60.7089 16.3315L58.644 19.2581L56.546 16.3315L54.918 14.064L47.6956 4H0V5.06892C0 8.12708 2.50948 10.6085 5.60523 10.6085H18.2805C19.5152 11.4294 21.0124 14.064 22.6184 14.064H41.8711C42.0537 14.064 42.2337 14.1071 42.396 14.1897C42.5584 14.2722 42.6986 14.3919 42.8048 14.5387C43.347 15.2891 42.8048 16.3306 41.8711 16.3306H5.70363V17.3888C5.70363 20.4483 8.21335 22.9286 11.3091 22.9286H24.0069C25.2307 23.7492 26.7277 26.3838 28.323 26.3838H51.3783L51.9138 27.129C51.5651 27.6007 51.1087 27.9844 50.5816 28.2489C50.0546 28.5134 49.4718 28.6513 48.8807 28.6514H13.1242V29.7315C13.1242 32.7849 15.6291 35.2603 18.7188 35.2603H31.4048C32.6397 36.081 34.1367 38.7266 35.7323 38.7266H41.1146C42.0529 38.7266 42.5944 39.7778 42.042 40.528C41.9355 40.6724 41.796 40.7899 41.6348 40.8709C41.4737 40.9519 41.2954 40.9941 41.1146 40.9941H21.0559V42.0633C21.0559 45.1215 23.5657 47.6029 26.6614 47.6029H39.3473C40.5931 48.4233 42.0792 51.0581 43.6853 51.0581H46.9415L53.9018 40.9941L55.4643 38.7266L58.2402 34.7211L61.0594 38.7273L69.7352 51.0588H82.4647L64.7083 26.7197Z" fill="url(#paint0_linear_15_13)"/>
</g>
<g filter="url(#filter0_d_15_13)">
<rect x="170.616" y="4" width="29.3839" height="16" rx="8" fill="white" shape-rendering="crispEdges"/>
<path d="M181.546 12.63L179.494 7.61399H177.13L181.546 16.542L185.974 7.61399H183.598L181.546 12.63Z" fill="#06283D"/>
<path d="M185.575 15.198C185.575 15.502 185.683 15.762 185.899 15.978C186.115 16.194 186.383 16.302 186.703 16.302C187.039 16.302 187.311 16.194 187.519 15.978C187.727 15.762 187.831 15.502 187.831 15.198C187.831 14.894 187.727 14.634 187.519 14.418C187.311 14.202 187.039 14.094 186.703 14.094C186.383 14.094 186.115 14.202 185.899 14.418C185.683 14.634 185.575 14.894 185.575 15.198Z" fill="#06283D"/>
<path d="M189.454 10.038L191.53 9.52199V16.014H193.486V7.45799L189.454 8.27399V10.038Z" fill="#06283D"/>
</g>
<defs>
<filter id="filter0_d_15_13" x="162.616" y="0" width="45.3839" height="32" filterUnits="userSpaceOnUse" color-interpolation-filters="sRGB">
<feFlood flood-opacity="0" result="BackgroundImageFix"/>
<feColorMatrix in="SourceAlpha" type="matrix" values="0 0 0 0 0 0 0 0 0 0 0 0 0 0 0 0 0 0 127 0" result="hardAlpha"/>
<feOffset dy="4"/>
<feGaussianBlur stdDeviation="4"/>
<feComposite in2="hardAlpha" operator="out"/>
<feColorMatrix type="matrix" values="0 0 0 0 0.0235294 0 0 0 0 0.156863 0 0 0 0 0.239216 0 0 0 0.12 0"/>
<feBlend mode="normal" in2="BackgroundImageFix" result="effect1_dropShadow_15_13"/>
<feBlend mode="normal" in="SourceGraphic" in2="effect1_dropShadow_15_13" result="shape"/>
</filter>
<linearGradient id="paint0_linear_15_13" x1="16.2853" y1="-7.90507" x2="72.7228" y2="45.3226" gradientUnits="userSpaceOnUse">
<stop stop-color="#0074D9"/>
<stop offset="1" stop-color="#6900CC"/>
</linearGradient>
<clipPath id="clip0_15_13">
<rect width="82.4645" height="47.0588" fill="white" transform="translate(0 4)"/>
</clipPath>
</defs>
</svg>
