<svg width="124" height="48" viewBox="0 0 124 48" fill="none" xmlns="http://www.w3.org/2000/svg">
<g clip-path="url(#clip0_510_221)">
<path d="M16.0233 21.67H29.0487V38.8365H24.7069L24.0524 34.8481C22.4029 36.7987 20.016 39.6787 14.3302 39.6787C6.816 39.6612 0 34.1674 0 22.9965C0 14.3565 4.69091 6.15723 15.1549 6.15723H15.2422C24.7942 6.15723 28.5687 12.4932 28.9178 16.883H22.4029C22.4029 15.6394 20.1905 11.6467 15.5869 11.6467C10.9833 11.6467 6.64145 14.9281 6.64145 23.0838C6.64145 31.7718 11.2887 34.0365 15.7091 34.0365C17.1404 34.0365 21.9185 33.4605 23.2625 27.0547H16.0233V21.67Z" fill="#FEFEFE"/>
<path d="M53.6727 31.9069C52.0669 37.5796 47.4633 39.4385 43.5142 39.4385C36.9993 39.4385 32.0073 36.2487 32.0073 26.544C32.0073 23.7076 32.9629 14.6226 43.0778 14.6226C47.6378 14.6226 53.9345 16.8393 53.9345 27.6087V28.7127H38.0771C38.2516 30.4887 38.6007 34.4727 43.5054 34.4727C45.1985 34.4727 46.9353 33.6 47.4327 31.9026L53.6727 31.9069ZM47.6727 24.6807C47.328 20.8713 44.9367 19.7193 42.9862 19.7193C40.1193 19.7193 38.6007 21.5782 38.2516 24.6807H47.6727Z" fill="#FEFEFE"/>
<path d="M63.9097 15.2422H67.6886V19.6756H63.9097V32.4829C63.9097 33.8574 63.9534 34.3854 66.4319 34.3854C66.8203 34.3854 67.2566 34.3418 67.6886 34.2982V38.9978C66.733 39.0414 65.7774 39.0851 64.8217 39.0851H64.0406C58.8043 39.0851 57.8312 37.0473 57.8312 33.9884V19.6756H54.7068V15.2422H57.8312V8.85815H63.9097V15.2422Z" fill="#FEFEFE"/>
<path d="M106.852 18.6546H106.94C108.065 16.7913 109.759 14.6226 113.843 14.6226C118.922 14.6226 123.443 18.6109 123.443 26.7666C123.443 33.2335 120.576 39.4211 113.716 39.4211C109.462 39.4211 107.939 37.0735 107.201 35.7862H107.114V48H101.031V15.2422H106.852V18.6546ZM112.193 34.3636C116.099 34.3636 117.185 30 117.185 27.2291C117.185 23.5069 115.876 20.0073 112.019 20.0073C107.852 20.0073 106.852 23.8167 106.852 27.5826C106.852 31.0647 108.327 34.3418 112.193 34.3418V34.3636Z" fill="#FFF8F5"/>
<path d="M99.3511 7.19563L92.8057 0L86.2602 7.19563H89.485V27.9622C89.485 31.8153 87.661 34.032 83.1882 34.032C80.1337 34.032 77.6333 32.0814 77.6333 27.6524V15.4342L70.9875 15.4691V28.08C71.0748 31.2742 71.725 33.8443 73.4181 35.7905C76.1977 38.9411 80.4522 39.648 83.3191 39.648C91.1737 39.648 96.1264 36.0567 96.1264 27.6829V7.17382L99.3511 7.19563Z" fill="#FFF8F5"/>
</g>
<defs>
<clipPath id="clip0_510_221">
<rect width="124" height="48" fill="white"/>
</clipPath>
</defs>
</svg>
