<?xml version="1.0" encoding="utf-8"?>
<!-- Generator: Adobe Illustrator 26.0.0, SVG Export Plug-In . SVG Version: 6.00 Build 0)  -->
<svg version="1.1" id="Layer_1" xmlns="http://www.w3.org/2000/svg" xmlns:xlink="http://www.w3.org/1999/xlink" x="0px" y="0px"
	 viewBox="0 0 371.8 202.7" style="enable-background:new 0 0 371.8 202.7;" xml:space="preserve">
<style type="text/css">
	.st0{fill:#303030;}
	.st1{fill:#50B748;}
	.st2{fill:#0081C9;}
</style>
<g>
	<g>
		<path class="st0" d="M223.5,55.1v-5.7c0-1.6-0.6-2.9-1.8-3.9c-1.2-1.1-2.6-1.6-4.3-1.6h-3.2c-1.1,0-2,0.3-2.7,1
			c-0.7,0.7-1.1,1.5-1.1,2.5c0,0.9,0.3,1.6,0.9,2.1c0.6,0.5,1.3,0.8,2.2,0.8h2.7v4.3h-2.7c-2.1,0-4-0.6-5.6-1.9
			c-1.6-1.3-2.4-3-2.4-5.1c0-2.2,0.9-4.1,2.6-5.6c1.4-1.2,3.1-2,5.1-2.2c-0.1-0.9-0.6-1.7-1.5-2.5c-1-0.8-2.3-1.2-3.7-1.2h-2.5v-6.1
			h-2.7v-4.3h29v4.3h-3.2v25.3H223.5z M223.5,29.8h-13.1V32c2.2,0.5,4.1,1.6,5.6,3.2c1.1,1.3,1.8,2.8,2,4.4c2.1,0.1,3.9,0.7,5.5,1.7
			V29.8z"/>
		<path class="st0" d="M234,55.1V29.8h-3.2v-4.3h11.4v4.3H239v25.3H234z"/>
		<path class="st0" d="M244.3,55.1V29.8H241v-4.3h3.2V24c0-1.9,0.5-3.7,1.4-5.3c0.9-1.6,2.2-3,3.9-3.9c1.6-0.9,2.8-1.4,3.8-1.4
			c1-0.1,1.7-0.1,2.2-0.1c0.9,0,6.3,0.6,16.2,1.9l-0.6,4.2c-9.6-1.3-14.7-1.9-15.3-1.9c-1.6,0-2.8,0.3-3.7,0.9
			c-1.9,1.3-2.8,2.9-2.8,5v2.2h3.2v4.3h-3.2v25.3H244.3z"/>
		<path class="st0" d="M251.3,29.8v-4.3h21.8v4.3H251.3z M262.4,50.3c-2.3,0-4.3-0.8-5.9-2.3c-1.6-1.5-2.5-3.3-2.5-5.5v-1.6
			c0-2.1,0.8-3.9,2.4-5.4c1.6-1.5,3.7-2.3,6.3-2.3c1.8,0,3.4,0.6,4.8,1.8c1.4-1.2,3.2-1.8,5.4-1.8c2.1,0,3.8,0.7,5.3,2.2
			c0.7,0.8,1.3,1.6,1.6,2.4l-4.3,2.2c0-0.7-0.3-1.3-0.8-1.8c-0.5-0.5-1.3-0.8-2.2-0.8c-0.6,0-1.2,0.2-1.7,0.7
			c-0.5,0.5-0.7,1.1-0.7,1.7v3h-4.9v-3c0-0.6-0.2-1.2-0.6-1.7c-0.4-0.5-1.2-0.8-2.2-0.8c-0.9,0-1.7,0.3-2.4,1c-0.6,0.7-1,1.5-1,2.4
			v1.6c0,1,0.3,1.8,1,2.5c0.7,0.7,1.5,1,2.4,1h2.3v4.3H262.4z"/>
		<path class="st0" d="M284.1,55.1c-2.4,0-4.5-0.9-6.2-2.6c-1.7-1.7-2.5-3.8-2.5-6.2V29.8h-3.2v-4.3H291v-1.1c0-0.7-0.3-1.4-0.8-1.9
			c-0.5-0.5-1.1-0.8-1.9-0.8h-6.7c-1.8,0-3.3-0.6-4.5-1.8c-1.2-1.2-1.8-2.7-1.8-4.5h5v0.4c0,1.1,0.6,1.7,1.7,1.7h6.3
			c2.1,0,3.9,0.8,5.4,2.3c1.5,1.5,2.3,3.4,2.3,5.8h2.7v4.3h-18.3v16.5c0,1.2,0.4,2.3,1.1,3.2c0.7,0.9,1.6,1.3,2.6,1.3h1.4
			c1.5,0,2.8-0.5,3.9-1.6c1.1-1.1,1.6-2.4,1.6-3.9v-0.9c0-1.2-0.4-2.2-1.3-3.1c-0.9-0.9-1.9-1.3-3.1-1.3h-2v-4.3h2
			c2.6,0,4.8,0.8,6.7,2.5c1.9,1.7,2.8,3.7,2.8,6.2v0.9c0,2.7-1,5-3.1,7c-2.1,1.9-4.6,2.9-7.4,2.9H284.1z"/>
		<path class="st0" d="M215.8,89l-11.1-5.2v-2.5c0-1.3,0.4-2.6,1.1-3.7c0.8-1.1,1.9-1.9,3.4-2.4l6.6-2v-1.1h-12.9v-2.8h25.5v2.8
			h-9.3v1.1h1.2c1.9,0,3.5,0.5,4.8,1.6c1.3,1.1,1.9,2.4,1.9,3.9v0.4c0,1.4-0.5,2.5-1.6,3.5c-1.1,1-2.3,1.4-3.8,1.4v-2.9
			c0.6,0,1.1-0.2,1.5-0.6c0.4-0.4,0.6-0.9,0.6-1.5v-0.4c0-0.8-0.3-1.4-1-1.9c-0.6-0.5-1.5-0.8-2.4-0.8h-1.2V89H215.8z M215.8,76.2
			l-5.5,1.7c-1.5,0.5-2.3,1.4-2.3,2.9v1.3l7.8,3.7V76.2z"/>
		<path class="st0" d="M229.9,89V72.1h-2.2v-2.8h2.2v-1c0-1.3,0.3-2.4,0.9-3.5c0.6-1.1,1.5-2,2.6-2.6c1-0.6,1.9-0.9,2.6-1
			c0.7,0,1.2-0.1,1.5-0.1c0.6,0,4.2,0.4,10.8,1.3l-0.4,2.8c-6.4-0.8-9.8-1.3-10.2-1.3c-1,0-1.9,0.2-2.5,0.6c-1.3,0.8-1.9,2-1.9,3.3
			v1.5h2.1v2.8h-2.1V89H229.9z"/>
		<path class="st0" d="M248.5,89v-3.8c0-1-0.4-1.9-1.2-2.6c-0.8-0.7-1.7-1.1-2.8-1.1h-2.2c-0.7,0-1.3,0.2-1.8,0.7
			c-0.5,0.5-0.7,1-0.7,1.6c0,0.6,0.2,1.1,0.6,1.4c0.4,0.3,0.9,0.5,1.4,0.5h1.8v2.8h-1.8c-1.4,0-2.7-0.4-3.8-1.3
			c-1.1-0.9-1.6-2-1.6-3.4c0-1.5,0.6-2.7,1.7-3.7c1-0.8,2.1-1.3,3.4-1.5c-0.1-0.6-0.4-1.2-1-1.6c-0.7-0.5-1.5-0.8-2.5-0.8h-1.6v-4.1
			h-1.8v-2.8h19.3v2.8h-2.2V89H248.5z M248.5,72.1h-8.7v1.4c1.5,0.4,2.7,1.1,3.7,2.2c0.7,0.9,1.2,1.8,1.4,2.9
			c1.4,0.1,2.6,0.4,3.7,1.1V72.1z"/>
		<path class="st0" d="M262.6,89c-2,0-3.8-0.7-5.3-2.2c-1.5-1.5-2.2-3.2-2.2-5.3v-6.4h3.3v6.6c0,1.1,0.4,2.2,1.2,3.1
			c0.8,0.9,1.8,1.3,2.9,1.3h1.7c1.1,0,2.1-0.4,2.9-1.3c0.8-0.9,1.2-1.9,1.2-3.1v-0.6c-0.4,0.1-1.1,0.2-1.9,0.2
			c-1.3,0-2.5-0.5-3.4-1.4c-1-0.9-1.4-2.1-1.4-3.4v-4.4h-8.3v-2.8h15.1v-0.7c0-0.5-0.2-0.9-0.5-1.3c-0.3-0.3-0.8-0.5-1.3-0.5h-7.3
			c-1.2,0-2.2-0.4-3-1.2c-0.8-0.8-1.2-1.8-1.2-3h3.3v0.3c0,0.7,0.4,1.1,1.1,1.1h7.1c1.4,0,2.6,0.5,3.6,1.5c1,1,1.5,2.3,1.5,3.8h1.8
			v2.8H265v4.7c0,0.6,0.1,1,0.4,1.3s0.7,0.4,1.1,0.4h0.4c0.4,0,0.8-0.1,1.1-0.4c0.3-0.3,0.4-0.7,0.4-1.3V76h3.3v5.4
			c0,2-0.7,3.8-2.2,5.3s-3.2,2.2-5.3,2.2H262.6z"/>
		<path class="st0" d="M275,89V72.1h-2.2v-2.8h2.2v-1c0-1.3,0.3-2.4,0.9-3.5c0.6-1.1,1.5-2,2.6-2.6c1-0.6,1.9-0.9,2.6-1
			c0.7,0,1.2-0.1,1.5-0.1c0.6,0,4.2,0.4,10.8,1.3l-0.4,2.8c-6.4-0.8-9.8-1.3-10.2-1.3c-1,0-1.9,0.2-2.5,0.6c-1.3,0.8-1.9,2-1.9,3.3
			v1.5h2.1v2.8h-2.1V89H275z"/>
		<path class="st0" d="M293.3,89v-7c0-1.3-0.5-2.4-1.4-3.3c-0.9-0.9-2-1.4-3.3-1.4h-0.4c-0.9,0-1.7,0.3-2.4,1c-0.7,0.6-1,1.4-1,2.4
			v0.5c0,0.8,0.3,1.4,0.8,1.9c0.5,0.5,1.2,0.8,1.9,0.8h1.3v2.9h-1.3c-1.7,0-3.1-0.5-4.3-1.6c-1.2-1.1-1.8-2.4-1.8-4v-0.5
			c0-1.7,0.7-3.2,2-4.4c1.3-1.2,2.9-1.8,4.7-1.8c2,0,3.7,0.5,5.1,1.5v-3.9h-13.5v-2.8h19v2.8h-2.1V89H293.3z"/>
		<path class="st0" d="M301.6,86.4c-1.1-1.4-1.7-3-1.7-4.9v-3.3c0-2.5,0.6-4.5,1.9-6.1h-3.7v-2.8h9.1v2.8c-1.1,0-2.1,0.5-2.8,1.6
			c-0.8,1-1.2,2.4-1.2,4.1V82c0,1.1,0.3,2.1,0.9,2.8c0.6,0.7,1.3,1.1,2.2,1.3V89C304.3,88.6,302.7,87.8,301.6,86.4z"/>
		<path class="st0" d="M319.4,89l-11.1-5.2v-2.5c0-1.3,0.4-2.6,1.1-3.7c0.8-1.1,1.9-1.9,3.4-2.4l6.6-2v-1.1h-12.9v-2.8h25.5v2.8
			h-9.3v1.1h1.2c1.9,0,3.5,0.5,4.8,1.6c1.3,1.1,1.9,2.4,1.9,3.9v0.4c0,1.4-0.5,2.5-1.6,3.5c-1.1,1-2.3,1.4-3.9,1.4v-2.9
			c0.6,0,1.1-0.2,1.5-0.6c0.4-0.4,0.6-0.9,0.6-1.5v-0.4c0-0.8-0.3-1.4-1-1.9c-0.6-0.5-1.5-0.8-2.4-0.8h-1.2V89H319.4z M319.4,76.2
			l-5.5,1.7c-1.5,0.5-2.3,1.4-2.3,2.9v1.3l7.8,3.7V76.2z"/>
		<path class="st0" d="M348,89V75.5c0-1-0.3-1.8-0.9-2.4c-0.6-0.7-1.4-1-2.3-1h-0.6c-1,0-1.8,0.4-2.4,1.1c-0.7,0.7-1,1.6-1,2.6v0.5
			c0,0.9,0.3,1.6,0.8,2.2c0.5,0.6,1.2,0.9,2,0.9h1.3v2.8H343c-1.6,0-2.9-0.6-4-1.7c-1.1,1.1-2.4,1.7-4,1.7h-1.8v-2.8h1.3
			c0.8,0,1.4-0.3,2-0.9c0.6-0.6,0.8-1.3,0.8-2.2v-0.5c0-1-0.3-1.9-1-2.6c-0.7-0.7-1.5-1.1-2.5-1.1h-2.4v-2.8h2.9
			c1.8,0,3.3,0.6,4.5,1.9l0.2,0.2l0.2-0.2c1.2-1.3,2.7-1.9,4.5-1.9h1.1c1.2,0,2.2,0.3,3.2,0.9v-0.9h5.5v2.8h-2.2V89H348z"/>
		<path class="st0" d="M366.3,89v-7c0-1.3-0.5-2.4-1.4-3.3c-0.9-0.9-2-1.4-3.3-1.4h-0.4c-0.9,0-1.7,0.3-2.4,1c-0.7,0.6-1,1.4-1,2.4
			v0.5c0,0.8,0.3,1.4,0.8,1.9c0.5,0.5,1.2,0.8,1.9,0.8h1.3v2.9h-1.3c-1.7,0-3.1-0.5-4.3-1.6c-1.2-1.1-1.8-2.4-1.8-4v-0.5
			c0-1.7,0.7-3.2,2-4.4c1.3-1.2,2.9-1.8,4.7-1.8c2,0,3.7,0.5,5.1,1.5v-3.9h-13.5v-2.8h19v2.8h-2.1V89H366.3z"/>
	</g>
	<g>
		<path class="st1" d="M93.6,110.3c-0.9,0-2.1-0.3-3.7-0.9c-1.6-0.6-2.8-2.3-3.8-5.1l-0.1-4V64.1c-3.6,1.2-5.9,3.7-6.9,7.4
			c-0.4,1.5-0.7,3.1-0.8,4.7c0,4.3-1,7.1-3.1,8.6c-1.5,1.1-3.5,1.7-5.9,1.7l-2.4-0.1c-11.5-1-19.3-5.6-23.5-13.7
			c-2.7-5.1-4-10.9-4-17.2c0-3.6,0.4-7.4,1.3-11.4c0-0.4,0.1-0.7,0.3-0.9V43l-0.1,0.5c1.8-6.6,5.3-11.5,10.4-14.9
			c5.5-3.5,11.8-5.3,18.9-5.3c5.8,0,11.4,1.2,16.8,3.6c2.1-2.2,4.5-3.3,7.2-3.3c0.5,0,1.7,0.2,3.6,0.4c1.9,0.3,3.2,2.7,3.8,7.2v58.6
			c0,8.5,0,12.8-0.1,13c0,0.2-0.1,0.4-0.1,0.7c-0.6,2.7-2,4.6-4.1,5.6C96.1,110,94.9,110.3,93.6,110.3z M63.6,69.9
			c0.9-5.4,3.2-10.1,6.9-14.1c3.7-4,8.5-6.6,14.6-7.8c-0.4-1.8-1.1-3.2-2.1-4.4c-1.3-1.8-4.1-3.1-8.3-4c-1.6-0.3-3.3-0.5-4.9-0.5
			c-2.6,0-5.5,0.6-8.8,1.8c-4.1,1.6-6.2,6.3-6.2,14.1c0,2.7,0.4,5.6,1.2,8.5C56.9,66.4,59.4,68.5,63.6,69.9z"/>
		<path class="st1" d="M154.3,56.7c-3.2,0.9-5.2,2.2-6.2,4c-0.9,1.8-1.5,3.8-1.7,6c-0.2,0.8-0.3,1.5-0.4,2.3c-1,1.9-2.5,3-4.6,3.5
			c-2,0.4-4,0.4-5.8-0.2c-1.9-0.6-3.2-1.5-4-2.8c-0.4-0.8-0.7-2.1-0.7-3.8c0-1.8,0-3.5,0.1-5.3c0.1-1.7,0.1-2.9,0-3.7
			c-4.2,1.1-6.7,3.5-7.5,7.1c-0.8,3.6-0.4,7,1.3,10.2c0.9,1.7,3.2,2.9,6.7,3.7c1.2,0.4,2.8,0.6,4.7,0.6c2.3,0,4.4,0.3,6.3,0.9
			c2.6,1.2,3.9,2.9,3.8,5.1c-0.1,2.2-1.8,3.8-4.9,4.9c-4.4,0.7-9.4,0.4-14.7-0.8c-5.4-1.2-9.7-3.4-13-6.3c-3.7-3.7-5.7-8.4-6-14
			c-0.3-5.7,1.6-10.8,5.7-15.3c3.9-3.8,9.4-6.3,16.5-7.3l1-0.1c2.6-0.3,5.2-0.5,7.9-0.4c2.7,0.1,4.8,0.9,6.3,2.6
			c0.8-0.3,1.7-0.7,2.9-1c1.2-0.3,2.2-0.5,3-0.7c0.1-0.1,0.2-0.1,0.3-0.1c0.1,0,0.3,0,0.5,0c0.3,0,0.5,0,0.8-0.1
			c0.3,0,0.5-0.1,0.6-0.1c0.2,0,0.2-0.1,0.1-0.2c-1-2.7-3.6-4.6-7.7-5.5c-1.5-0.3-3.7-0.5-6.7-0.6c-3,0-6.3-0.1-9.9-0.1
			c-3.6,0.1-6.9,0.1-10,0.1c-3.1,0-5.4-0.2-6.9-0.6c-3.2-1.3-4.6-3.9-4.4-7.8c0.2-3.9,2.2-6.3,5.8-7.2h44.1c3.1-0.2,5.7,0,7.9,0.6
			c2.2,0.6,3.6,2.2,4.2,4.9v92.2c-0.1,0.8-0.1,1.7,0,2.8c0.3,2.5,0,5-0.8,7.4c-0.8,2.5-3.1,4-7.1,4.6c-3.8-0.4-6.2-2.1-6.9-5
			c-0.8-2.9-1-6.5-0.8-10.6v-16.7c-1.5,0.7-2.7,1.6-3.3,2.8c-0.9,1.8-1.5,3.7-1.7,5.8c-0.2,0.8-0.3,1.5-0.4,2.2
			c-1,1.8-2.5,2.9-4.6,3.3c-2,0.4-4,0.4-5.8-0.2c-1.9-0.6-3.2-1.4-4-2.6c-0.4-0.7-0.7-1.9-0.7-3.6c0-1.7,0-3.4,0.1-5.1
			c0.1-1.6,0.1-2.8,0-3.5c-4.2,0.9-6.7,3.2-7.5,6.7c-0.8,3.5-0.4,6.8,1.3,9.7c0.9,1.6,3.2,2.8,6.7,3.6c1.2,0.3,2.8,0.5,4.7,0.5
			c2.3,0,4.4,0.3,6.3,0.9c2.6,1.2,3.9,2.8,3.8,4.9c-0.1,2.1-1.8,3.7-4.9,4.7c-4.4,0.6-9.4,0.3-14.7-0.9c-5.4-1.2-9.7-3.2-13-6
			c-3.7-3.4-5.7-7.9-6-13.3c-0.3-5.5,1.6-10.3,5.7-14.6c3.9-3.7,9.4-6,16.5-6.9l1-0.3c2.6-0.3,5.2-0.5,7.9-0.4
			c2.7,0.1,4.8,0.9,6.3,2.6c0.8-0.3,1.7-0.6,2.9-0.9c1.2-0.3,2.2-0.5,3-0.6c0.1-0.1,0.2-0.1,0.3-0.1V56.7z"/>
		<path class="st1" d="M183.9,133.9c-1.8,0-3.5-0.7-5.2-2c-1.7-1.3-2.5-3.3-2.6-6l0.1-26.5V55.9c0-20-0.4-30.7-1.2-32.1
			c-1-4-3.8-6.5-8.5-7.3c-3.6-0.7-8.7-1-15.3-1l-13.6,0.1h-8.2c-3.3-0.2-5.6-1.6-6.8-4.4c-0.6-1.2-0.9-2.4-0.9-3.6
			c0-1.5,0.5-2.9,1.4-4.4c1.5-2.2,4.4-3.3,8.7-3.3l2.3,0.1h17.8c3.8,0,7.4,0.1,10.7,0.3c3.3,0.2,6.7,0.7,10.2,1.5
			c9,3.2,14.4,9.4,16.3,18.6c1.5,7.3,2.3,16.7,2.3,28.2l-0.1,9.5c0,13.1,0,23.3,0.1,30.5l0.1,14.2c0,4.4,0,9.6-0.1,15.5
			c0,5.9-0.3,9.4-0.8,10.6C189.1,132.3,186.8,133.9,183.9,133.9z"/>
	</g>
	<g>
		<path class="st1" d="M287.3,150.9c-3.8-3.3-9.6-2.8-12.8,1c-2.3,2.7-2.8,6.4-1.5,9.5c-9.2,6-19.2,11.3-29.8,15.9
			c-28.6,12.4-59.1,18.5-88.3,17.7c-48-1.3-92.3-16.4-121.3-41.3c-2.9-2.5-5.7-5.2-8.3-7.8C9.1,129,0.8,109.7,1.1,89.8
			c0-0.4,0-0.8,0-1.3C0.5,92.3,0.1,96,0,99.9c-0.3,18.9,7.8,37.5,23.4,53.8c2.6,2.7,5.3,5.2,8.2,7.7c28.8,24.7,73.4,40,121.8,41.3
			c29.3,0.8,60-5.4,88.8-17.9c12.6-5.5,24.2-11.9,34.7-19.2c3.7,2.1,8.6,1.4,11.4-1.9C291.6,159.9,291.1,154.1,287.3,150.9z
			 M284.7,160.6c-1.6,1.8-4.3,2.1-6.2,0.5c-1.8-1.6-2-4.3-0.5-6.2c1.6-1.8,4.3-2.1,6.2-0.5C286.1,156,286.3,158.8,284.7,160.6z"/>
		<path class="st2" d="M309.1,98.2c-6.2-5.2-15.4-4.4-20.6,1.7c-3.6,4.3-4.4,10.1-2.4,15c-25.7,28.7-78.2,56-133.7,55.4
			C123.6,170,95.8,164,73,153.6c-14.2-6.5-26.5-14.7-35.8-24.3c-5.2-5.3-9.3-10.9-12.4-16.7c-6.9-13.8-9.3-32-1.9-51.9
			C25.1,49,30.4,38.3,38,29.6c-16.2,9-28.2,24.7-32.4,43.3c-2,12-0.9,23.3,2.6,33.7c3.3,10.8,9.6,21.3,18.6,30.8
			c0.3,0.3,0.7,0.7,1,1.1c0.7,0.8,1.5,1.5,2.3,2.3c0,0.1,0.1,0.1,0.2,0.2c1.7,1.6,3.5,3.2,5.3,4.8c27.6,23.3,70.2,37.2,116.6,37.8
			c28.1,0.3,57.5-6.1,85-18.6c23.8-10.7,44.3-25.3,58.7-41.4c5.3,1.4,11.1-0.3,14.8-4.7C316,112.7,315.3,103.4,309.1,98.2z
			 M304.9,113.8c-2.5,2.9-6.9,3.3-9.8,0.8c-2.9-2.4-3.3-6.8-0.8-9.7c2.5-2.9,6.8-3.3,9.7-0.8C307,106.6,307.4,110.9,304.9,113.8z
			 M38.2,29.5c-0.1,0-0.1,0.1-0.1,0.1C38.1,29.6,38.1,29.5,38.2,29.5C38.1,29.5,38.1,29.5,38.2,29.5z"/>
		<path class="st1" d="M265.5,101.5c-5-4.6-12.8-4.3-17.4,0.6c-3.2,3.5-4,8.3-2.6,12.5c-22.7,23.1-67.9,44-114.5,41.3
			c-13.1-0.8-25.9-2.9-37.9-6.3c-23.9-6.7-44.4-18.2-57.2-32.7c-5.9-6.7-10-13.8-12.2-21c2.2,10.2,7.8,20.1,16.7,29.1
			c10.7,11,25.7,20.3,43.6,27.3c0.5,0.2,1.1,0.4,1.6,0.6c17.8,6.7,37.8,10.7,58.2,11.8c4.5,0.2,30.1,0.8,56.8-9.2
			c0.6-0.2,1.3-0.5,1.9-0.7c20.4-8,38.2-19.5,50.9-32.4c4.4,1.4,9.3,0.2,12.7-3.4C270.8,113.9,270.5,106.2,265.5,101.5z
			 M261.4,114.5c-2.2,2.4-5.9,2.5-8.2,0.3c-2.4-2.2-2.5-5.9-0.3-8.2c2.2-2.4,5.9-2.5,8.2-0.3C263.4,108.5,263.6,112.1,261.4,114.5z"
			/>
	</g>
</g>
</svg>
