<svg width="24" height="24" viewBox="0 0 24 24" fill="none" xmlns="http://www.w3.org/2000/svg">
<g clip-path="url(#clip0_1_2)">
<path d="M23.79 9.87L18.43 15.36L19.69 23.13C19.801 23.75 19.128 24.204 18.59 23.91L12 20.26V0.0299997C12.28 0.0299997 12.56 0.16 12.68 0.43L15.99 7.48L23.36 8.6C23.976 8.71 24.203 9.435 23.79 9.87V9.87Z" fill="#ECEFF1"/>
<path d="M12 0.0299997V20.26L5.41 23.91C4.881 24.207 4.198 23.757 4.31 23.13L5.57 15.36L0.209998 9.87C-0.203002 9.435 0.0229978 8.71 0.639998 8.6L8.01 7.48L11.32 0.43C11.44 0.16 11.72 0.0299997 12 0.0299997V0.0299997Z" fill="#FFC107"/>
</g>
<defs>
<clipPath id="clip0_1_2">
<rect width="24" height="24" fill="white"/>
</clipPath>
</defs>
</svg>
