<svg width="80" height="80" viewBox="0 0 80 80" fill="none" xmlns="http://www.w3.org/2000/svg">
<g clip-path="url(#clip0_1_2)">
<path d="M76.165 52.01C73.57 52.035 71.51 51.83 70.035 51.41C65.575 50.135 64.195 48.31 64.195 48.31C63.88 47.84 63.33 47.585 62.765 47.665C62.205 47.74 61.735 48.125 61.555 48.66C61.535 48.72 59.435 54.795 54.15 57.435C48.665 60.18 38.72 59.51 38.62 59.505C38.08 59.455 37.6 59.705 37.305 60.13C37.005 60.555 36.95 61.105 37.16 61.58L44.79 78.87C45.03 79.415 45.565 79.755 46.145 79.755C46.22 79.755 46.3 79.75 46.38 79.735C60.64 77.445 72.59 67.585 77.57 54C77.74 53.545 77.67 53.035 77.39 52.635C77.11 52.245 76.62 51.98 76.165 52.01Z" fill="#4CAF50"/>
<path d="M40 0.244999C17.945 0.244999 0 18.19 0 40.245C0 57.73 11.675 73.475 28.395 78.535C28.535 78.58 28.68 78.6 28.825 78.6C29.235 78.6 29.63 78.43 29.915 78.12C30.3 77.7 30.41 77.1 30.2 76.57C14.435 36.82 11.58 27.57 11.13 25.44C13.255 24.32 20.375 22.77 22.265 23.08C22.82 23.875 23.97 26.685 24.99 29.185C28.865 38.665 34.72 52.995 42.855 53.575C48.63 53.99 53.825 51.8 56.8 47.73C58.605 45.255 59.22 42.46 58.41 40.435C57.175 37.355 51.49 24.38 49.47 19.775L58.38 17.545C60.325 22.17 67.38 38.675 70.71 42.675C72.165 44.415 74.665 45.485 78.14 45.845C78.965 45.915 79.68 45.34 79.765 44.53C79.925 43.12 80 41.675 80 40.245C80 18.19 62.055 0.244999 40 0.244999Z" fill="#4CAF50"/>
</g>
<defs>
<clipPath id="clip0_1_2">
<rect width="80" height="80" fill="white"/>
</clipPath>
</defs>
</svg>
