<svg width="160" height="60" viewBox="0 0 160 41" fill="none" xmlns="http://www.w3.org/2000/svg">
<path d="M51.0201 31.9284L53.012 27.2795C55.1647 28.8937 58.0241 29.7331 60.8514 29.7331C62.9398 29.7331 64.257 28.926 64.257 27.6992C64.2249 24.2772 51.759 26.9567 51.6627 18.3693C51.6305 14.011 55.4859 10.6536 60.9478 10.6536C64.1928 10.6536 67.4378 11.4606 69.751 13.3008L67.8876 18.0465C65.7671 16.6906 63.1325 15.7221 60.6265 15.7221C58.9237 15.7221 57.7992 16.5292 57.7992 17.5622C57.8313 20.9197 70.3936 19.0795 70.5221 27.2795C70.5221 31.7347 66.7631 34.8662 61.3655 34.8662C57.4137 34.8662 53.7831 33.9299 51.0201 31.9284ZM127.454 25.6008C126.458 27.3441 124.594 28.5386 122.442 28.5386C119.261 28.5386 116.691 25.9559 116.691 22.7599C116.691 19.5638 119.261 16.9811 122.442 16.9811C124.594 16.9811 126.458 18.1756 127.454 19.9189L132.948 16.852C130.892 13.1717 126.94 10.6536 122.442 10.6536C115.791 10.6536 110.394 16.0772 110.394 22.7599C110.394 29.4425 115.791 34.8662 122.442 34.8662C126.972 34.8662 130.892 32.3803 132.948 28.6677L127.454 25.6008ZM73.2851 0.613403H80.1606V34.4142H73.2851V0.613403ZM135.647 0.613403V34.4142H142.522V24.2772L150.683 34.4142H159.486L149.108 22.3725L158.715 11.1378H150.297L142.522 20.4677V0.613403H135.647ZM100.594 25.6654C99.5984 27.3118 97.5422 28.5386 95.2289 28.5386C92.0482 28.5386 89.4779 25.9559 89.4779 22.7599C89.4779 19.5638 92.0482 16.9811 95.2289 16.9811C97.5422 16.9811 99.5984 18.2725 100.594 19.9512V25.6654ZM100.594 11.1378V13.8819C99.4699 11.9772 96.6747 10.6536 93.751 10.6536C87.7108 10.6536 82.9558 16.0126 82.9558 22.7276C82.9558 29.4425 87.7108 34.8662 93.751 34.8662C96.6747 34.8662 99.4699 33.5425 100.594 31.6378V34.3819H107.47V11.1378H100.594Z" fill="black"/>
<path d="M8.51406 25.6331C8.51406 27.9897 6.61848 29.8945 4.2731 29.8945C1.92772 29.8945 0.032135 27.9897 0.032135 25.6331C0.032135 23.2764 1.92772 21.3716 4.2731 21.3716H8.51406V25.6331ZM10.6345 25.6331C10.6345 23.2764 12.5301 21.3716 14.8755 21.3716C17.2209 21.3716 19.1165 23.2764 19.1165 25.6331V36.2866C19.1165 38.6433 17.2209 40.548 14.8755 40.548C12.5301 40.548 10.6345 38.6433 10.6345 36.2866V25.6331Z" fill="#E01E5A"/>
<path d="M14.8755 8.52283C12.5301 8.52283 10.6345 6.61811 10.6345 4.26142C10.6345 1.90472 12.5301 0 14.8755 0C17.2209 0 19.1165 1.90472 19.1165 4.26142V8.52283H14.8755ZM14.8755 10.6858C17.2209 10.6858 19.1165 12.5906 19.1165 14.9472C19.1165 17.3039 17.2209 19.2087 14.8755 19.2087H4.24096C1.89558 19.2087 0 17.3039 0 14.9472C0 12.5906 1.89558 10.6858 4.24096 10.6858H14.8755Z" fill="#36C5F0"/>
<path d="M31.8715 14.9472C31.8715 12.5906 33.7671 10.6858 36.1125 10.6858C38.4578 10.6858 40.3534 12.5906 40.3534 14.9472C40.3534 17.3039 38.4578 19.2087 36.1125 19.2087H31.8715V14.9472ZM29.751 14.9472C29.751 17.3039 27.8554 19.2087 25.51 19.2087C23.1647 19.2087 21.2691 17.3039 21.2691 14.9472V4.26142C21.2691 1.90472 23.1647 0 25.51 0C27.8554 0 29.751 1.90472 29.751 4.26142V14.9472Z" fill="#2EB67D"/>
<path d="M25.51 32.0252C27.8554 32.0252 29.751 33.9299 29.751 36.2866C29.751 38.6433 27.8554 40.548 25.51 40.548C23.1647 40.548 21.2691 38.6433 21.2691 36.2866V32.0252H25.51ZM25.51 29.8945C23.1647 29.8945 21.2691 27.9897 21.2691 25.6331C21.2691 23.2764 23.1647 21.3716 25.51 21.3716H36.1446C38.49 21.3716 40.3855 23.2764 40.3855 25.6331C40.3855 27.9897 38.49 29.8945 36.1446 29.8945H25.51Z" fill="#ECB22E"/>
</svg>
