<?xml version="1.0" standalone="no"?>
<!DOCTYPE svg PUBLIC "-//W3C//DTD SVG 20010904//EN"
 "http://www.w3.org/TR/2001/REC-SVG-20010904/DTD/svg10.dtd">
<svg version="1.0" xmlns="http://www.w3.org/2000/svg"
 width="160" height="60" viewBox="0 0 160.000000 60.000000"
 preserveAspectRatio="xMidYMid meet">

<g transform="translate(0.000000,60.000000) scale(0.100000,-0.100000)"
fill="#007AC3" stroke="none">
<path d="M1178 506 c-8 -7 -45 -76 -83 -152 -58 -114 -78 -146 -116 -176 -61
-49 -96 -65 -111 -50 -9 9 5 27 56 73 59 55 106 120 106 148 0 21 -33 41 -67
41 -27 0 -43 -8 -67 -34 -26 -27 -37 -32 -64 -28 -21 3 -43 -3 -66 -16 l-34
-20 -6 29 c-4 21 -11 29 -26 29 -11 0 -22 -6 -24 -12 -2 -7 -9 -38 -16 -68 -7
-30 -23 -76 -36 -103 -24 -49 -23 -71 3 -82 21 -7 28 1 43 49 15 47 79 119
121 136 38 16 43 10 24 -26 -17 -34 -20 -87 -5 -115 12 -22 60 -49 88 -49 10
0 39 13 65 30 33 21 47 25 47 15 0 -19 39 -45 69 -45 13 0 33 8 43 17 18 16
21 16 47 0 39 -23 74 -21 96 3 22 24 38 25 55 5 20 -24 63 -18 92 13 28 30 62
92 72 134 5 22 14 28 44 34 20 4 43 10 51 14 23 12 -26 33 -60 26 -23 -4 -32
-1 -45 19 -20 30 -47 39 -73 25 -31 -16 -90 -98 -103 -143 -11 -37 -71 -106
-92 -107 -31 -1 33 147 123 284 56 87 61 102 31 111 -30 10 -45 -4 -86 -80
-58 -109 -114 -222 -114 -232 0 -12 -78 -83 -92 -83 -30 0 28 137 115 273 60
93 67 111 41 121 -23 9 -31 8 -46 -8z m-218 -188 c-15 -27 -81 -98 -92 -98
-14 0 19 56 57 96 38 40 54 41 35 2z m466 -66 c-19 -57 -63 -125 -77 -117 -26
17 -3 95 49 164 21 29 26 31 34 17 6 -11 4 -33 -6 -64z"/>
<path d="M630 449 c-25 -4 -69 -8 -97 -8 -45 -1 -53 -4 -53 -20 0 -21 19 -31
56 -31 24 0 24 -1 10 -28 -24 -46 -76 -213 -76 -243 0 -19 6 -30 20 -34 30 -9
37 -1 44 56 8 60 46 166 82 227 l26 44 61 -4 c50 -2 62 0 65 13 3 18 -38 40
-71 38 -12 -1 -42 -5 -67 -10z"/>
<path d="M37 432 c-14 -16 -17 -43 -17 -169 0 -133 2 -152 18 -166 16 -14 43
-17 173 -17 107 0 159 4 167 12 17 17 17 329 0 346 -8 8 -60 12 -168 12 -139
0 -159 -2 -173 -18z m141 -34 c8 -8 12 -50 12 -124 0 -128 -5 -137 -72 -132
l-43 3 -3 119 c-1 66 0 126 2 133 7 17 88 17 104 1z m167 -73 l0 -80 -55 0
-55 0 -3 69 c-4 95 -2 98 60 94 l53 -3 0 -80z"/>
</g>
</svg>
