<svg width="160" height="60" viewBox="0 0 160 42" fill="none" xmlns="http://www.w3.org/2000/svg">
<g clip-path="url(#clip0_109_116)">
<path d="M17.6276 0H0V42L17.6276 0Z" fill="#FA0C00"/>
<path d="M30.0302 0H47.6348V42L30.0302 0Z" fill="#FA0C00"/>
<path d="M23.8289 15.4797L35.0486 42H27.6875L24.3342 33.5566H16.1233L23.8289 15.4797Z" fill="#FA0C00"/>
<path d="M76.393 26.7093L78.4716 32.6472C78.5405 32.7959 78.6438 32.8646 78.8276 32.8646H82.824C83.0422 32.8646 83.0766 32.7616 83.0421 32.5442L74.7853 9.69651C74.7508 9.51345 74.7164 9.47913 74.5326 9.47913H69.5716C69.4338 9.47913 69.3534 9.58209 69.3534 9.73083C69.2845 10.9321 69.1812 11.2982 69.0319 11.6529L61.6708 32.5099C61.6363 32.7616 61.7167 32.8646 61.9234 32.8646H65.4949C65.7131 32.8646 65.8164 32.7959 65.8968 32.5785L67.8605 26.7093H76.393ZM68.9974 22.8308C70.0769 19.5816 71.5009 15.417 72.0751 13.0373H72.1096C72.8216 15.5314 74.4982 20.474 75.2561 22.8308H68.9974Z" fill="#FA0C00"/>
<path d="M93.6569 33.2192C95.8044 33.2192 98.0897 32.8303 100.409 31.8349C100.593 31.7662 100.628 31.6862 100.628 31.5145C100.559 30.8738 100.478 29.9471 100.478 29.2378V7.72864C100.478 7.59135 100.478 7.52271 100.306 7.52271H96.4131C96.2638 7.52271 96.1949 7.59135 96.1949 7.77441V15.0623C95.5862 14.9937 95.1613 14.9594 94.656 14.9594C88.3744 14.9594 84.5158 19.0896 84.5158 24.2495C84.5158 30.2331 88.4777 33.2192 93.6569 33.2192ZM96.1948 29.2378C95.5517 29.4437 94.8398 29.5238 94.1163 29.5238C91.2683 29.5238 88.9371 27.9221 88.9371 24.0321C88.9371 20.5884 91.3372 18.5519 94.5182 18.5519C95.1613 18.5519 95.724 18.6205 96.1948 18.8036V29.2378Z" fill="#FA0C00"/>
<path d="M113.047 14.9594C107.684 14.9594 104.365 19.0552 104.365 24.1122C104.365 28.6314 107.007 33.2192 112.967 33.2192C118.008 33.2192 121.545 29.5238 121.545 23.9978C121.545 19.1239 118.548 14.9594 113.047 14.9594ZM112.829 18.5518C115.861 18.5518 117.147 21.1489 117.147 24.1122C117.147 27.7733 115.252 29.5924 113.047 29.5924C110.325 29.5924 108.718 27.3157 108.718 24.0321C108.718 20.657 110.429 18.5518 112.829 18.5518Z" fill="#FA0C00"/>
<path d="M125.57 7.52271C125.421 7.52271 125.317 7.59135 125.317 7.77441V32.1209C125.317 32.2239 125.421 32.4069 125.57 32.4413C127.281 32.9675 129.072 33.2192 130.921 33.2192C136.215 33.2192 141.36 29.9471 141.36 23.3571C141.36 18.5862 138.076 14.9594 132.931 14.9594C131.748 14.9594 130.646 15.1424 129.681 15.4628L129.635 7.80873C129.635 7.55703 129.566 7.52271 129.314 7.52271H125.57ZM136.962 23.7918C136.962 27.739 134.252 29.5924 131.323 29.5924C130.715 29.5924 130.175 29.5581 129.681 29.4094V19.0209C130.244 18.8036 130.921 18.6205 132.173 18.6205C134.998 18.6205 136.962 20.4053 136.962 23.7918Z" fill="#FA0C00"/>
<path d="M155.889 25.0732C157.634 25.0732 159.07 25.0389 159.564 24.9245C159.747 24.8902 159.816 24.8215 159.851 24.6728C159.954 24.2838 160 23.4715 160 22.4761C160 19.0896 157.956 14.9594 152.673 14.9594C147.276 14.9594 144.279 19.3413 144.279 24.2838C144.279 28.6657 146.598 33.2192 153.098 33.2192C155.533 33.2192 157.106 32.8302 158.461 32.1895C158.599 32.1209 158.668 32.0065 158.668 31.8005V28.8373C158.668 28.6657 158.565 28.6314 158.461 28.7C157.106 29.2721 155.636 29.5581 154.028 29.5581C150.388 29.5581 148.734 27.5559 148.631 25.0732H155.889ZM148.631 22.007C148.918 20.268 150.021 18.3802 152.49 18.3802C155.211 18.3802 155.923 20.657 155.923 21.6867C155.923 21.721 155.923 21.8697 155.923 21.9727C155.774 22.007 155.315 22.007 153.96 22.007H148.631Z" fill="#FA0C00"/>
</g>
<defs>
<clipPath id="clip0_109_116">
<rect width="160" height="42" fill="white"/>
</clipPath>
</defs>
</svg>
