<svg width="160" height="60" viewBox="0 0 160 55" fill="none" xmlns="http://www.w3.org/2000/svg">
<g clip-path="url(#clip0_109_104)">
<path d="M76 17.6872H81.12V40.301H76V17.6872ZM104.88 40.3818H110V17.768H104.88V40.3818ZM94.64 27.0558C92.08 26.1674 89.68 25.5213 89.68 23.8253V23.6637C89.68 22.2908 90.88 21.4024 92.88 21.4024C93.76 21.4024 94.96 21.5639 96.08 22.0485C96.24 22.0485 96.24 22.0485 96.4 22.21C96.72 22.3715 97.04 22.3715 97.44 22.3715C98.48 22.3715 99.84 21.8869 101.2 19.9486C98.8 18.4141 95.76 17.3642 93.04 17.3642C88.64 17.3642 85.2 19.9486 85.2 24.2291V24.3906C85.2 28.6711 88.8 30.0441 92.16 30.9325C94.72 31.6593 97.12 32.3054 97.12 34.163V34.3245C97.12 35.859 95.92 36.7474 93.6 36.7474C92.08 36.7474 90.56 36.2629 88.88 35.536C88.72 35.3745 88.24 35.2129 87.52 35.2129C86.64 35.2129 85.28 35.6975 84 37.3128C86.72 39.4126 90.24 40.7048 93.36 40.7048C98.08 40.7048 101.68 38.4435 101.68 33.6784C101.6 29.4787 97.76 27.9442 94.64 27.0558ZM136.96 29.0749C136.96 35.4552 132 40.8664 125.04 40.8664C118.24 40.8664 113.2 35.6975 113.2 29.0749C113.2 22.6946 118.16 17.2834 125.04 17.2834C132 17.2834 136.96 22.6138 136.96 29.0749ZM131.84 29.1557C131.84 25.1982 128.96 21.8062 125.04 21.8062C120.96 21.8062 118.4 25.0367 118.4 28.9941C118.4 32.9515 121.28 36.3436 125.2 36.3436C129.28 36.3436 131.84 33.1938 131.84 29.1557ZM152.16 17.2834C148.64 17.2834 146.72 19.141 145.2 21.2408V17.6872H140V40.301H145.12V27.6211C145.12 24.0676 147.2 21.9677 150.08 21.9677C153.12 21.9677 154.8 23.9868 154.8 27.4596V40.3818H159.92V26.0059C160 20.7562 157.12 17.2834 152.16 17.2834ZM61.76 34.4053L55.68 17.9295H54.48V4.76505C54.48 2.18062 52.4 0 49.76 0H4.72C2.08 0 0 2.09985 0 4.76505V50.4772C0 52.9002 2.08 55.0808 4.72 55.0808H50C52.56 55.0808 54.72 52.9809 54.72 50.3157V28.2673L59.6 40.4626H64L73.12 17.6872H67.84L61.76 34.4053Z" fill="#FF3366"/>
<path d="M38.16 19.3833C41.2 19.3833 43.6 21.4831 43.6 25.7636C43.6 26.8135 43.44 28.025 43.12 29.3172L41.6 34.8091C41.44 35.4552 41.28 35.8591 41.28 36.3436C41.28 37.232 41.76 37.8782 42.32 37.8782C43.04 37.8782 44 37.232 45.04 34.3246L47.12 35.0514C45.92 39.4934 43.6 41.351 40.8 41.351C37.44 41.351 35.92 39.3319 35.92 36.5859C35.92 35.8591 36.08 35.0514 36.24 34.163L37.76 28.5096C37.92 27.8635 38.08 27.2981 38.08 26.8135C38.08 24.956 37.04 23.906 35.2 23.906C32.96 23.906 31.44 25.6021 30.64 28.6711L27.6 41.0279H22.4L23.28 37.0705C21.76 39.655 19.52 41.351 16.8 41.351C13.6 41.351 12.08 39.4934 12.08 36.5859C12.08 35.8591 12.24 34.8899 12.4 34.163L14.8 24.0676H11.04L12.08 19.7871H21.2L17.6 34.163C17.28 35.0514 17.28 35.8591 17.28 36.4244C17.28 37.3128 17.76 37.6359 18.48 37.7974H18.8C19.68 37.7974 22.56 37.3128 24.24 33.6784L26.64 24.0676H22.72L23.92 19.7871H32.08L31.04 24.7137C32.4 21.9677 35.28 19.3833 38.16 19.3833ZM19.04 16.7989C17.2 16.7989 15.84 15.4259 15.84 13.5683C15.84 11.7107 17.36 10.3378 19.04 10.3378C20.88 10.3378 22.24 11.7107 22.24 13.5683C22.4 15.4259 20.88 16.7989 19.04 16.7989Z" fill="white"/>
</g>
<defs>
<clipPath id="clip0_109_104">
<rect width="160" height="55" fill="white"/>
</clipPath>
</defs>
</svg>
