<svg width="160" height="60" viewBox="0 0 160 50" fill="none" xmlns="http://www.w3.org/2000/svg">
<g clip-path="url(#clip0_109_87)">
<path d="M84.3236 12.5626C84.3236 14.3644 82.8741 15.8158 81.0746 15.8158C79.2752 15.8158 77.8256 14.3644 77.8256 12.5626C77.8256 10.7608 79.2252 9.30931 81.0746 9.30931C82.924 9.35936 84.3236 10.8108 84.3236 12.5626ZM70.9278 19.1191C70.9278 19.4194 70.9278 19.9199 70.9278 19.9199C70.9278 19.9199 69.3783 17.9179 66.0793 17.9179C60.631 17.9179 56.3823 22.0721 56.3823 27.8278C56.3823 33.5335 60.581 37.7377 66.0793 37.7377C69.4283 37.7377 70.9278 35.6857 70.9278 35.6857V36.5365C70.9278 36.9369 71.2277 37.2372 71.6276 37.2372H75.6763V18.4184C75.6763 18.4184 71.9775 18.4184 71.6276 18.4184C71.2277 18.4184 70.9278 18.7688 70.9278 19.1191ZM70.9278 31.1812C70.178 32.2823 68.6785 33.2332 66.8791 33.2332C63.6801 33.2332 61.2308 31.2312 61.2308 27.8278C61.2308 24.4244 63.6801 22.4224 66.8791 22.4224C68.6285 22.4224 70.228 23.4234 70.9278 24.4745V31.1812ZM78.6754 18.4184H83.4739V37.2372H78.6754V18.4184ZM150.353 17.9179C147.054 17.9179 145.504 19.9199 145.504 19.9199V9.35936H140.706V37.2372C140.706 37.2372 144.405 37.2372 144.755 37.2372C145.155 37.2372 145.454 36.8869 145.454 36.5365V35.6857C145.454 35.6857 147.004 37.7377 150.303 37.7377C155.751 37.7377 160 33.5335 160 27.8278C160 22.1221 155.751 17.9179 150.353 17.9179ZM149.553 33.1832C147.704 33.1832 146.254 32.2322 145.504 31.1311V24.4244C146.254 23.4234 147.854 22.3724 149.553 22.3724C152.752 22.3724 155.201 24.3744 155.201 27.7778C155.201 31.1812 152.752 33.1832 149.553 33.1832ZM138.207 26.0761V37.2873H133.408V26.6266C133.408 23.5235 132.409 22.2723 129.709 22.2723C128.26 22.2723 126.76 23.023 125.811 24.1241V37.2372H121.012V18.4184H124.811C125.211 18.4184 125.511 18.7688 125.511 19.1191V19.9199C126.91 18.4685 128.76 17.9179 130.609 17.9179C132.708 17.9179 134.458 18.5185 135.857 19.7197C137.557 21.1211 138.207 22.9229 138.207 26.0761ZM109.366 17.9179C106.067 17.9179 104.517 19.9199 104.517 19.9199V9.35936H99.7188V37.2372C99.7188 37.2372 103.418 37.2372 103.768 37.2372C104.167 37.2372 104.467 36.8869 104.467 36.5365V35.6857C104.467 35.6857 106.017 37.7377 109.316 37.7377C114.764 37.7377 119.013 33.5335 119.013 27.8278C119.063 22.1221 114.814 17.9179 109.366 17.9179ZM108.566 33.1832C106.717 33.1832 105.267 32.2322 104.517 31.1311V24.4244C105.267 23.4234 106.867 22.3724 108.566 22.3724C111.765 22.3724 114.214 24.3744 114.214 27.7778C114.214 31.1812 111.765 33.1832 108.566 33.1832ZM95.5701 17.9179C97.0196 17.9179 97.7694 18.1682 97.7694 18.1682V22.6226C97.7694 22.6226 93.7707 21.2713 91.2714 24.1241V37.2873H86.4729V18.4184C86.4729 18.4184 90.1718 18.4184 90.5217 18.4184C90.9215 18.4184 91.2215 18.7688 91.2215 19.1191V19.9199C92.1212 18.8689 94.0706 17.9179 95.5701 17.9179ZM45.7357 35.5355C45.4857 34.9349 45.2358 34.2843 44.9859 33.7337C44.586 32.8328 44.1861 31.982 43.8363 31.1812L43.7863 31.1311C40.3373 23.6236 36.6385 16.016 32.7397 8.50851L32.5898 8.20821C32.1899 7.45746 31.79 6.65666 31.3901 5.85586C30.8903 4.95496 30.3905 4.004 29.5907 3.1031C27.9912 1.1011 25.6919 0 23.2427 0C20.7435 0 18.4942 1.1011 16.8447 3.003C16.0949 3.9039 15.5451 4.85486 15.0453 5.75576C14.6454 6.55656 14.2455 7.35736 13.8456 8.10811L13.6957 8.40841C9.84688 15.9159 6.09805 23.5235 2.64913 31.031L2.59914 31.1311C2.24925 31.9319 1.84938 32.7828 1.4495 33.6837C1.19958 34.2342 0.949657 34.8348 0.699735 35.4855C0.0499383 37.3373 -0.149999 39.0891 0.0999227 40.8909C0.649751 44.6446 3.14897 47.7978 6.59789 49.1992C7.89749 49.7498 9.24706 50 10.6466 50C11.0465 50 11.5463 49.9499 11.9462 49.8999C13.5957 49.6997 15.2952 49.1492 16.9447 48.1982C18.994 47.0471 20.9434 45.3954 23.1427 42.993C25.342 45.3954 27.3414 47.0471 29.3408 48.1982C30.9903 49.1492 32.6897 49.6997 34.3392 49.8999C34.7391 49.9499 35.2389 50 35.6388 50C37.0384 50 38.4379 49.7498 39.6876 49.1992C43.1865 47.7978 45.6357 44.5946 46.1855 40.8909C46.5854 39.1391 46.3855 37.3874 45.7357 35.5355ZM23.1927 38.1381C20.4936 34.7347 18.7441 31.5315 18.1443 28.8288C17.8944 27.6777 17.8444 26.6767 17.9943 25.7758C18.0943 24.975 18.3942 24.2743 18.7941 23.6737C19.7438 22.3223 21.3433 21.4715 23.1927 21.4715C25.0421 21.4715 26.6916 22.2723 27.5913 23.6737C27.9912 24.2743 28.2911 24.975 28.3911 25.7758C28.541 26.6767 28.4911 27.7277 28.2411 28.8288C27.6413 31.4815 25.8919 34.6847 23.1927 38.1381ZM43.1365 40.4905C42.7866 43.0931 41.0371 45.3453 38.5879 46.3463C37.3883 46.8468 36.0887 46.997 34.7891 46.8468C33.5395 46.6967 32.2899 46.2963 30.9903 45.5455C29.1908 44.5445 27.3914 42.993 25.2921 40.6907C28.591 36.6366 30.5904 32.9329 31.3402 29.6296C31.6901 28.0781 31.74 26.6767 31.5901 25.3754C31.3901 24.1241 30.9403 22.973 30.2405 21.972C28.691 19.7197 26.0918 18.4184 23.1927 18.4184C20.2936 18.4184 17.6944 19.7698 16.1449 21.972C15.4451 22.973 14.9953 24.1241 14.7953 25.3754C14.5954 26.6767 14.6454 28.1281 15.0453 29.6296C15.795 32.9329 17.8444 36.6867 21.0934 40.7407C19.044 43.043 17.1946 44.5946 15.3951 45.5956C14.0955 46.3463 12.8459 46.7467 11.5963 46.8969C10.2468 47.047 8.94716 46.8468 7.79752 46.3964C5.34828 45.3954 3.59883 43.1431 3.24894 40.5405C3.09899 39.2893 3.19895 38.038 3.6988 36.6366C3.84875 36.1361 4.09867 35.6356 4.34859 35.035C4.69849 34.2342 5.09836 33.3834 5.49824 32.5325L5.54822 32.4324C8.99714 24.975 12.696 17.3674 16.5448 9.95996L16.6947 9.65966C17.0946 8.90891 17.4945 8.10811 17.8944 7.35736C18.2942 6.55656 18.7441 5.80581 19.2939 5.15516C20.3436 3.95395 21.7432 3.3033 23.2927 3.3033C24.8422 3.3033 26.2418 3.95395 27.2914 5.15516C27.8413 5.80581 28.2911 6.55656 28.691 7.35736C29.0909 8.10811 29.4907 8.90891 29.8906 9.65966L30.0406 9.95996C33.8394 17.4174 37.5382 25.025 40.9871 32.4825V32.5325C41.387 33.3333 41.7369 34.2342 42.1368 35.035C42.3867 35.6356 42.6366 36.1361 42.7866 36.6366C43.1865 37.9379 43.3364 39.1892 43.1365 40.4905Z" fill="#FF5A5F"/>
</g>
<defs>
<clipPath id="clip0_109_87">
<rect width="160" height="50" fill="white"/>
</clipPath>
</defs>
</svg>
