<svg id="Layer_1" data-name="Layer 1" xmlns="http://www.w3.org/2000/svg" xmlns:xlink="http://www.w3.org/1999/xlink" viewBox="0 0 1920 247.67"><defs><style>.cls-1{fill:none;}.cls-2{clip-path:url(#clip-path);}.cls-3{fill:#912790;}.cls-4{fill:#e84d96;}.cls-5{fill:#0571bc;}.cls-6{fill:#f7921f;}.cls-7{fill:#8bc53e;}</style><clipPath id="clip-path"><path class="cls-1" d="M1902,102.71V224.65c-17.4-2.77-34.26-5.84-50.33-9.15-70.49-14.35-141.76-36.91-210.68-58.73-32.2-10.19-65.5-20.74-98.49-30.38-67-19.61-139.08-37.76-212.68-37.76-39.91,0-77,5.17-113.31,15.8-43.64,12.65-87.77,33.89-130.43,54.44-63.64,30.64-129.45,62.32-189.94,62.67h-1.56c-51.7,0-134.49-21.08-188.17-44.28-48.83-21.11-157.94-79.68-328.58-3.92C339.73,190.27,298,202,259.09,210a452.81,452.81,0,0,1-90.87,8.78c-59.73,0-113.65-10.19-150.22-18V188.36l25.22,3.75,1.5.22c26.43,3.82,66.38,9.59,113.09,9.59,43.9,0,84.89-5.25,121.82-15.61,35.45-9.91,70.74-25.49,104.87-40.55,56.16-24.78,109.21-48.18,162-48.18h2c40,.47,80.45,14.64,123.28,29.65C716.23,142.83,762.22,159,809,159c5.21,0,10.41-.21,15.46-.61,59.76-4.59,141.51-30,197.86-62.2C1089.53,57.69,1163.37,30.3,1241,24.31c83.56-6.44,168.06,12.2,248.47,33,51,13.21,101,29.94,153.42,36.9,50.32,6.7,105.93,10,169.94,10,24.66,0,46-.49,61.5-.85Z"/></clipPath></defs><g class="cls-2"><path class="cls-3" d="M412.4-115.46c29.42-6.27,51.1,5.55,61.3-2.89,9.33-7.72,6.93-29.32-.9-51.6-5.89-16.75-13.83-33.54-12.89-51.27s15.09-36.43,32.73-34.42c18.3,2.09,27.49,24,26.88,42.38s-7.13,36.74-4,54.9,22.67,35.58,38.89,26.85c17.89-9.63,14.31-40.39,32.28-49.86,11.29-5.95,25.63.24,34.18,9.72,12.26,13.59,10.87,22.11,20.43,32.3,25.71,27.4,92.63-6.92,104,12.28,1.95,3.31,2.86,9.24-3.15,20.62-.82,1.87-15,36.05,2.5,59.08,12.71,16.69,36.21,24.28,56.27,18.15,13.93-4.25,29.73-14.1,41.41-5.39,17.31,12.91-3.77,40.7,1.67,61.61,3.71,14.28,20.06,22.22,34.79,21.38s28.16-8.26,41-15.51q49.92-28.2,99.86-56.38c15.45-8.72,35.46-17.28,49.68-6.68,17.67,13.16,7,43.47-12.18,54.3S1014.5,34.37,993.36,40.6,950.82,66,956.23,87.35c1.5,4.9,4.44,11.52,10.64,14.9,13.36,7.3,26.61-8.79,43.53-4.52,17.59,4.45,32.82,29.18,25.83,43.52-5,10.17-18.32,11.53-28.18,10.48-8.51-.9-17.41-2.72-25.41.32a22.44,22.44,0,0,0-13.08,13.55c-4.77,14.06,6.18,31.55,20.61,34.1,20.36,3.6,46.12-15,59.19,1,11.73,14.38-6.91,34.8-24.9,39.38s-39.88,4.93-50.18,20.37c-8.5,12.73-4.6,29.55-3.92,44.84,2.45,54.85-39.63,100.35-78.79,138.84-7.52,7.39-15.49,15.05-25.64,17.88s-23-1.11-26.44-11.08c-4.6-13.42,9.76-27.46,6.41-41.24-2.46-10.14-14.26-15.85-24.62-14.59S802,402.88,794.34,410c-34.21,32-51,81.59-43.14,127.76,2.3,13.55,6.57,27.13,4.79,40.75s-12.28,27.54-26,27.1c-16.79-.55-25.5-20.34-27.62-37s-2.94-36-16.43-46c-19.41-14.4-46,2.64-63.52,19.35S579.92,577,559.18,564.57c-23.11-13.84-17-53.72-39.77-68.15-16.21-10.28-38.48-1.05-51,13.46s-19.06,33.24-29.75,49.19S409.9,589,391.07,585.23s-28.69-23.7-29.07-41.39c-.5-23.12,15.5-44.26,31.23-59.69,2.69-2.64,5.57-5.28,7.06-8.74,2.59-6,1.18-14.34-.36-20.5-2.21-8.83-7.66-16.55-16.26-20-7.09-2.85-15-2.73-22.52-2.1-7.79.65-15.51,2.07-23.33,2.41-6.22.27-13.22-.09-18.26-4.21a15.06,15.06,0,0,1-1.94-1.89c-13-15.15,11.59-43.53-2.93-63.17C305.64,353.7,288.4,351,273.2,352s-30.67,4.57-45.45.9S199.25,334.6,203.59,320c6.06-20.38,36.8-19.35,51-35.15,14.85-16.48,3.86-45.3-16-55.3s-43.66-6.26-65-.06-42.64,14.72-64.8,13.58S63.16,227.33,61,205.25c-2.23-22.45,18.86-41.62,40.95-46.2s44.81,1.31,66.92,5.8,46.12,7.35,66.37-2.58,33.2-37.42,20.43-56c-12.41-18.08-43.3-21.9-47-43.51-3.13-18.23,17.11-31.95,35.31-35.23s38.41-1.93,53.33-12.86C314.59,2,318-23.32,312.14-44s-19-38.3-29.94-56.8-19.92-39.78-16.2-60.93,24.94-40.21,45.63-34.46c15,4.17,24.42,19.24,28.66,34.2s4.8,30.84,9.7,45.61c5.64,17,21.78,33.76,31.29,31.32,9.1-2.34,8.18-21.41,25-28.57A29,29,0,0,1,412.4-115.46Z"/><path class="cls-3" d="M994.52,52.16a3.44,3.44,0,0,0,5.35,3.36C1011.07,47.8,1020.51,40.8,1028,35c16.54-12.69,22.08-18.15,23.68-26.59.38-2,2.14-12.59-4.78-20.36-.83-.94-6.61-8-14.65-6.72-5.69.9-10.62,4.48-14.61,8.65-7.64,8-11.81,17.2-16,30.89A225,225,0,0,0,994.52,52.16Z"/><path class="cls-3" d="M304.09,4.21C298.75,0,293.74-1.73,290.46-3.1a49.15,49.15,0,0,0-23.31-3.4c-9.77,1.07-18.4,6.66-17.58,15.24.55,5.69,5.2,11.62,11.05,15.92s12.79,7.21,19.69,9.61A177.25,177.25,0,0,0,319,43.14a3.41,3.41,0,0,0,2.85-1,3.46,3.46,0,0,0,.93-2.89,59.09,59.09,0,0,0-9.26-24.58A47.35,47.35,0,0,0,304.09,4.21Z"/><path class="cls-4" d="M-31.13,52.13c17.21-3.67,29.89,3.24,35.86-1.69,5.46-4.52,4-17.15-.53-30.19C.76,10.45-3.89.63-3.34-9.74S5.49-31,15.81-29.87c10.7,1.22,16.08,14,15.72,24.79S27.36,16.42,29.17,27,42.44,47.86,51.92,42.75c10.48-5.65,8.39-23.64,18.9-29.18,6.6-3.48,15,.14,20,5.68,7.17,8,6.36,12.93,12,18.9,15,16,54.19-4,60.82,7.18,1.14,1.94,1.67,5.41-1.85,12.07-.48,1.09-8.79,21.09,1.46,34.56a31.06,31.06,0,0,0,32.92,10.62c8.15-2.49,17.39-8.25,24.23-3.15,10.13,7.55-2.21,23.81,1,36,2.17,8.35,11.74,13,20.35,12.51s16.47-4.83,24-9.08l58.42-33c9-5.1,20.74-10.11,29.06-3.91,10.34,7.7,4.1,25.43-7.12,31.76s-24.91,6-37.28,9.64S283.86,158.26,287,170.76c.88,2.86,2.6,6.74,6.22,8.72,7.82,4.27,15.57-5.14,25.46-2.64,10.29,2.6,19.2,17.07,15.11,25.46-2.9,5.95-10.72,6.74-16.49,6.13-5-.53-10.18-1.59-14.87.18a13.1,13.1,0,0,0-7.65,7.93c-2.79,8.23,3.62,18.46,12.06,20,11.91,2.11,27-8.78,34.63.6,6.86,8.41-4,20.36-14.57,23s-23.33,2.89-29.36,11.92c-5,7.45-2.69,17.29-2.29,26.23,1.43,32.09-23.18,58.7-46.09,81.22-4.4,4.32-9.06,8.8-15,10.46s-13.47-.65-15.47-6.48c-2.69-7.85,5.71-16.06,3.75-24.13-1.44-5.93-8.34-9.27-14.4-8.54s-11.3,4.54-15.76,8.71a84.76,84.76,0,0,0-25.24,74.74c1.34,7.93,3.85,15.87,2.8,23.84s-7.18,16.11-15.22,15.85c-9.82-.32-14.92-11.9-16.16-21.65s-1.72-21.08-9.61-26.94c-11.36-8.42-26.94,1.54-37.16,11.32s-24.86,20.51-37,13.25c-13.52-8.1-10-31.43-23.27-39.87-9.48-6-22.51-.61-29.87,7.88s-11.15,19.45-17.41,28.77S-32.63,464.2-43.64,462s-16.78-13.86-17-24.21c-.29-13.52,9.07-25.9,18.27-34.92,1.58-1.54,3.26-3.09,4.13-5.11,1.52-3.51.69-8.39-.21-12-1.29-5.16-4.48-9.68-9.51-11.7-4.15-1.66-8.79-1.6-13.17-1.23-4.56.38-9.08,1.21-13.65,1.41-3.64.16-7.73,0-10.69-2.46a7.9,7.9,0,0,1-1.13-1.11c-7.63-8.86,6.78-25.47-1.71-36.95-5.3-7.17-15.38-8.73-24.27-8.15s-17.94,2.67-26.59.52-16.67-10.72-14.13-19.26c3.55-11.92,21.53-11.32,29.85-20.56,8.69-9.64,2.26-26.5-9.33-32.35s-25.54-3.66-38,0-24.94,8.61-37.91,7.94-26.76-9.21-28-22.12c-1.31-13.13,11-24.35,24-27s26.21.77,39.15,3.39,27,4.3,38.83-1.51,19.42-21.89,11.95-32.77c-7.26-10.58-25.33-12.81-27.5-25.45-1.83-10.66,10-18.69,20.66-20.61s22.47-1.13,31.2-7.52c10.14-7.42,12.14-22.22,8.7-34.3s-11.14-22.4-17.51-33.23S-119,37.43-116.8,25.05-102.21,1.53-90.11,4.89c8.77,2.44,14.28,11.25,16.77,20s2.81,18,5.67,26.68c3.3,9.94,12.74,19.75,18.31,18.32,5.32-1.37,4.79-12.53,14.61-16.72A20,20,0,0,1-31.13,52.13Z"/><path class="cls-4" d="M303.86,129a2,2,0,0,0,3.07,1.92c6.43-4.43,11.85-8.45,16.15-11.75,9.5-7.29,12.67-10.42,13.59-15.26.22-1.16,1.23-7.22-2.74-11.69-.48-.54-3.8-4.59-8.41-3.86-3.27.51-6.1,2.57-8.38,5-4.39,4.58-6.78,9.87-9.18,17.73A130.06,130.06,0,0,0,303.86,129Z"/><path class="cls-4" d="M188.64,11.11c0-2.09,0-7.72-4-11.93-.83-.87-4.2-4.41-9-4a9.77,9.77,0,0,0-6.2,2.92,17.35,17.35,0,0,0-3.22,6.26,43.78,43.78,0,0,0,8.43,41,2,2,0,0,0,3.47-1.12,49.62,49.62,0,0,1,3.46-14.89C184.82,21.3,188.54,18.42,188.64,11.11Z"/><path class="cls-5" d="M1816.38,338.31c20.73,4.32,29.95,27.82,35,47.1s14.85,42.79,35.65,46.48c16,2.85,30.11-9.73,32-24.37s-5.65-30-15.75-42.66c-11.58-14.48-26.89-27-34.31-43.43s-1.91-38.86,16.14-40.62c16.64-1.63,35.06,14.88,49.71,8.31,11.93-5.35,11-21.49,8.2-34.34s-5-28.65,6-35.41c19.89-12.24,54.24,21.68,71.4,6.38,12.76-11.39-3.24-34.7,4.12-49.91,6.39-13.21,27.32-13.4,42.48-6.48s27.69,18.75,42.91,25.52,36.2,6.08,42.07-7.38c5.65-12.94-6.64-29-20.91-36.3s-30.49-9.28-45.26-15.48c-23.48-9.85-42.16-32-47.57-56.91-2.76-12.73-1.54-26.2,2.44-38.56,1.49-4.61,4.3-9.15,8.76-11s9.19-.61,13.8.17c5.36.91,10.83,1.26,16.25,1.73,11.23,1,22.63,1.2,33.74-1,17.69-3.52,36.26-13.5,42.73-31.37,6.68-18.48-4.87-44.16-26.15-50.23-18.08-5.16-35.06,4.23-52,9.29S2036-40,2029.71-56.71c-6.73-18,13.8-39.54-1.39-52.87-11.92-10.46-34.9-2.52-43.36-15.48-9.78-15,17.26-32,6.43-46.4-7.38-9.81-23.25-5.44-31.74,1.92s-17.37,17.27-29.58,15.08c-12.54-2.25-19.66-16.75-18.33-28.22s8.26-21.08,12.63-31.59c7.27-17.51,6.62-39.89-7.3-55.81s-42.88-20.23-54.43-5.16c-10.88,14.19-3.31,38-16.61,50.2-14.14,13-42,3.78-57.62,15.23-19.94,14.62-5.47,50.25-22.92,67.38-13.51,13.26-39.41,8-57.11-3.82s-31.13-28.72-48.76-40.62-43.43-17.46-57.21-4.44c-13.63,12.87-7.71,36.56,4.85,52.87s30.41,28.76,42.93,45.09c13,16.9,19.56,38.05,15.86,57.08-4.44,22.82-22.32,39.8-39,56-9.92,9.66-20.24,21-19.1,35.16,1.46,18.09,21.5,35.21,17.08,52.29-3.39,13.11-20,18.38-34.9,17.4s-29.72-6.27-44.56-6.54-30.93,6.86-32.11,20.51c-1.35,15.56,17.51,28.71,34.47,31s33.38-2.25,50.32-1.55,37,9.64,40.64,25.37c3.44,14.83-9.24,27-11.2,41.58-3,22.32,19,42.72,39.72,57.1,10.25,7.13,20.71,13.95,31.18,20.77l34.93,22.76c8.79,5.73,18.14,11.66,28.37,12.69C1781.15,350.23,1797.28,334.33,1816.38,338.31Z"/><path class="cls-5" d="M1509.32,194.44c-5.14,4.44-7.88,11.37-8.14,18.21a28.34,28.34,0,0,0,.09,3.45,22,22,0,0,0,3,9.28c6,10,19.46,13.71,30.63,10.54s20-12.06,25.67-22.19c4.23-7.56,6.93-15.82,9.21-24.19a5.77,5.77,0,0,0-6.33-7.26c-3.12.41-6.24.76-9.35,1.16a292.94,292.94,0,0,0-30.59,5.08c-.75.18-1.51.36-2.26.56a43.07,43.07,0,0,0-7.28,2.39A18.88,18.88,0,0,0,1509.32,194.44Z"/><path class="cls-6" d="M1366.37,176.49c23.92-3.94,50.3-8,62.54-32.17,6.9-13.66,2-30.61-12.1-36.51-25.54-10.67-48.1,29.54-75,17.3-8.81-4-14.53-12.63-16.34-22.14-3.87-20.3,6-38.06,13.26-56.08,7.84-19.51,12.7-42.74-6.21-59.54-9.48-8.42-22.18-12.11-34.86-11.82-40.22.92-69.79,32.72-109.73,35.63-11,.8-22.2-1.11-31.66-6.76-25.3-15.11-23.93-45-24.11-71.24-.17-24.92-6.09-54.7-32.8-60.84-11.17-2.57-22.78.43-32.41,6.64-26.26,16.93-35.12,47.55-55.61,68.85-12.57,13.06-31.53,21.52-49.7,16.71-3.81-1-7.69-2.67-10.24-5.8-2.71-3.32-3.24-7.62-3.11-11.78.18-5.81.61-11.16-.86-16.87a44.4,44.4,0,0,0-6.91-14.75C931.33-97.49,915.72-104,900.33-99.5,879.18-93.35,865.88-73,870-51.37c5.92,31,37.32,60.47,21,89.59-4.47,8-12,13.8-20.39,17.31-20.41,8.47-41.81,4.95-62.9,6.08-70.57,3.79-134.3,65.89-135.33,137.85-.22,15.22,4.17,30.41,14.31,41.76,24.53,27.45,62.66,16.07,93.77,4l94.09-36.48C894,201.2,914.05,193.54,935,193.59s43.12,9.59,52.22,28.39c7.36,15.21,5,33.3.3,49.55-5.69,19.91-14.54,39.31-12,60.59,1.34,11.16,6.32,21.83,15.43,28.42,21.17,15.31,48-.39,63.11-19.54,13.92-17.65,23.89-39.38,42.8-51.53,28.88-18.55,73.28-3.56,85,28.7,8.57,23.6,2.39,53.84,27.54,67.91,10.93,6.11,24.09,6.39,35.91,2.27,41.14-14.3,68.4-57.53,66.32-100.37-1.46-29.92-15.12-63.37,2.63-87.49C1325.87,184.69,1347,179.68,1366.37,176.49Z"/><path class="cls-6" d="M814.4,53.67c6.19,1.17,15.93,2.63,23.82,3.76a10.49,10.49,0,0,0,11.86-12,56.64,56.64,0,0,0-4.9-16.23C840.68,20,832.72,12.12,822.8,9.45c-12.5-3.37-27.19,2.15-33,14.48a19.06,19.06,0,0,0-1.16,13.73C792.11,48.79,804,51.69,814.4,53.67Z"/><path class="cls-7" d="M1710.26,179.56c-14-.72-30.57,0-37.59-13.93a23,23,0,0,1-1.93-14.1c2.17-13.07,11.31-22.23,20.18-31l3.58-3.55c8.52-8.43,17.38-17.45,20.41-29,2.2-8.43.83-18-4.71-24.73s-15.47-9.89-23.5-6.51c-6.09,2.57-10.42,8.3-16.54,10.8-10.24,4.2-22.45-2.42-27.83-12.09S1636.9,34,1638,23c1.83-17.75,6.23-36.53-6.36-52-5.68-7-15.38-9.87-23.6-6.25-11.46,5.05-11.69,17.69-14.43,28.31-3.79,14.68-24,16.15-29.74,2.11-2.36-5.8-4.74-11.67-10.11-14-12.46-5.5-21.91,12.86-34.65,17.67-11.85,4.47-25.29-4.41-30.65-15.88s-4.91-24.67-5-37.33c-.07-15.39-1.46-32-14.32-42.46-6.41-5.21-15.3-6.86-22.7-3.19-11.92,5.9-12.21,20.27-8.88,31.7,3.62,12.44,10.65,24.25,7,37.87-1.67,6.28-6.49,11.51-12.9,12.58-20.08,3.33-24.6-33-46-25.4-6.24,2.2-10.78,7.5-13,13.72-4.29,11.76-19.27,31.13-32.93,14.09a25.11,25.11,0,0,1-3.38-6.24c-2.6-6.26-10.34-13.78-17-10.41-5.39,2.73-5.55,10.25-8.44,15.55-6.11,11.22-23.36,10.05-33.77,2.63-13.94-9.93-21.66-27.21-39.92-32-7.71-2-16.16.51-20.59,7.13-8.6,12.85,4.93,28.1,17.62,34.73A142.56,142.56,0,0,1,1249.63,5c4,2.77,8.22,6.28,10.1,10.63A5.85,5.85,0,0,1,1260,20a4.69,4.69,0,0,1-3.85,2.86c-2.12.24-3.75-1.12-5.31-2.35a22.33,22.33,0,0,0-27.92.75c-6.47,5.82-8.6,16.34,1,25.89a28.34,28.34,0,0,0,22.87,7.72c4.8-.48,9.28-.28,11.92,3.69,2.19,3.29,1.55,7.7-1,10.76-4.44,5.41-11.34,6.21-17.82,6.85l-65.29,6.46c-11.28,1.12-23.12,2.42-31.51,11.07a18.79,18.79,0,0,0-5.43,11.88c-.78,14.18,14,19.78,25.63,17.25,9.46-2.06,17.5-8,25.88-12.89,9.88-5.73,21.83-10.15,32.55-4.17,7.23,4,10.55,13.17,6,20.12-4.36,6.74-13.64,7.22-21.41,9-8.37,2-17.77,10-12,17.95a11.66,11.66,0,0,0,11.14,4.33l49.55-7.2c10-1.45,16,10.85,8.61,17.77a35.29,35.29,0,0,1-4.72,3.73c-10.51,6.91-23.54,9.72-31.5,20.57-3.32,4.53-4.82,10.36-3.15,15.72,4.35,13.94,22.79,12.58,34,5.37,17.6-11.31,28.43-31.72,50.51-36.71,8.67-2,18,.36,23.94,6.95,8.91,9.85,3.88,19.91,2.23,29.94-1.14,7,.24,15.57,6.65,18.54,6.94,3.22,14.85-2.32,19.38-8.48,5.62-7.63,9.83-17.34,20.69-18.36,8.62-.81,16.51,4.58,20.11,12.45,7.25,15.89.33,31.76-5.07,46.92-4.4,12.36-7.91,25.85-2.08,38.39,3.59,7.71,11.11,13.23,19.61,12.86,15.88-.69,22.43-20.14,24.07-35.8s4.89-34.64,19.76-39.35c4.31-1.36,8.93-1.17,13.45-1l30.08,1.4c17.12.8,37.07,3.2,45.84,17.93,4.2,7.05,4.92,15.82,11,22,3,3,7.21,4.58,11.24,3.46,8.62-2.4,8.93-14.27,14-21.55,6-8.74,19-9.91,28.89-6s17.59,11.73,25.77,18.51c13.53,11.22,30.55,20.54,48.48,14.79,11.58-3.72,19.64-14.88,17.44-26.85-2.08-11.29-12.07-17.42-23.71-20.68-13-3.65-12.16-22.74,1.26-24.54l.34,0c15.26-1.84,30.81,4.7,45.93-2.58,6-2.86,10.32-8.6,10.64-15.19C1739.49,186.32,1723.36,180.24,1710.26,179.56Z"/><path class="cls-7" d="M1755.15,127.89a178.11,178.11,0,0,0-34.89,9.12,5.88,5.88,0,0,0,.13,11.07c8.53,2.93,18.82,6.38,24.89,8.14,4.4,1.27,9,2.56,13.5,1.69,6.33-1.23,11.31-6.84,12.69-13.14,0-.06,0-.13,0-.19C1773.49,135,1764.8,126.4,1755.15,127.89Z"/><path class="cls-7" d="M1175.23,40.06c-4.56-1.25-9.57-1.83-13.82.65a8.62,8.62,0,0,0-4.39,6.52c-.43,5,4.08,8.26,8.35,10.19a52.75,52.75,0,0,0,30.84,3.7,4.32,4.32,0,0,0,1.69-7.75C1191,48.43,1180.8,41.59,1175.23,40.06Z"/><path class="cls-7" d="M1691,8.08c2-4,3.68-9,0-12.68a9,9,0,0,0-7.86-2.17c-8.3,1.35-13.82,9.13-15.25,17.15a41.59,41.59,0,0,0,.78,16.12,3.23,3.23,0,0,0,5.43,1.65C1679.43,22.9,1688.29,13.62,1691,8.08Z"/></g></svg>