<svg width="80" height="53" viewBox="0 0 80 53" fill="none" xmlns="http://www.w3.org/2000/svg">
<g clip-path="url(#clip0_84_13664)">
<path d="M74.6459 19.7178C70.2441 12.1959 63.4478 6.31675 55.3114 2.99252C47.175 -0.331715 38.1535 -0.915166 29.6465 1.33269C21.1395 3.58055 13.6226 8.53403 8.26223 15.4246C2.90183 22.3152 -0.00242349 30.7576 6.263e-05 39.4419H14.2699C14.2699 32.7114 16.9814 26.2566 21.8079 21.4975C26.6343 16.7383 33.1804 14.0646 40.0061 14.0646C46.8317 14.0646 53.3778 16.7383 58.2042 21.4975C63.0307 26.2566 65.7422 32.7114 65.7422 39.4419H80.0001C80.0109 32.5166 78.1637 25.7117 74.6459 19.7178Z" fill="white"/>
<path d="M52.8669 17.4668L60.003 5.27955C53.9243 1.81073 47.0232 -0.0107299 40 1.36877e-06V14.0709C44.5176 14.0644 48.9566 15.236 52.8669 17.4668Z" fill="#F7B11E"/>
<path d="M27.1331 17.4668L19.997 5.27954C13.9209 8.74874 8.87244 13.7268 5.35419 19.7182L17.7138 26.7548C19.9778 22.9013 23.2251 19.6992 27.1331 17.4668Z" fill="#FDEB48"/>
<path d="M40 14.0709V1.36877e-06C32.9768 -0.0107299 26.0757 1.81073 19.997 5.27955L27.1331 17.4668C31.0434 15.2361 35.4824 14.0645 40 14.0709Z" fill="#FED137"/>
<path d="M62.2862 26.7548L74.6458 19.7182C71.1275 13.7268 66.0791 8.74874 60.003 5.27954L52.8669 17.4668C56.7751 19.6989 60.0226 22.9011 62.2862 26.7548Z" fill="#F26D24"/>
<path d="M65.7361 39.4423H80C80.0109 32.517 78.1637 25.7121 74.6458 19.7182L62.2862 26.7548C64.5511 30.6098 65.7413 34.9871 65.7361 39.4423Z" fill="#D72626"/>
<path d="M14.2699 39.4423C14.2652 34.9871 15.4554 30.61 17.7198 26.7548L5.35419 19.7182C1.83632 25.7121 -0.0108963 32.517 -1.32234e-05 39.4423H14.2699Z" fill="#99C817"/>
<g style="mix-blend-mode:color-burn">
<path d="M64.9279 25.3536C61.7632 19.9514 56.8818 15.7278 51.0384 13.3357C45.1951 10.9437 38.7153 10.5165 32.601 12.1202C26.4867 13.7239 21.0785 17.2693 17.2127 22.208C13.3469 27.1467 11.2388 33.2036 11.2144 39.4423H14.2698C14.2698 32.7118 16.9813 26.257 21.8078 21.4978C26.6342 16.7387 33.1803 14.065 40.006 14.065C46.8316 14.065 53.3777 16.7387 58.2042 21.4978C63.0306 26.257 65.7421 32.7118 65.7421 39.4423H68.7915C68.7769 34.4935 67.4446 29.6353 64.9279 25.3536Z" fill="#919191"/>
</g>
<path d="M39.4388 37.2642L40.602 41.5482L71.293 31.1428L39.4388 37.2642Z" fill="#303030"/>
<path d="M40 44.2666C42.704 44.2666 44.8961 42.1051 44.8961 39.4387C44.8961 36.7724 42.704 34.6109 40 34.6109C37.2959 34.6109 35.1039 36.7724 35.1039 39.4387C35.1039 42.1051 37.2959 44.2666 40 44.2666Z" fill="#303030"/>
<path d="M40 42.8701C41.9219 42.8701 43.4799 41.3338 43.4799 39.4387C43.4799 37.5436 41.9219 36.0073 40 36.0073C38.0781 36.0073 36.5201 37.5436 36.5201 39.4387C36.5201 41.3338 38.0781 42.8701 40 42.8701Z" fill="white"/>
<path d="M40 41.8461C41.3484 41.8461 42.4415 40.7683 42.4415 39.4387C42.4415 38.1091 41.3484 37.0313 40 37.0313C38.6516 37.0313 37.5585 38.1091 37.5585 39.4387C37.5585 40.7683 38.6516 41.8461 40 41.8461Z" fill="#303030"/>
<g style="mix-blend-mode:soft-light">
<path d="M5.3542 21.3003C8.86551 15.3036 13.9158 10.3239 19.9974 6.86173C26.079 3.39955 32.9776 1.57687 40 1.57687C47.0224 1.57687 53.921 3.39955 60.0026 6.86173C66.0842 10.3239 71.1345 15.3036 74.6458 21.3003C77.8909 26.8302 79.717 33.058 79.9652 39.4423H80C80 28.9815 75.7857 18.9492 68.2843 11.5524C60.7828 4.15551 50.6087 0 40 0C29.3913 0 19.2172 4.15551 11.7157 11.5524C4.21427 18.9492 0 28.9815 0 39.4423H0.0347753C0.283022 33.058 2.10909 26.8302 5.3542 21.3003Z" fill="white"/>
</g>
<g clip-path="url(#clip1_84_13664)">
<g style="mix-blend-mode:multiply">
<path d="M80 47H0V53H80V47Z" fill="white"/>
<path d="M40 52.182C60.4791 52.182 77.0806 51.2054 77.0806 50.0006C77.0806 48.7959 60.4791 47.8192 40 47.8192C19.521 47.8192 2.9194 48.7959 2.9194 50.0006C2.9194 51.2054 19.521 52.182 40 52.182Z" fill="white"/>
<path d="M40 52.1464C60.1488 52.1464 76.4826 51.1857 76.4826 50.0006C76.4826 48.8155 60.1488 47.8549 40 47.8549C19.8512 47.8549 3.51736 48.8155 3.51736 50.0006C3.51736 51.1857 19.8512 52.1464 40 52.1464Z" fill="#FEFEFF"/>
<path d="M40 52.112C59.8186 52.112 75.8847 51.1667 75.8847 50.0006C75.8847 48.8345 59.8186 47.8893 40 47.8893C20.1815 47.8893 4.11536 48.8345 4.11536 50.0006C4.11536 51.1667 20.1815 52.112 40 52.112Z" fill="#FDFEFE"/>
<path d="M40 52.0764C59.4883 52.0764 75.2867 51.147 75.2867 50.0006C75.2867 48.8542 59.4883 47.9249 40 47.9249C20.5117 47.9249 4.71332 48.8542 4.71332 50.0006C4.71332 51.147 20.5117 52.0764 40 52.0764Z" fill="#FCFDFE"/>
<path d="M40 52.0407C59.158 52.0407 74.6887 51.1273 74.6887 50.0006C74.6887 48.8739 59.158 47.9605 40 47.9605C20.8419 47.9605 5.31128 48.8739 5.31128 50.0006C5.31128 51.1273 20.8419 52.0407 40 52.0407Z" fill="#FBFCFD"/>
<path d="M40 52.0064C58.8278 52.0064 74.0907 51.1084 74.0907 50.0006C74.0907 48.8929 58.8278 47.9949 40 47.9949C21.1722 47.9949 5.90927 48.8929 5.90927 50.0006C5.90927 51.1084 21.1722 52.0064 40 52.0064Z" fill="#FAFCFD"/>
<path d="M40 51.9707C58.4975 51.9707 73.4927 51.0887 73.4927 50.0006C73.4927 48.9126 58.4975 48.0305 40 48.0305C21.5024 48.0305 6.50723 48.9126 6.50723 50.0006C6.50723 51.0887 21.5024 51.9707 40 51.9707Z" fill="#F9FBFC"/>
<path d="M40 51.9351C58.1673 51.9351 72.8948 51.069 72.8948 50.0006C72.8948 48.9322 58.1673 48.0661 40 48.0661C21.8327 48.0661 7.10522 48.9322 7.10522 50.0006C7.10522 51.069 21.8327 51.9351 40 51.9351Z" fill="#F8FAFC"/>
<path d="M40 51.9007C57.837 51.9007 72.2968 51.05 72.2968 50.0006C72.2968 48.9512 57.837 48.1005 40 48.1005C22.163 48.1005 7.70319 48.9512 7.70319 50.0006C7.70319 51.05 22.163 51.9007 40 51.9007Z" fill="#F7FAFB"/>
<path d="M40 51.8651C57.5068 51.8651 71.6988 51.0303 71.6988 50.0006C71.6988 48.9709 57.5068 48.1361 40 48.1361C22.4932 48.1361 8.30118 48.9709 8.30118 50.0006C8.30118 51.0303 22.4932 51.8651 40 51.8651Z" fill="#F6F9FB"/>
<path d="M40 51.8295C57.1758 51.8295 71.0996 51.0107 71.0996 50.0006C71.0996 48.9906 57.1758 48.1718 40 48.1718C22.8241 48.1718 8.90036 48.9906 8.90036 50.0006C8.90036 51.0107 22.8241 51.8295 40 51.8295Z" fill="#F5F8FA"/>
<path d="M40 51.7951C56.8456 51.7951 70.5017 50.9917 70.5017 50.0006C70.5017 49.0096 56.8456 48.2061 40 48.2061C23.1544 48.2061 9.49835 49.0096 9.49835 50.0006C9.49835 50.9917 23.1544 51.7951 40 51.7951Z" fill="#F4F8FA"/>
<path d="M40 51.7595C56.5153 51.7595 69.9037 50.972 69.9037 50.0006C69.9037 49.0292 56.5153 48.2418 40 48.2418C23.4846 48.2418 10.0963 49.0292 10.0963 50.0006C10.0963 50.972 23.4846 51.7595 40 51.7595Z" fill="#F3F7F9"/>
<path d="M40 51.7238C56.1851 51.7238 69.3057 50.9523 69.3057 50.0006C69.3057 49.0489 56.1851 48.2774 40 48.2774C23.8149 48.2774 10.6943 49.0489 10.6943 50.0006C10.6943 50.9523 23.8149 51.7238 40 51.7238Z" fill="#F2F6F9"/>
<path d="M40 51.6895C55.8548 51.6895 68.7077 50.9333 68.7077 50.0006C68.7077 49.0679 55.8548 48.3118 40 48.3118C24.1452 48.3118 11.2923 49.0679 11.2923 50.0006C11.2923 50.9333 24.1452 51.6895 40 51.6895Z" fill="#F1F6F9"/>
<path d="M40 51.6538C55.5246 51.6538 68.1098 50.9137 68.1098 50.0006C68.1098 49.0876 55.5246 48.3474 40 48.3474C24.4754 48.3474 11.8903 49.0876 11.8903 50.0006C11.8903 50.9137 24.4754 51.6538 40 51.6538Z" fill="#F0F5F8"/>
<path d="M40 51.6194C55.1943 51.6194 67.5118 50.8947 67.5118 50.0006C67.5118 49.1066 55.1943 48.3818 40 48.3818C24.8057 48.3818 12.4882 49.1066 12.4882 50.0006C12.4882 50.8947 24.8057 51.6194 40 51.6194Z" fill="#EFF4F8"/>
<path d="M40 51.5838C54.8641 51.5838 66.9138 50.875 66.9138 50.0006C66.9138 49.1262 54.8641 48.4174 40 48.4174C25.1359 48.4174 13.0862 49.1262 13.0862 50.0006C13.0862 50.875 25.1359 51.5838 40 51.5838Z" fill="#EEF4F7"/>
<path d="M40 51.5482C54.5338 51.5482 66.3158 50.8553 66.3158 50.0006C66.3158 49.1459 54.5338 48.453 40 48.453C25.4662 48.453 13.6842 49.1459 13.6842 50.0006C13.6842 50.8553 25.4662 51.5482 40 51.5482Z" fill="#EDF3F7"/>
<path d="M40 51.5138C54.2036 51.5138 65.7179 50.8363 65.7179 50.0006C65.7179 49.1649 54.2036 48.4874 40 48.4874C25.7964 48.4874 14.2822 49.1649 14.2822 50.0006C14.2822 50.8363 25.7964 51.5138 40 51.5138Z" fill="#ECF2F6"/>
<path d="M40 51.4782C53.8733 51.4782 65.1199 50.8167 65.1199 50.0006C65.1199 49.1846 53.8733 48.523 40 48.523C26.1267 48.523 14.8801 49.1846 14.8801 50.0006C14.8801 50.8167 26.1267 51.4782 40 51.4782Z" fill="#EBF2F6"/>
<path d="M40 51.4426C53.5431 51.4426 64.5219 50.797 64.5219 50.0006C64.5219 49.2042 53.5431 48.5587 40 48.5587C26.4569 48.5587 15.4781 49.2042 15.4781 50.0006C15.4781 50.797 26.4569 51.4426 40 51.4426Z" fill="#EAF1F5"/>
<path d="M40 51.4082C53.2121 51.4082 63.9227 50.778 63.9227 50.0006C63.9227 49.2232 53.2121 48.593 40 48.593C26.7879 48.593 16.0773 49.2232 16.0773 50.0006C16.0773 50.778 26.7879 51.4082 40 51.4082Z" fill="#E9F0F5"/>
<path d="M40 51.3726C52.8819 51.3726 63.3247 50.7583 63.3247 50.0006C63.3247 49.2429 52.8819 48.6287 40 48.6287C27.1181 48.6287 16.6753 49.2429 16.6753 50.0006C16.6753 50.7583 27.1181 51.3726 40 51.3726Z" fill="#E8F0F4"/>
<path d="M40 51.3369C52.5516 51.3369 62.7267 50.7386 62.7267 50.0006C62.7267 49.2626 52.5516 48.6643 40 48.6643C27.4484 48.6643 17.2733 49.2626 17.2733 50.0006C17.2733 50.7386 27.4484 51.3369 40 51.3369Z" fill="#E7EFF4"/>
<path d="M40 51.3026C52.2214 51.3026 62.1288 50.7197 62.1288 50.0006C62.1288 49.2816 52.2214 48.6987 40 48.6987C27.7786 48.6987 17.8712 49.2816 17.8712 50.0006C17.8712 50.7197 27.7786 51.3026 40 51.3026Z" fill="#E6EEF4"/>
<path d="M40 51.2669C51.8911 51.2669 61.5308 50.7 61.5308 50.0006C61.5308 49.3012 51.8911 48.7343 40 48.7343C28.1089 48.7343 18.4692 49.3012 18.4692 50.0006C18.4692 50.7 28.1089 51.2669 40 51.2669Z" fill="#E5EEF3"/>
<path d="M40 51.2313C51.5609 51.2313 60.9328 50.6803 60.9328 50.0006C60.9328 49.3209 51.5609 48.7699 40 48.7699C28.4391 48.7699 19.0672 49.3209 19.0672 50.0006C19.0672 50.6803 28.4391 51.2313 40 51.2313Z" fill="#E4EDF3"/>
<path d="M40 51.1969C51.2306 51.1969 60.3349 50.6613 60.3349 50.0006C60.3349 49.3399 51.2306 48.8043 40 48.8043C28.7694 48.8043 19.6652 49.3399 19.6652 50.0006C19.6652 50.6613 28.7694 51.1969 40 51.1969Z" fill="#E3ECF2"/>
<path d="M40 51.1613C50.9004 51.1613 59.7369 50.6417 59.7369 50.0006C59.7369 49.3596 50.9004 48.8399 40 48.8399C29.0996 48.8399 20.2631 49.3596 20.2631 50.0006C20.2631 50.6417 29.0996 51.1613 40 51.1613Z" fill="#E2ECF2"/>
<path d="M40 51.1269C50.5701 51.1269 59.1389 50.6227 59.1389 50.0006C59.1389 49.3786 50.5701 48.8743 40 48.8743C29.4299 48.8743 20.8611 49.3786 20.8611 50.0006C20.8611 50.6227 29.4299 51.1269 40 51.1269Z" fill="#E1EBF1"/>
<path d="M40 51.0913C50.2399 51.0913 58.5409 50.603 58.5409 50.0006C58.5409 49.3982 50.2399 48.9099 40 48.9099C29.7601 48.9099 21.4591 49.3982 21.4591 50.0006C21.4591 50.603 29.7601 51.0913 40 51.0913Z" fill="#DFEAF1"/>
<path d="M40 51.0557C49.9096 51.0557 57.9429 50.5833 57.9429 50.0006C57.9429 49.4179 49.9096 48.9455 40 48.9455C30.0904 48.9455 22.0571 49.4179 22.0571 50.0006C22.0571 50.5833 30.0904 51.0557 40 51.0557Z" fill="#DEE9F0"/>
<path d="M40 51.0213C49.5787 51.0213 57.3437 50.5643 57.3437 50.0006C57.3437 49.4369 49.5787 48.9799 40 48.9799C30.4213 48.9799 22.6562 49.4369 22.6562 50.0006C22.6562 50.5643 30.4213 51.0213 40 51.0213Z" fill="#DDE9F0"/>
<path d="M40 50.9857C49.2484 50.9857 56.7458 50.5447 56.7458 50.0006C56.7458 49.4566 49.2484 49.0156 40 49.0156C30.7516 49.0156 23.2542 49.4566 23.2542 50.0006C23.2542 50.5447 30.7516 50.9857 40 50.9857Z" fill="#DCE8EF"/>
<path d="M40 50.9501C48.9182 50.9501 56.1478 50.525 56.1478 50.0006C56.1478 49.4763 48.9182 49.0512 40 49.0512C31.0818 49.0512 23.8522 49.4763 23.8522 50.0006C23.8522 50.525 31.0818 50.9501 40 50.9501Z" fill="#DBE7EF"/>
<path d="M40 50.9157C48.5879 50.9157 55.5498 50.506 55.5498 50.0006C55.5498 49.4953 48.5879 49.0856 40 49.0856C31.4121 49.0856 24.4502 49.4953 24.4502 50.0006C24.4502 50.506 31.4121 50.9157 40 50.9157Z" fill="#DAE7EE"/>
<path d="M40 50.88C48.2577 50.88 54.9518 50.4863 54.9518 50.0006C54.9518 49.5149 48.2577 49.1212 40 49.1212C31.7423 49.1212 25.0482 49.5149 25.0482 50.0006C25.0482 50.4863 31.7423 50.88 40 50.88Z" fill="#D9E6EE"/>
<path d="M40 50.8444C47.9274 50.8444 54.3539 50.4666 54.3539 50.0006C54.3539 49.5346 47.9274 49.1568 40 49.1568C32.0726 49.1568 25.6461 49.5346 25.6461 50.0006C25.6461 50.4666 32.0726 50.8444 40 50.8444Z" fill="#D8E5EE"/>
<path d="M40 50.81C47.5972 50.81 53.7559 50.4476 53.7559 50.0006C53.7559 49.5536 47.5972 49.1912 40 49.1912C32.4028 49.1912 26.2441 49.5536 26.2441 50.0006C26.2441 50.4476 32.4028 50.81 40 50.81Z" fill="#D7E5ED"/>
<path d="M40 50.7744C47.2669 50.7744 53.1579 50.428 53.1579 50.0006C53.1579 49.5733 47.2669 49.2268 40 49.2268C32.7331 49.2268 26.8421 49.5733 26.8421 50.0006C26.8421 50.428 32.7331 50.7744 40 50.7744Z" fill="#D6E4ED"/>
<path d="M40 50.7388C46.9367 50.7388 52.5599 50.4083 52.5599 50.0006C52.5599 49.5929 46.9367 49.2624 40 49.2624C33.0633 49.2624 27.4401 49.5929 27.4401 50.0006C27.4401 50.4083 33.0633 50.7388 40 50.7388Z" fill="#D5E3EC"/>
<path d="M40 50.7044C46.6064 50.7044 51.962 50.3893 51.962 50.0006C51.962 49.6119 46.6064 49.2968 40 49.2968C33.3936 49.2968 28.0381 49.6119 28.0381 50.0006C28.0381 50.3893 33.3936 50.7044 40 50.7044Z" fill="#D4E3EC"/>
<path d="M40 50.6688C46.2761 50.6688 51.364 50.3696 51.364 50.0006C51.364 49.6316 46.2761 49.3324 40 49.3324C33.7238 49.3324 28.636 49.6316 28.636 50.0006C28.636 50.3696 33.7238 50.6688 40 50.6688Z" fill="#D3E2EB"/>
<path d="M40 50.6344C45.9459 50.6344 50.766 50.3506 50.766 50.0006C50.766 49.6506 45.9459 49.3668 40 49.3668C34.0541 49.3668 29.234 49.6506 29.234 50.0006C29.234 50.3506 34.0541 50.6344 40 50.6344Z" fill="#D2E1EB"/>
<path d="M40 50.5988C45.615 50.5988 50.1668 50.331 50.1668 50.0006C50.1668 49.6703 45.615 49.4025 40 49.4025C34.385 49.4025 29.8332 49.6703 29.8332 50.0006C29.8332 50.331 34.385 50.5988 40 50.5988Z" fill="#D1E1EA"/>
<path d="M40 50.5632C45.2847 50.5632 49.5688 50.3113 49.5688 50.0006C49.5688 49.6899 45.2847 49.4381 40 49.4381C34.7153 49.4381 30.4312 49.6899 30.4312 50.0006C30.4312 50.3113 34.7153 50.5632 40 50.5632Z" fill="#D0E0EA"/>
<path d="M40 50.5288C44.9545 50.5288 48.9709 50.2923 48.9709 50.0006C48.9709 49.7089 44.9545 49.4725 40 49.4725C35.0455 49.4725 31.0291 49.7089 31.0291 50.0006C31.0291 50.2923 35.0455 50.5288 40 50.5288Z" fill="#CFDFE9"/>
<path d="M40 50.4931C44.6242 50.4931 48.3729 50.2726 48.3729 50.0006C48.3729 49.7286 44.6242 49.5081 40 49.5081C35.3758 49.5081 31.6271 49.7286 31.6271 50.0006C31.6271 50.2726 35.3758 50.4931 40 50.4931Z" fill="#CEDFE9"/>
<path d="M40 50.4575C44.294 50.4575 47.7749 50.253 47.7749 50.0006C47.7749 49.7483 44.294 49.5437 40 49.5437C35.706 49.5437 32.2251 49.7483 32.2251 50.0006C32.2251 50.253 35.706 50.4575 40 50.4575Z" fill="#CDDEE9"/>
<path d="M40 50.4231C43.9637 50.4231 47.1769 50.234 47.1769 50.0006C47.1769 49.7673 43.9637 49.5781 40 49.5781C36.0363 49.5781 32.8231 49.7673 32.8231 50.0006C32.8231 50.234 36.0363 50.4231 40 50.4231Z" fill="#CCDDE8"/>
<path d="M40 50.3875C43.6335 50.3875 46.579 50.2143 46.579 50.0006C46.579 49.7869 43.6335 49.6137 40 49.6137C36.3665 49.6137 33.4211 49.7869 33.4211 50.0006C33.4211 50.2143 36.3665 50.3875 40 50.3875Z" fill="#CBDDE8"/>
<path d="M40 50.3519C43.3032 50.3519 45.981 50.1946 45.981 50.0006C45.981 49.8066 43.3032 49.6493 40 49.6493C36.6968 49.6493 34.019 49.8066 34.019 50.0006C34.019 50.1946 36.6968 50.3519 40 50.3519Z" fill="#CADCE7"/>
<path d="M40 50.3175C42.973 50.3175 45.383 50.1756 45.383 50.0006C45.383 49.8256 42.973 49.6837 40 49.6837C37.0271 49.6837 34.617 49.8256 34.617 50.0006C34.617 50.1756 37.0271 50.3175 40 50.3175Z" fill="#C9DBE7"/>
<path d="M40 50.2819C42.6427 50.2819 44.785 50.156 44.785 50.0006C44.785 49.8453 42.6427 49.7193 40 49.7193C37.3573 49.7193 35.215 49.8453 35.215 50.0006C35.215 50.156 37.3573 50.2819 40 50.2819Z" fill="#C8DBE6"/>
<path d="M40 50.2463C42.3124 50.2463 44.1871 50.1363 44.1871 50.0006C44.1871 49.8649 42.3124 49.755 40 49.755C37.6876 49.755 35.813 49.8649 35.813 50.0006C35.813 50.1363 37.6876 50.2463 40 50.2463Z" fill="#C7DAE6"/>
<path d="M40 50.2119C41.9822 50.2119 43.5891 50.1173 43.5891 50.0006C43.5891 49.8839 41.9822 49.7894 40 49.7894C38.0178 49.7894 36.4109 49.8839 36.4109 50.0006C36.4109 50.1173 38.0178 50.2119 40 50.2119Z" fill="#C6D9E5"/>
<path d="M40 50.1763C41.6513 50.1763 42.9899 50.0976 42.9899 50.0006C42.9899 49.9036 41.6513 49.825 40 49.825C38.3487 49.825 37.0101 49.9036 37.0101 50.0006C37.0101 50.0976 38.3487 50.1763 40 50.1763Z" fill="#C5D9E5"/>
<path d="M40 50.1419C41.321 50.1419 42.3919 50.0786 42.3919 50.0006C42.3919 49.9226 41.321 49.8594 40 49.8594C38.679 49.8594 37.6081 49.9226 37.6081 50.0006C37.6081 50.0786 38.679 50.1419 40 50.1419Z" fill="#C4D8E4"/>
<path d="M40 50.1062C40.9908 50.1062 41.7939 50.059 41.7939 50.0006C41.7939 49.9423 40.9908 49.895 40 49.895C39.0093 49.895 38.2061 49.9423 38.2061 50.0006C38.2061 50.059 39.0093 50.1062 40 50.1062Z" fill="#C3D7E4"/>
<path d="M40 50.0706C40.6605 50.0706 41.196 50.0393 41.196 50.0006C41.196 49.9619 40.6605 49.9306 40 49.9306C39.3395 49.9306 38.804 49.9619 38.804 50.0006C38.804 50.0393 39.3395 50.0706 40 50.0706Z" fill="#C2D7E3"/>
<path d="M40 50.0362C40.3303 50.0362 40.598 50.0203 40.598 50.0006C40.598 49.9809 40.3303 49.965 40 49.965C39.6698 49.965 39.402 49.9809 39.402 50.0006C39.402 50.0203 39.6698 50.0362 40 50.0362Z" fill="#C1D6E3"/>
</g>
</g>
</g>
<defs>
<clipPath id="clip0_84_13664">
<rect width="80" height="53" fill="white"/>
</clipPath>
<clipPath id="clip1_84_13664">
<rect width="80" height="6" fill="white" transform="translate(0 47)"/>
</clipPath>
</defs>
</svg>
